<?xml version="1.0" encoding="utf-8"?>
<svg version="1.1" id="Layer_1" xmlns="http://www.w3.org/2000/svg" xmlns:xlink="http://www.w3.org/1999/xlink" x="0px" y="0px"
	 viewBox="0 0 32 32" style="enable-background:new 0 0 32 32;" xml:space="preserve">
<style type="text/css">
	.st0{fill:#FFFFFF;}
</style>
<path class="st0" d="M29.2,10.2l-7.4-7.4c-0.3-0.3-0.6-0.2-0.8,0.1L20,5l7,7l2.1-1C29.3,10.8,29.4,10.5,29.2,10.2z"/>
<path class="st0" d="M18.7,6.2l-6.8,0.6c-0.4,0.1-0.8,0.2-1,0.8l0,0C9,16.4,2.6,25.2,2.6,25.2l1.5,1.5l7.1-7.1
	c-0.2-0.3-0.3-0.7-0.3-1.1c0-1.4,1.1-2.5,2.5-2.5s2.5,1.1,2.5,2.5c0,1.4-1.1,2.5-2.5,2.5c-0.4,0-0.8-0.1-1.1-0.3l-7.1,7.1l1.5,1.5
	c0,0,8.8-6.3,17.7-8.2l0,0c0.6-0.2,0.7-0.5,0.8-1l0.6-6.8C25.8,13.3,18.7,6.2,18.7,6.2z"/>
</svg>
