<?xml version="1.0" encoding="utf-8"?>
<!-- Generator: Adobe Illustrator 25.2.3, SVG Export Plug-In . SVG Version: 6.00 Build 0)  -->
<svg version="1.1" id="Layer_1" xmlns="http://www.w3.org/2000/svg" xmlns:xlink="http://www.w3.org/1999/xlink" x="0px" y="0px"
	 viewBox="0 0 32 32" style="enable-background:new 0 0 32 32;" xml:space="preserve">
<style type="text/css">
	.st0{fill:#FFFFFF;}
</style>
<path class="st0" d="M8,20c0-1.1,0.9-2,2-2s2,0.9,2,2s-0.9,2-2,2S8,21.1,8,20z M20,20c0-1.1,0.9-2,2-2s2,0.9,2,2s-0.9,2-2,2
	S20,21.1,20,20z M20.1,24.3c0.5-0.4,1.3-0.3,1.7,0.2s0.3,1.3-0.2,1.7C20.1,27.3,17.9,28,16,28s-4.1-0.7-5.6-1.9
	c-0.5-0.4-0.6-1.2-0.2-1.7s1.2-0.6,1.7-0.2c0.8,0.7,2.5,1.4,4.1,1.4S19.3,24.9,20.1,24.3z M32,16c0-2.2-1.8-4-4-4
	c-1.5,0-2.8,0.8-3.5,2.1c-2.1-1.1-4.6-1.9-7.3-2l2.4-5.4L24.2,8c0.4,1.2,1.5,2,2.8,2c1.7,0,3-1.3,3-3s-1.3-3-3-3
	c-1.1,0-2.1,0.6-2.6,1.6l-5.1-1.5c-0.6-0.2-1.2,0.1-1.4,0.7L14.6,12c-2.7,0.2-5.1,0.9-7.1,2C6.8,12.8,5.5,12,4,12c-2.2,0-4,1.8-4,4
	c0,1.6,1,3,2.4,3.7C2.1,20.4,2,21.2,2,22c0,5.5,6.3,10,14,10s14-4.5,14-10c0-0.8-0.1-1.6-0.4-2.3C31,19,32,17.6,32,16L32,16z
	 M27,5.9c0.6,0,1.1,0.5,1.1,1.1S27.6,8.1,27,8.1S25.9,7.6,25.9,7S26.4,5.9,27,5.9z M2,16c0-1.1,0.9-2,2-2c0.8,0,1.5,0.5,1.8,1.1
	c-1,0.8-1.9,1.7-2.6,2.7C2.5,17.6,2,16.8,2,16z M16,29.6c-6.4,0-11.6-3.4-11.6-7.6s5.2-7.6,11.6-7.6s11.6,3.4,11.6,7.6
	S22.4,29.6,16,29.6z M28.7,17.9c-0.6-1-1.5-1.9-2.6-2.7c0.3-0.7,1-1.1,1.8-1.1c1.1,0,2,0.9,2,2C30,16.8,29.5,17.6,28.7,17.9z"/>
</svg>
