<?xml version="1.0" encoding="utf-8"?>
<!-- Generator: Adobe Illustrator 25.2.3, SVG Export Plug-In . SVG Version: 6.00 Build 0)  -->
<svg version="1.1" id="Layer_1" xmlns="http://www.w3.org/2000/svg" xmlns:xlink="http://www.w3.org/1999/xlink" x="0px" y="0px"
	 viewBox="0 0 122.9 29.6" style="enable-background:new 0 0 122.9 29.6;" xml:space="preserve">
<style type="text/css">
	.st0{fill:#F37025;}
	.st1{fill:#FFFFFF;}
</style>
<g id="Layer_2_1_">
	<g id="content">
		<path class="st0" d="M0,14.8C0,6.6,6.6,0,14.8,0s14.8,6.6,14.8,14.8S23,29.6,14.8,29.6S0,23,0,14.8C0,14.8,0,14.8,0,14.8z"/>
		<path class="st1" d="M48.3,21.4v-7.6c0-1.9-1.6-3.5-3.5-3.5s-3.5,1.6-3.5,3.5v7.6h-2.1v-7.6c0-1.5,0.6-3,1.7-4
			c2-2.2,5.5-2.3,7.6-0.2c0.1,0.1,0.2,0.2,0.2,0.2c1.1,1,1.7,2.5,1.7,4v7.6H48.3z"/>
		<path class="st0" d="M59.7,21.4h-3L51.4,8.3h2.3l4.4,10.8l4.4-10.8h2.3L59.7,21.4z"/>
		<path class="st1" d="M67.1,21.4V8.3h2.2v13.1H67.1z"/>
		<path class="st1" d="M80.2,17.8c0,1-0.4,2-1.1,2.7c-1.4,1.4-3.5,1.5-5.1,0.3c-0.7-0.5-1.2-1.3-1.3-2.1l2.1-0.6
			c0,0.2,0.1,0.4,0.2,0.5c0.1,0.2,0.2,0.3,0.4,0.4c0.1,0.1,0.3,0.2,0.5,0.3c0.2,0.1,0.4,0.1,0.6,0.1c0.4,0,0.9-0.2,1.2-0.5
			c0.3-0.3,0.5-0.7,0.5-1.1c0-0.7-0.5-1.3-1.4-1.7l-1.9-0.9C74.3,15,74,14.9,74,14.9c-0.9-0.7-1.5-1.8-1.4-2.9c0-1,0.4-2,1.1-2.7
			c0.7-0.7,1.7-1.1,2.7-1.1c0.9,0,1.7,0.3,2.3,0.8c0.7,0.5,1.2,1.3,1.3,2.1L78,11.6c-0.1-0.8-0.8-1.4-1.6-1.3
			c-0.4,0-0.9,0.2-1.2,0.5c-0.3,0.3-0.5,0.7-0.5,1.2c0,0.7,0.5,1.3,1.4,1.7l1.9,0.9c0.4,0.2,0.7,0.3,0.7,0.4
			C79.7,15.5,80.2,16.6,80.2,17.8z"/>
		<path class="st1" d="M84.5,21.4V8.3h2.2v13.1H84.5z"/>
		<path class="st1" d="M100.1,19.9c-2.1,2.2-5.5,2.3-7.7,0.2c-0.1-0.1-0.1-0.1-0.2-0.2c-1.1-1-1.7-2.4-1.7-3.9V8.3h2.2v7.6
			c0,1.9,1.5,3.5,3.5,3.5c0.9,0,1.8-0.4,2.5-1c0.7-0.6,1-1.5,1-2.5V8.3h2.2v7.6C101.8,17.4,101.2,18.8,100.1,19.9z"/>
		<path class="st1" d="M120.8,21.4v-8c0-0.8-0.3-1.6-0.8-2.1c-1-1.1-2.8-1.2-4-0.2c0,0-0.1,0.1-0.1,0.1c-0.5,0.6-0.8,1.4-0.8,2.2v8
			h-2.2v-8c0-0.8-0.2-1.6-0.8-2.2c-0.5-0.6-1.2-0.9-2-0.9c-0.8,0-1.5,0.3-2,0.9c-0.5,0.6-0.8,1.3-0.8,2.1v8h-2.2v-8
			c0-1.4,0.5-2.7,1.4-3.7c1.9-2,5-2,7-0.1c0.1,0.1,0.3,0.3,0.4,0.4c1.7-2.1,4.8-2.5,7-0.8c0.2,0.1,0.4,0.3,0.5,0.5
			c1,1,1.5,2.3,1.5,3.6v8L120.8,21.4z"/>
		<path class="st1" d="M17.2,15l-5.4-5.3c-0.6-0.7-1.5-1-2.5-1c-1.9,0-3.5,1.5-3.5,3.4c0,0,0,0,0,0c0,0.9,0.3,1.8,1,2.4l5.4,5.4
			l-1.5,1.5l-5.3-5.4c-1.1-1.1-1.6-2.5-1.6-4C3.7,9.1,6,6.6,9,6.5c0.1,0,0.2,0,0.3,0c1.5,0,2.9,0.5,4,1.6l5.4,5.4L17.2,15z"/>
		<path class="st1" d="M25.5,19.8L23.3,22l-12.5-5.9l1.6-1.6l10.5,4.9L18,8.9l1.6-1.6L25.5,19.8z"/>
	</g>
</g>
</svg>
