<svg xmlns="http://www.w3.org/2000/svg" viewBox="0 0 237.95 82.12"><defs><style>.cls-1{fill:#4365a1;}.cls-2{fill:#949b50;}</style></defs><g id="Layer_2" data-name="Layer 2"><g id="Layer_1-2" data-name="Layer 1"><path class="cls-1" d="M100.41,21.84V10.29h8.33V21.84h6.84v6.72h-6.84V48.3c0,1.88.93,2.42,3,2.42a18.21,18.21,0,0,0,3.82-.68v6.85a54,54,0,0,1-6.58.54c-6.17,0-8.59-3.09-8.59-8.06V28.56H95.57V21.84Z"/><path class="cls-1" d="M118.47,62.4a16.06,16.06,0,0,0,3.49.26c2.89,0,4.5-.8,5.5-2.75.81-1.68,1.35-2.68,1.35-4.09a17.44,17.44,0,0,0-1.07-4.17L118.4,21.84h8.39l5.78,21.49h.13l6-21.49H147l-11,35c-3.7,10-6.66,12.68-13.5,12.68a27,27,0,0,1-4-.26Z"/><rect class="cls-1" x="150.54" y="8.28" width="8.32" height="48.48"/><path class="cls-1" d="M172,40.64c.13,7.25,3.36,10.08,7.25,10.08S184.93,49,187,46.55l6,3.76c-3.22,5-7.92,7.12-14.63,7.12-9.07,0-14.78-7-14.78-18.13s5.71-18.13,15.18-18.13c9.13-.07,14.23,7.66,14.23,16v3.42ZM185.4,35c-.14-4.83-2.69-7.65-6.72-7.65S172.1,30.17,172,35Z"/><path class="cls-1" d="M197.92,56.76V21.84h7.66v6h.13c2-4.16,4.83-6.52,10.74-6.76v8.79c-1.34,0-1.81,0-2.41,0-4.17,0-7.79,4.76-7.79,5.64V56.76Z"/><path class="cls-2" d="M138.55,68.11V64.74H140v3.37h2.37v1.22H140v7.28c0,.47.34.71,1.17.71a8,8,0,0,0,1.26-.1v1.16a6.49,6.49,0,0,1-1.66.16c-1.53,0-2.18-.4-2.18-1.7V69.33h-1.68V68.11Z"/><path class="cls-2" d="M152.08,76.16a4.09,4.09,0,0,1-3.93,2.38c-2.28,0-4.45-1.58-4.45-5.32,0-3.3,1.66-5.31,4.17-5.31,2.13,0,3.9,1.38,3.9,4.65v.94h-6.65c0,2.25,1.34,3.82,3,3.82A3.16,3.16,0,0,0,151,75.59Zm-1.73-3.88c0-1.89-.9-3.15-2.44-3.15-1.71,0-2.63,1.26-2.75,3.15Z"/><path class="cls-2" d="M160.15,71.16a2.52,2.52,0,0,0-2.42-2c-1.75,0-2.77,1.5-2.77,4.09s1,4.1,2.77,4.1c1.3,0,2-.44,2.82-1.89l1.14.51c-1,1.73-1.93,2.6-4,2.6-2.56,0-4.19-2-4.19-5.32s1.63-5.31,4.19-5.31c2.11,0,3.09,1.18,3.74,2.78Z"/><path class="cls-2" d="M164.89,64.13v5.36h0a4.2,4.2,0,0,1,3-1.58,2.72,2.72,0,0,1,2.95,3v7.44H169.5v-7.4c0-1.35-.65-1.81-1.68-1.81a4.73,4.73,0,0,0-2.93,1.56v7.65h-1.41V64.13Z"/><path class="cls-2" d="M174.85,68.11v1.38h0a4.18,4.18,0,0,1,3-1.58,2.72,2.72,0,0,1,3,3v7.44h-1.42v-7.4c0-1.35-.65-1.81-1.67-1.81a4.73,4.73,0,0,0-2.93,1.56v7.65h-1.42V68.11Z"/><path class="cls-2" d="M187,78.54c-2.79,0-4.19-2.36-4.19-5.32s1.4-5.31,4.19-5.31,4.19,2.37,4.19,5.31-1.4,5.32-4.19,5.32m0-9.41c-1.69,0-2.77,1.46-2.77,4.09s1.08,4.1,2.77,4.1,2.77-1.46,2.77-4.1-1.08-4.09-2.77-4.09"/><rect class="cls-2" x="193.11" y="64.14" width="1.41" height="14.2"/><path class="cls-2" d="M200.68,78.54c-2.79,0-4.19-2.36-4.19-5.32s1.4-5.31,4.19-5.31,4.19,2.37,4.19,5.31-1.39,5.32-4.19,5.32m0-9.41c-1.69,0-2.77,1.46-2.77,4.09s1.08,4.1,2.77,4.1,2.78-1.46,2.78-4.1-1.09-4.09-2.78-4.09"/><path class="cls-2" d="M215.16,69.13a3.91,3.91,0,0,0-1.57.28,3.47,3.47,0,0,1,.71,2.08,3.64,3.64,0,0,1-3.74,3.59,5.54,5.54,0,0,1-1.81-.28,1,1,0,0,0-.81.94.75.75,0,0,0,.85.75c4.84,0,6.39.86,6.39,2.87,0,1.5-1.47,2.76-4.66,2.76-2.87,0-4.41-.79-4.41-2.48,0-1,.63-1.52,1.74-2.09a1.64,1.64,0,0,1-1.29-1.45c0-.89.6-1.26,1.38-1.76a3.42,3.42,0,0,1-1.39-2.85,3.6,3.6,0,0,1,3.87-3.58,4.14,4.14,0,0,1,2.54.71,5,5,0,0,1,2.2-.91Zm-4.85,8.78c-2.23,0-2.86,1-2.86,1.71s.47,1.28,3.31,1.28c1.69,0,3.07-.48,3.09-1.48s-1-1.51-3.54-1.51m.05-8.78a2.27,2.27,0,0,0-2.48,2.36,2.42,2.42,0,0,0,2.64,2.37A2.24,2.24,0,0,0,213,71.57a2.28,2.28,0,0,0-2.6-2.44"/><path class="cls-2" d="M217.19,78.34h1.41V68.11h-1.41Zm0-12.71h1.42V63.94h-1.42Z"/><path class="cls-2" d="M228.94,76.16A4.12,4.12,0,0,1,225,78.54c-2.28,0-4.44-1.58-4.44-5.32,0-3.3,1.65-5.31,4.16-5.31,2.13,0,3.9,1.38,3.9,4.65v.94H222c0,2.25,1.34,3.82,3,3.82a3.16,3.16,0,0,0,2.83-1.73Zm-1.73-3.88c0-1.89-.91-3.15-2.44-3.15-1.72,0-2.64,1.26-2.76,3.15Z"/><path class="cls-2" d="M231.4,75.74a3.43,3.43,0,0,0,2.93,1.58c1.53,0,2.2-.83,2.2-1.7,0-2.59-6.06-1.21-5.94-5,.06-1.77,1.41-2.78,3.38-2.76a4.52,4.52,0,0,1,3.5,1.79l-1,.87a3.21,3.21,0,0,0-2.63-1.43c-1.2,0-1.86.6-1.86,1.51,0,2.22,5.95,1.08,5.95,4.9,0,2-1.74,3-3.58,3a5.11,5.11,0,0,1-4.1-2Z"/><path class="cls-1" d="M6.43,21.89A6.43,6.43,0,1,1,0,28.32a6.43,6.43,0,0,1,6.43-6.43"/><path class="cls-1" d="M17.37,32.84A6.43,6.43,0,1,1,11,39.26a6.42,6.42,0,0,1,6.42-6.42"/><path class="cls-1" d="M28.32,43.78a6.43,6.43,0,1,1-6.43,6.43,6.43,6.43,0,0,1,6.43-6.43"/><path class="cls-1" d="M28.32,65.67a6.43,6.43,0,1,1-6.43,6.43,6.43,6.43,0,0,1,6.43-6.43"/><path class="cls-1" d="M39.26,54.73a6.43,6.43,0,1,1-6.42,6.43,6.43,6.43,0,0,1,6.42-6.43"/><path class="cls-1" d="M50.21,43.78a6.43,6.43,0,1,1-6.43,6.43,6.43,6.43,0,0,1,6.43-6.43"/><path class="cls-2" d="M28.32,21.89a6.43,6.43,0,1,1-6.43,6.43,6.43,6.43,0,0,1,6.43-6.43"/><path class="cls-2" d="M39.26,11a6.43,6.43,0,1,1-6.42,6.43A6.42,6.42,0,0,1,39.26,11"/><path class="cls-2" d="M50.21,21.89a6.43,6.43,0,1,1-6.43,6.43,6.43,6.43,0,0,1,6.43-6.43"/><path class="cls-2" d="M61.16,32.84a6.43,6.43,0,1,1-6.44,6.42,6.41,6.41,0,0,1,6.44-6.42"/><path class="cls-2" d="M72.1,43.78a6.43,6.43,0,1,1-6.43,6.43,6.43,6.43,0,0,1,6.43-6.43"/><path class="cls-2" d="M50.21,0a6.43,6.43,0,1,1-6.43,6.43A6.43,6.43,0,0,1,50.21,0"/><path class="cls-2" d="M61.33,57.39c.39,0,.84,0,.84-.5s-.34-.49-.66-.49h-.65v1Zm-.47,1.69h-.41v-3H61.6c.68,0,1,.29,1,.83a.8.8,0,0,1-.7.84l.84,1.35h-.46l-.82-1.35h-.58Zm2.66-1.51a2.13,2.13,0,1,0-2.13,2.19,2.13,2.13,0,0,0,2.13-2.19m.41,0A2.54,2.54,0,1,1,61.39,55a2.54,2.54,0,0,1,2.54,2.54"/></g></g></svg>