<svg id="svg" xmlns="http://www.w3.org/2000/svg" xmlns:xlink="http://www.w3.org/1999/xlink" width="400" height="170.48458149779736" viewBox="0, 0, 400,170.48458149779736"><g id="svgg"><path id="path0" d="M258.508 13.526 C 255.246 14.739,254.713 18.995,257.616 20.639 C 260.862 22.478,264.770 20.430,264.489 17.038 C 264.263 14.320,261.204 12.524,258.508 13.526 M219.902 23.577 C 218.553 23.844,216.972 24.720,215.921 25.784 C 214.889 26.829,214.809 26.778,214.709 25.023 L 214.648 23.945 211.017 23.991 C 209.021 24.017,207.373 24.056,207.355 24.078 C 207.337 24.101,207.276 32.371,207.219 42.456 L 207.116 60.793 210.803 60.793 C 213.807 60.793,214.513 60.734,214.612 60.476 C 214.679 60.302,214.741 57.166,214.751 53.508 C 214.772 45.865,214.704 46.197,216.007 47.344 C 222.274 52.861,231.692 48.695,233.576 39.573 C 235.564 29.950,228.637 21.848,219.902 23.577 M303.634 23.582 C 296.218 24.703,291.917 33.548,294.728 41.894 C 297.235 49.334,305.683 52.017,311.866 47.337 C 313.293 46.257,313.216 46.231,313.216 47.797 L 313.216 49.119 316.960 49.119 L 320.705 49.119 320.705 36.564 L 320.705 24.009 316.964 24.009 L 313.223 24.009 313.361 25.330 C 313.518 26.840,313.326 26.987,312.380 26.082 C 310.225 24.020,306.943 23.082,303.634 23.582 M251.125 23.803 C 249.434 24.141,247.519 25.192,246.301 26.448 L 245.154 27.632 245.154 25.924 C 245.154 23.872,245.519 24.045,241.024 23.963 L 237.445 23.899 237.445 36.499 L 237.445 49.098 241.134 49.164 C 243.164 49.200,244.898 49.198,244.989 49.161 C 245.080 49.124,245.154 46.162,245.154 42.579 C 245.154 33.403,245.891 31.950,250.737 31.563 C 253.124 31.373,252.974 31.654,252.974 27.389 C 252.974 23.193,253.085 23.410,251.125 23.803 M334.141 23.782 C 323.278 26.081,320.711 42.500,330.368 47.921 C 337.704 52.040,347.890 48.456,349.043 41.349 L 349.177 40.529 345.348 40.537 L 341.520 40.545 340.920 41.413 C 339.908 42.877,337.272 43.437,335.290 42.609 C 330.406 40.569,331.175 31.211,336.310 30.200 C 338.591 29.752,341.284 31.010,341.882 32.804 C 341.956 33.028,342.727 33.053,345.573 32.924 L 349.170 32.761 349.060 31.790 C 348.428 26.181,341.183 22.292,334.141 23.782 M256.518 23.977 C 256.450 24.086,256.390 29.763,256.384 36.592 L 256.373 49.009 260.109 49.069 L 263.845 49.129 263.916 47.087 C 263.955 45.963,263.987 40.286,263.987 34.471 L 263.987 23.899 260.314 23.838 C 258.293 23.805,256.585 23.867,256.518 23.977 M266.601 24.056 C 266.547 24.142,266.944 25.480,267.483 27.029 C 268.451 29.813,269.065 31.594,272.023 40.198 C 272.856 42.621,273.929 45.595,274.406 46.806 L 275.273 49.009 279.707 49.068 C 282.880 49.111,284.141 49.058,284.141 48.880 C 284.141 48.744,284.630 47.379,285.228 45.847 C 285.825 44.315,286.907 41.476,287.631 39.537 C 288.356 37.599,289.346 34.972,289.833 33.700 C 290.970 30.727,293.172 24.503,293.172 24.262 C 293.172 23.871,285.822 23.740,285.540 24.127 C 285.398 24.320,284.766 26.083,284.134 28.043 C 283.503 30.004,282.464 33.198,281.826 35.140 C 281.188 37.083,280.496 39.314,280.289 40.096 C 279.767 42.068,279.740 42.148,279.615 42.024 C 279.555 41.963,279.160 40.537,278.738 38.853 C 278.316 37.170,277.160 33.146,276.170 29.910 L 274.370 24.028 270.534 23.963 C 268.424 23.928,266.654 23.969,266.601 24.056 M350.220 24.080 C 350.220 24.277,353.222 32.393,354.634 36.013 C 360.112 50.060,359.728 48.078,357.771 52.203 C 357.224 53.354,356.189 55.633,355.469 57.269 C 354.750 58.904,354.106 60.366,354.039 60.518 C 353.944 60.732,354.799 60.793,357.917 60.793 L 361.916 60.793 362.870 58.756 C 364.551 55.169,366.002 51.910,366.525 50.551 C 366.804 49.824,367.503 48.139,368.077 46.806 C 368.651 45.474,369.634 43.144,370.261 41.630 C 370.888 40.116,371.593 38.451,371.829 37.932 C 372.065 37.412,372.660 35.975,373.153 34.738 C 373.645 33.501,374.124 32.390,374.217 32.269 C 374.401 32.030,376.128 27.573,376.858 25.453 C 377.413 23.845,377.383 23.821,374.917 23.894 C 373.872 23.925,372.218 23.964,371.241 23.980 L 369.465 24.009 368.956 25.496 C 368.676 26.313,367.824 28.667,367.062 30.727 C 365.006 36.289,364.115 38.842,363.960 39.616 C 363.769 40.571,363.497 40.482,363.216 39.372 C 362.514 36.599,358.473 24.523,358.115 24.127 C 357.880 23.866,350.220 23.822,350.220 24.080 M222.797 30.371 C 228.482 32.989,226.640 42.939,220.469 42.949 C 216.184 42.957,213.657 39.154,214.865 34.517 C 215.824 30.837,219.563 28.882,222.797 30.371 M309.638 30.611 C 314.669 32.895,314.727 41.197,309.723 42.696 C 305.193 44.053,301.422 41.207,301.450 36.454 C 301.477 31.962,305.807 28.873,309.638 30.611 M33.040 31.066 C 26.776 31.374,21.848 35.232,20.954 40.529 C 20.462 43.441,20.612 124.776,21.112 126.130 C 22.584 130.119,25.132 132.660,29.187 134.183 C 30.494 134.674,30.618 134.679,42.200 134.685 L 53.894 134.692 56.848 133.231 C 64.329 129.532,69.453 129.420,74.819 132.835 C 77.108 134.292,78.457 134.310,81.278 132.922 C 89.934 128.660,95.990 128.678,117.746 133.029 C 127.733 135.026,136.144 135.596,137.899 134.393 C 139.619 133.215,139.537 133.719,139.537 124.229 L 139.537 115.749 136.534 115.599 C 133.117 115.428,128.645 114.809,124.780 113.971 C 121.732 113.310,119.936 112.942,116.850 112.347 C 114.678 111.929,113.594 111.748,109.912 111.192 C 99.415 109.607,87.017 112.371,81.675 117.489 C 80.874 118.255,80.941 121.942,81.004 80.230 L 81.061 42.729 106.885 42.785 L 132.709 42.841 132.773 45.018 L 132.836 47.194 133.874 47.047 C 134.445 46.966,135.932 46.808,137.178 46.695 C 140.101 46.432,139.869 46.781,139.863 42.663 C 139.857 38.567,139.628 37.736,138.202 36.648 L 137.369 36.013 100.568 36.013 C 64.693 36.013,63.738 36.024,62.615 36.440 C 61.982 36.675,61.428 36.824,61.384 36.771 C 61.341 36.718,60.984 36.200,60.593 35.621 C 59.321 33.739,56.432 31.832,54.075 31.319 C 52.773 31.035,37.420 30.851,33.040 31.066 M53.524 38.224 C 53.827 38.380,54.372 38.820,54.736 39.202 L 55.396 39.897 55.449 81.788 L 55.501 123.678 54.894 124.882 C 53.435 127.776,52.733 127.939,41.630 127.963 C 28.297 127.991,27.753 127.707,27.753 120.709 L 27.753 116.960 39.543 116.960 L 51.333 116.960 51.272 113.711 L 51.211 110.463 39.482 110.406 L 27.753 110.349 27.753 82.817 L 27.753 55.286 39.189 55.286 C 45.479 55.286,50.782 55.226,50.973 55.153 C 51.269 55.039,51.322 54.536,51.322 51.849 L 51.322 48.678 50.275 48.658 C 49.700 48.647,44.422 48.622,38.546 48.603 L 27.863 48.568 27.801 45.718 C 27.702 41.155,28.320 39.521,30.567 38.404 C 31.939 37.721,52.238 37.562,53.524 38.224 M74.009 46.751 L 74.009 50.771 68.337 50.715 L 62.665 50.659 62.614 47.631 C 62.534 42.907,62.773 42.731,69.303 42.731 L 74.009 42.731 74.009 46.751 M136.080 52.858 C 114.764 55.565,103.891 78.951,115.598 96.916 C 122.969 108.229,140.314 112.892,151.545 106.580 L 152.420 106.088 152.994 106.623 C 153.310 106.918,153.964 107.629,154.446 108.203 L 155.324 109.248 154.865 109.991 C 154.041 111.325,153.819 111.059,164.593 121.660 C 176.565 133.441,176.807 133.650,179.175 134.280 C 185.659 136.007,192.230 130.192,191.185 123.652 C 190.749 120.920,190.479 120.583,182.081 112.271 C 168.086 98.418,169.171 99.399,168.135 99.659 C 167.407 99.842,166.399 99.200,164.984 97.652 C 163.724 96.273,163.724 96.268,164.873 94.360 C 172.605 81.520,166.865 62.657,153.121 55.743 C 148.648 53.493,141.117 52.218,136.080 52.858 M73.955 84.196 L 73.899 110.903 68.172 110.903 C 63.725 110.903,62.450 110.842,62.467 110.628 C 62.479 110.476,62.504 98.458,62.522 83.921 L 62.555 57.489 68.283 57.489 L 74.011 57.489 73.955 84.196 M145.154 59.998 C 162.513 63.718,167.339 88.258,152.671 98.219 C 137.597 108.456,118.470 99.603,117.687 82.028 C 117.045 67.623,130.473 56.853,145.154 59.998 M222.766 62.765 C 219.475 63.550,218.500 67.348,221.021 69.562 C 222.931 71.238,226.358 70.929,227.653 68.963 C 229.823 65.670,226.778 61.808,222.766 62.765 M207.269 81.167 L 207.269 98.458 211.120 98.458 L 214.972 98.458 214.958 81.167 L 214.943 63.877 211.106 63.877 L 207.269 63.877 207.269 81.167 M140.511 64.962 C 139.132 66.341,140.063 68.288,142.460 69.041 C 145.899 70.120,148.685 72.051,150.235 74.431 C 153.128 78.872,157.073 76.040,154.351 71.476 C 151.361 66.462,142.963 62.509,140.511 64.962 M236.619 67.133 L 234.141 67.195 234.141 70.161 L 234.141 73.128 232.483 73.128 L 230.825 73.128 230.886 76.156 L 230.947 79.185 232.599 79.249 L 234.251 79.312 234.251 85.856 C 234.251 96.768,235.710 98.678,244.047 98.678 L 246.708 98.678 246.647 95.579 L 246.586 92.480 244.824 92.374 C 241.697 92.185,241.633 92.030,241.631 84.637 L 241.630 79.295 243.815 79.295 C 246.909 79.295,246.696 79.525,246.696 76.188 L 246.696 73.348 244.169 73.348 L 241.642 73.348 241.581 70.227 L 241.520 67.106 240.308 67.088 C 239.642 67.078,237.982 67.099,236.619 67.133 M258.590 73.306 C 246.351 76.194,245.692 94.561,257.692 98.326 C 263.644 100.193,270.620 97.815,272.825 93.167 C 273.342 92.075,273.789 91.002,273.789 90.849 C 273.789 90.794,272.022 90.749,269.862 90.749 L 265.936 90.749 265.402 91.320 C 263.160 93.720,258.489 92.946,257.116 89.946 C 256.201 87.947,255.549 88.095,265.529 88.042 L 274.339 87.996 274.322 85.022 C 274.272 76.481,267.262 71.260,258.590 73.306 M291.689 73.135 C 289.636 73.550,286.834 75.455,286.437 76.704 C 286.151 77.607,285.917 76.562,286.043 74.940 L 286.167 73.338 282.236 73.398 L 278.304 73.458 278.304 86.013 L 278.304 98.568 280.727 98.637 C 282.059 98.675,283.763 98.643,284.512 98.566 L 285.875 98.426 285.944 91.559 C 286.039 82.170,286.595 81.162,291.960 80.653 L 293.502 80.507 293.671 78.855 C 294.200 73.667,293.864 72.695,291.689 73.135 M303.549 73.256 C 291.564 76.479,292.315 96.925,304.492 98.943 C 307.460 99.435,310.545 98.549,312.740 96.576 C 314.114 95.341,314.097 95.337,314.097 96.903 C 314.097 98.561,313.925 98.490,318.072 98.533 L 321.586 98.568 321.586 85.953 L 321.586 73.337 318.007 73.398 L 314.427 73.458 314.362 74.835 C 314.284 76.462,314.228 76.483,313.095 75.309 C 311.085 73.225,306.961 72.338,303.549 73.256 M334.944 73.243 C 325.200 75.700,322.047 88.737,329.448 95.968 C 334.803 101.201,345.779 99.534,349.197 92.969 C 350.802 89.888,350.779 89.868,345.703 89.868 L 342.563 89.868 341.992 90.616 C 340.189 92.980,336.083 92.844,334.208 90.358 C 332.528 88.131,332.610 83.612,334.370 81.364 C 336.373 78.807,340.390 78.850,342.134 81.446 L 342.760 82.379 346.387 82.379 C 350.509 82.379,350.443 82.411,349.925 80.667 C 348.210 74.893,341.531 71.583,334.944 73.243 M220.044 85.868 L 220.044 98.398 221.066 98.538 C 221.628 98.615,223.306 98.678,224.794 98.678 L 227.501 98.678 227.586 96.751 C 227.633 95.691,227.665 90.017,227.657 84.141 L 227.643 73.458 223.844 73.398 L 220.044 73.338 220.044 85.868 M351.000 73.554 C 350.926 73.673,350.965 73.948,351.086 74.165 C 351.207 74.382,352.145 76.889,353.171 79.736 C 354.197 82.583,355.870 87.043,356.890 89.648 C 359.574 96.501,359.980 97.715,359.814 98.377 C 359.656 99.008,359.311 99.792,357.548 103.524 C 355.846 107.127,354.626 110.016,354.626 110.439 C 354.626 110.766,355.023 110.797,358.535 110.743 L 362.445 110.683 363.225 109.141 C 363.654 108.293,364.389 106.657,364.859 105.507 C 365.329 104.356,366.044 102.695,366.447 101.816 C 366.851 100.937,367.181 100.176,367.181 100.125 C 367.181 100.074,368.650 96.580,370.447 92.362 C 376.210 78.828,378.194 74.013,378.194 73.558 C 378.194 73.418,376.749 73.360,374.207 73.398 L 370.220 73.458 369.797 74.559 C 369.565 75.165,368.574 77.885,367.596 80.603 C 366.617 83.321,365.582 86.076,365.296 86.724 C 365.009 87.372,364.710 88.247,364.631 88.667 C 364.406 89.865,364.178 89.755,363.802 88.268 C 363.611 87.512,362.421 83.871,361.158 80.176 L 358.862 73.458 354.998 73.398 C 352.638 73.361,351.081 73.422,351.000 73.554 M264.469 79.391 C 265.847 80.033,267.522 82.529,267.068 83.264 C 267.008 83.360,264.619 83.452,261.758 83.468 L 256.556 83.497 256.709 82.883 C 257.543 79.539,261.227 77.882,264.469 79.391 M311.199 80.222 C 313.857 81.579,315.077 85.922,313.673 89.030 C 311.620 93.575,305.087 93.373,303.078 88.704 C 300.666 83.097,305.975 77.553,311.199 80.222 M161.205 102.088 C 162.330 103.308,162.344 103.168,160.966 104.564 C 159.565 105.982,159.595 105.981,158.281 104.647 C 157.034 103.381,157.029 103.423,158.590 102.121 C 160.082 100.877,160.090 100.877,161.205 102.088 M171.293 110.846 C 186.407 125.510,185.274 124.149,184.100 126.237 C 183.354 127.564,181.635 128.266,180.337 127.773 C 179.754 127.551,162.996 110.893,162.996 110.535 C 162.996 110.143,166.454 106.657,166.887 106.612 C 166.908 106.610,168.890 108.515,171.293 110.846 M326.339 112.354 C 322.565 114.376,323.924 119.505,328.308 119.784 C 332.494 120.051,334.562 116.113,331.799 113.136 C 330.588 111.831,328.005 111.461,326.339 112.354 M284.967 113.157 L 283.921 113.240 283.921 130.519 L 283.921 147.797 287.629 147.797 L 291.338 147.797 291.484 139.171 C 291.667 128.376,291.674 113.806,291.496 113.344 C 291.363 112.998,288.157 112.906,284.967 113.157 M297.020 113.486 C 296.961 113.640,296.938 121.448,296.969 130.837 L 297.026 147.907 300.771 147.907 L 304.515 147.907 304.646 143.502 C 304.795 138.502,304.733 138.987,305.223 138.987 C 305.661 138.987,305.958 139.320,308.555 142.731 C 309.616 144.124,310.925 145.834,311.465 146.530 L 312.445 147.796 316.300 147.805 C 318.420 147.810,320.538 147.869,321.006 147.937 C 322.017 148.084,322.005 148.048,320.376 146.145 C 319.753 145.419,317.996 143.287,316.471 141.410 C 314.945 139.532,313.140 137.333,312.460 136.522 L 311.223 135.049 312.164 133.975 C 313.081 132.929,316.303 129.078,319.727 124.935 C 320.658 123.809,321.357 122.825,321.280 122.749 C 321.204 122.672,319.274 122.565,316.993 122.510 L 312.844 122.411 311.254 124.366 C 310.379 125.442,308.568 127.709,307.229 129.405 C 305.890 131.101,304.720 132.518,304.629 132.553 C 304.538 132.588,304.475 128.276,304.489 122.971 L 304.515 113.326 300.821 113.266 C 297.986 113.219,297.102 113.270,297.020 113.486 M338.868 116.367 C 338.815 116.512,338.746 117.919,338.714 119.493 L 338.656 122.357 337.059 122.422 L 335.463 122.486 335.463 124.096 C 335.463 124.982,335.526 126.316,335.604 127.060 L 335.746 128.414 337.357 128.414 L 338.969 128.414 339.033 135.407 L 339.097 142.401 339.674 143.631 C 341.122 146.719,343.855 147.994,349.064 148.010 L 351.542 148.018 351.542 144.741 L 351.542 141.464 349.569 141.369 C 346.265 141.211,346.152 140.937,346.405 133.700 L 346.586 128.524 349.174 128.462 L 351.762 128.400 351.762 125.440 L 351.762 122.481 349.064 122.419 L 346.366 122.357 346.304 119.328 L 346.243 116.300 343.221 116.274 C 341.558 116.261,339.920 116.217,339.581 116.177 C 339.241 116.137,338.920 116.222,338.868 116.367 M208.517 116.446 C 208.436 116.527,208.370 117.915,208.370 119.530 L 208.370 122.467 206.718 122.467 L 205.066 122.467 205.066 125.441 L 205.066 128.414 206.718 128.414 C 208.136 128.414,208.373 128.469,208.391 128.800 C 208.403 129.012,208.428 132.010,208.446 135.463 C 208.505 146.362,210.040 148.044,219.824 147.922 L 221.035 147.907 221.096 144.799 L 221.157 141.691 219.237 141.536 C 215.809 141.258,215.859 141.368,215.859 134.042 L 215.859 128.414 218.722 128.414 L 221.586 128.414 221.586 125.447 L 221.586 122.480 218.778 122.418 L 215.969 122.357 215.953 119.604 C 215.944 118.089,215.919 116.726,215.898 116.575 C 215.856 116.278,208.808 116.155,208.517 116.446 M72.797 117.806 L 73.899 117.952 73.939 121.200 C 73.971 123.805,73.920 124.449,73.681 124.449 C 73.517 124.449,72.557 124.256,71.548 124.021 C 68.871 123.395,66.864 123.258,64.968 123.571 C 62.234 124.023,62.505 124.294,62.544 121.145 C 62.563 119.631,62.660 118.311,62.758 118.211 C 63.213 117.755,70.264 117.470,72.797 117.806 M108.062 117.855 C 110.835 118.164,114.873 118.875,120.925 120.120 C 123.651 120.681,127.417 121.364,129.295 121.638 L 132.709 122.137 132.771 125.304 L 132.832 128.472 131.229 128.322 C 129.436 128.154,127.315 127.851,125.661 127.526 C 120.392 126.492,117.356 125.905,116.520 125.759 C 115.975 125.663,114.537 125.370,113.326 125.107 C 100.920 122.412,92.669 122.031,86.406 123.864 C 84.326 124.473,84.232 124.269,85.948 122.863 C 89.186 120.209,93.794 118.499,99.670 117.769 C 101.150 117.585,106.098 117.636,108.062 117.855 M234.031 122.335 C 220.251 125.492,220.324 145.221,234.126 148.125 C 244.607 150.329,252.783 141.958,250.326 131.536 C 248.784 124.998,241.171 120.699,234.031 122.335 M263.305 122.338 C 249.736 125.445,249.467 144.586,262.944 148.033 C 274.498 150.988,283.645 139.760,278.527 128.906 C 276.158 123.883,269.363 120.951,263.305 122.338 M324.816 122.614 C 324.736 122.695,324.670 128.384,324.670 135.258 L 324.670 147.755 325.737 147.831 C 329.002 148.065,332.425 147.779,332.293 147.283 C 332.222 147.021,332.163 141.330,332.162 134.637 L 332.159 122.467 328.561 122.467 C 326.582 122.467,324.897 122.533,324.816 122.614 M239.427 129.092 C 242.375 130.423,243.728 134.101,242.627 137.790 C 241.464 141.690,236.274 143.103,233.458 140.286 C 228.633 135.461,233.465 126.399,239.427 129.092 M268.367 128.902 C 273.226 130.338,273.480 139.143,268.722 141.261 C 264.617 143.089,260.903 140.283,260.903 135.352 C 260.903 130.293,264.004 127.613,268.367 128.902 " stroke="none" fill="#000000" fill-rule="evenodd"></path></g></svg>