<svg xmlns="http://www.w3.org/2000/svg" viewBox="0 0 220.29 43.09"><defs><style>.cls-1{fill:#544749;}.cls-2{fill:#808284;}.cls-3{fill:#3a96d2;}.cls-4{fill:#79467f;}.cls-5{fill:#f27027;}.cls-6{fill:#5fc2b0;}.cls-7{fill:#f89625;}.cls-8{fill:#ae6f29;}</style></defs><g id="Layer_2" data-name="Layer 2"><g id="Layer_3" data-name="Layer 3"><polygon class="cls-1" points="55.21 11.84 48.37 23.68 34.7 23.68 27.86 11.84 34.7 0 48.37 0 55.21 11.84"/><path class="cls-2" d="M64.09,21.2v1.44h-4.2V21.2H61l-.41-1.46H58.37l-.46,1.46h1.14v1.44H55.28V21.2h1L58,15.56H56.86V14.12h5.56v1.44H61.28l1.79,5.64Zm-3.86-2.71-.71-2.57-.77,2.57Z"/><path class="cls-2" d="M64.64,22.64V21.2h1.29V15.56H64.64V14.12h4a11.24,11.24,0,0,1,2,.15,3.81,3.81,0,0,1,1.49.69,3.73,3.73,0,0,1,1.14,1.44,4.54,4.54,0,0,1,.43,2,4.87,4.87,0,0,1-.3,1.7,4.23,4.23,0,0,1-.74,1.3,3.21,3.21,0,0,1-1.07.78,4.69,4.69,0,0,1-1.13.38,12.22,12.22,0,0,1-1.61.08Zm3.51-1.44h.53A3.75,3.75,0,0,0,70.21,21a1.87,1.87,0,0,0,.91-.89,3.42,3.42,0,0,0,.35-1.65,3.64,3.64,0,0,0-.35-1.66,2,2,0,0,0-.94-.94,3.79,3.79,0,0,0-1.5-.25h-.53Z"/><path class="cls-2" d="M76.86,22.7l-2.54-7.14h-1V14.12h4.35v1.44h-1.1L78,19.83l1.44-4.27H78.33V14.12h3.78v1.44h-1L78.63,22.7Z"/><path class="cls-2" d="M90,21.2v1.44H85.85V21.2h1.09l-.41-1.46H84.32l-.45,1.46H85v1.44H81.23V21.2h1.06L84,15.56H82.81V14.12h5.57v1.44H87.23L89,21.2Zm-3.86-2.71-.71-2.57-.76,2.57Z"/><path class="cls-2" d="M90.63,22.64V21.2h1.14V15.56H90.63V14.12h3.58l3.14,5.31V15.56H96.24V14.12h3.83v1.44h-1.2V22.7H97l-3.68-6.32V21.2h1.08v1.44Z"/><path class="cls-2" d="M107.13,14.12h1.44v3h-1.44A2.18,2.18,0,0,0,105,15.5a2.24,2.24,0,0,0-1.89.85,3.29,3.29,0,0,0-.64,2,2.92,2.92,0,0,0,.68,2,2.27,2.27,0,0,0,3.22.19,3,3,0,0,0,.87-1.62l1.68.8a4,4,0,0,1-4.21,3,4.54,4.54,0,0,1-3.46-1.24,4.39,4.39,0,0,1-1.17-3.13,4.53,4.53,0,0,1,.6-2.36,3.9,3.9,0,0,1,1.64-1.53,5,5,0,0,1,2.25-.51,4.07,4.07,0,0,1,2.56.8Z"/><path class="cls-2" d="M109.31,22.64V21.2h1V15.56h-1V14.12h7.52v2.7H115.2V15.56h-2.65v2h2.14V19h-2.14V21.2h2.65V19.93h1.63v2.71Z"/><path class="cls-2" d="M117.3,22.64V21.2h1.29V15.56H117.3V14.12h4a11.24,11.24,0,0,1,2,.15,3.81,3.81,0,0,1,1.49.69A3.73,3.73,0,0,1,126,16.4a4.54,4.54,0,0,1,.43,2,4.87,4.87,0,0,1-.3,1.7,4.23,4.23,0,0,1-.74,1.3,3.21,3.21,0,0,1-1.07.78,4.69,4.69,0,0,1-1.13.38,12.22,12.22,0,0,1-1.61.08Zm3.51-1.44h.53a3.78,3.78,0,0,0,1.53-.25,1.93,1.93,0,0,0,.92-.89,3.55,3.55,0,0,0,.34-1.65,3.64,3.64,0,0,0-.35-1.66,2,2,0,0,0-.94-.94,3.79,3.79,0,0,0-1.5-.25h-.53Z"/><path class="cls-2" d="M129.28,22.64v-2.9h1.45a1.61,1.61,0,0,0,.42,1.17,1.26,1.26,0,0,0,.89.38.9.9,0,0,0,.66-.27.91.91,0,0,0,.27-.65.89.89,0,0,0-.26-.65,3.9,3.9,0,0,0-1-.61,7.63,7.63,0,0,1-2-1.26,2,2,0,0,1-.53-1.47,2.18,2.18,0,0,1,.7-1.74A2.36,2.36,0,0,1,131.5,14a1.81,1.81,0,0,1,1.57.79v-.7h1.44v2.59h-1.44a1.44,1.44,0,0,0-.41-.93,1.13,1.13,0,0,0-.81-.33,1,1,0,0,0-.6.19.62.62,0,0,0-.25.5.76.76,0,0,0,.21.5,4,4,0,0,0,1.18.67,9.74,9.74,0,0,1,1.45.76,2.5,2.5,0,0,1,.8.88,2.55,2.55,0,0,1,.29,1.26,2.39,2.39,0,0,1-.73,1.9,2.55,2.55,0,0,1-1.74.64,2,2,0,0,1-1.73-.83v.72Z"/><path class="cls-2" d="M136.6,22.64V21.2h1.28V15.56H136.6v2h-1.47V14.12h7.73v3.42h-1.44v-2H140.1V21.2h1.28v1.44Z"/><path class="cls-2" d="M152.1,21.2v1.44h-2.59l-1.93-3.73h-1V21.2h1.07v1.44h-4.45V21.2h1.17V15.56h-1.17V14.12h5.14a2.62,2.62,0,0,1,2.09.73,2.44,2.44,0,0,1,.64,1.66,2.22,2.22,0,0,1-1.47,2.12L151,21.2Zm-5.5-3.65h.77c.94,0,1.41-.34,1.41-1a.86.86,0,0,0-.33-.74,1.44,1.44,0,0,0-.88-.24h-1Z"/><path class="cls-2" d="M151.78,15.56V14.12h4.07v1.44H155v3.85a6.74,6.74,0,0,0,.07,1.11.94.94,0,0,0,.34.57,1.12,1.12,0,0,0,.7.22,1.18,1.18,0,0,0,.72-.21.91.91,0,0,0,.37-.52,6,6,0,0,0,.08-1.28V15.56h-.82V14.12h3.39v1.44h-1v4.26a6.34,6.34,0,0,1-.09,1.27,1.88,1.88,0,0,1-.42.78,2.56,2.56,0,0,1-1,.64,4,4,0,0,1-1.45.24,4.3,4.3,0,0,1-1.61-.27,2.22,2.22,0,0,1-1-.71,2.29,2.29,0,0,1-.41-.87,8.18,8.18,0,0,1-.1-1.49V15.56Z"/><path class="cls-2" d="M167.13,14.12h1.44v3h-1.44A2.18,2.18,0,0,0,165,15.5a2.24,2.24,0,0,0-1.89.85,3.29,3.29,0,0,0-.64,2,2.92,2.92,0,0,0,.68,2,2.27,2.27,0,0,0,3.22.19,3,3,0,0,0,.87-1.62l1.68.8a4,4,0,0,1-4.21,3,4.58,4.58,0,0,1-3.47-1.24,4.42,4.42,0,0,1-1.16-3.13,4.53,4.53,0,0,1,.6-2.36,3.9,3.9,0,0,1,1.64-1.53,5,5,0,0,1,2.25-.51,4.07,4.07,0,0,1,2.56.8Z"/><path class="cls-2" d="M170.58,22.64V21.2h1.28V15.56h-1.28v2h-1.46V14.12h7.73v3.42H175.4v-2h-1.32V21.2h1.29v1.44Z"/><path class="cls-2" d="M177.17,15.56V14.12h4.06v1.44h-.83v3.85a7.05,7.05,0,0,0,.06,1.11.94.94,0,0,0,.34.57,1.12,1.12,0,0,0,.7.22,1.18,1.18,0,0,0,.72-.21.91.91,0,0,0,.37-.52,6,6,0,0,0,.08-1.28V15.56h-.82V14.12h3.39v1.44h-1v4.26a6.34,6.34,0,0,1-.09,1.27,1.88,1.88,0,0,1-.42.78,2.41,2.41,0,0,1-1,.64,4,4,0,0,1-1.45.24,4.3,4.3,0,0,1-1.61-.27,2.22,2.22,0,0,1-1-.71,2.29,2.29,0,0,1-.41-.87,8.43,8.43,0,0,1-.09-1.49V15.56Z"/><path class="cls-2" d="M194.53,21.2v1.44h-2.6L190,18.91h-1V21.2h1.06v1.44h-4.45V21.2h1.17V15.56h-1.17V14.12h5.14a2.62,2.62,0,0,1,2.09.73,2.44,2.44,0,0,1,.64,1.66A2.22,2.22,0,0,1,192,18.63l1.38,2.57ZM189,17.55h.76c.94,0,1.41-.34,1.41-1a.88.88,0,0,0-.32-.74,1.47,1.47,0,0,0-.89-.24h-1Z"/><path class="cls-2" d="M195,22.64V21.2h1V15.56h-1V14.12h7.52v2.7h-1.63V15.56h-2.65v2h2.14V19h-2.14V21.2h2.65V19.93h1.63v2.71Z"/><path class="cls-2" d="M203.05,22.64v-2.9h1.45a1.61,1.61,0,0,0,.42,1.17,1.26,1.26,0,0,0,.89.38.9.9,0,0,0,.66-.27.91.91,0,0,0,.27-.65.89.89,0,0,0-.26-.65,3.8,3.8,0,0,0-1-.61,7.71,7.71,0,0,1-2-1.26,2,2,0,0,1-.53-1.47,2.18,2.18,0,0,1,.7-1.74,2.36,2.36,0,0,1,1.59-.61,1.81,1.81,0,0,1,1.57.79v-.7h1.44v2.59h-1.44a1.49,1.49,0,0,0-.41-.93,1.13,1.13,0,0,0-.81-.33,1,1,0,0,0-.6.19.61.61,0,0,0-.24.5.75.75,0,0,0,.2.5,4,4,0,0,0,1.18.67,9.74,9.74,0,0,1,1.45.76,2.5,2.5,0,0,1,.8.88,2.55,2.55,0,0,1,.29,1.26,2.39,2.39,0,0,1-.73,1.9,2.55,2.55,0,0,1-1.74.64,2,2,0,0,1-1.73-.83v.72Z"/><path class="cls-2" d="M220.29,21.28v1.36h-2.52L217,21.7a4,4,0,0,1-2.75,1.09A3.1,3.1,0,0,1,212,22a2.45,2.45,0,0,1-.83-1.84,2.31,2.31,0,0,1,.53-1.47,5.25,5.25,0,0,1,1.83-1.28,2.35,2.35,0,0,1-.67-1.55,1.63,1.63,0,0,1,.68-1.4,2.7,2.7,0,0,1,1.64-.49,2.59,2.59,0,0,1,1.63.49,1.49,1.49,0,0,1,.65,1.25A2.22,2.22,0,0,1,216,17.66l1.21,1.54a9.5,9.5,0,0,0,1.06-1.77h2v1.36h-1a6.87,6.87,0,0,1-1,1.61l.7.88Zm-5.87-2.81c-.84.35-1.27.82-1.27,1.43a1.21,1.21,0,0,0,.4.89,1.44,1.44,0,0,0,1,.39,2.2,2.2,0,0,0,1.46-.66Zm.74-1.88c.55-.25.82-.53.82-.85a.56.56,0,0,0-.21-.44.71.71,0,0,0-.49-.18.81.81,0,0,0-.48.15.47.47,0,0,0-.21.38A2.25,2.25,0,0,0,215.16,16.59Z"/><path class="cls-1" d="M44.42,32.1H40.29V30.44a3.28,3.28,0,0,0-.14-1.17.6.6,0,0,0-1,0A3.36,3.36,0,0,0,39,30.44v6.78a2.65,2.65,0,0,0,.2,1.16.61.61,0,0,0,.57.38.58.58,0,0,0,.6-.4,4.66,4.66,0,0,0,.16-1.52V35.13h3.9a22.17,22.17,0,0,1-.13,2.59,4.14,4.14,0,0,1-.72,1.76A3.86,3.86,0,0,1,42,40.85a5.87,5.87,0,0,1-2.44.46,5.71,5.71,0,0,1-2.93-.64,3.45,3.45,0,0,1-1.54-1.77,9.26,9.26,0,0,1-.45-3.25V31.57A8,8,0,0,1,35,28.81a3.64,3.64,0,0,1,1.57-1.67,6.23,6.23,0,0,1,5.85,0A3.55,3.55,0,0,1,44,29,9.78,9.78,0,0,1,44.42,32.1Z"/><path class="cls-1" d="M56.52,31.72v3.52a14.72,14.72,0,0,1-.2,2.84,4,4,0,0,1-.83,1.69,3.76,3.76,0,0,1-1.65,1.16,6.48,6.48,0,0,1-2.3.38A8.39,8.39,0,0,1,49.08,41a3.39,3.39,0,0,1-1.56-1,3.86,3.86,0,0,1-.8-1.56,11.7,11.7,0,0,1-.23-2.74V32a9.07,9.07,0,0,1,.43-3.14,3.58,3.58,0,0,1,1.56-1.8,5.43,5.43,0,0,1,2.88-.69,6.66,6.66,0,0,1,2.53.44A4.21,4.21,0,0,1,55.52,28a4.08,4.08,0,0,1,.78,1.46A8.44,8.44,0,0,1,56.52,31.72Zm-4.38-1.08A4.7,4.7,0,0,0,52,29.25a.48.48,0,0,0-.51-.29.51.51,0,0,0-.52.29,4.26,4.26,0,0,0-.13,1.39v6.49A4.06,4.06,0,0,0,51,38.45a.5.5,0,0,0,.51.31.49.49,0,0,0,.51-.28,3.43,3.43,0,0,0,.13-1.21Z"/><path class="cls-1" d="M63.13,26.67,63.06,28a3.53,3.53,0,0,1,1.21-1.22,3.15,3.15,0,0,1,1.6-.41A3.11,3.11,0,0,1,68.63,28a4,4,0,0,1,1.25-1.22,3,3,0,0,1,1.54-.41,3,3,0,0,1,1.85.54,2.42,2.42,0,0,1,.93,1.33,11,11,0,0,1,.21,2.55V41.05H70.16V31.68A12.2,12.2,0,0,0,70,29.4a.55.55,0,0,0-.58-.44.57.57,0,0,0-.6.43,10.78,10.78,0,0,0-.14,2.29v9.37H64.48V31.92a16.16,16.16,0,0,0-.11-2.54A.52.52,0,0,0,63.8,29a.63.63,0,0,0-.49.22.83.83,0,0,0-.23.54c0,.22,0,.67,0,1.36v10H58.81V26.67Z"/><path class="cls-1" d="M81.28,26.67l-.08,1.27a4.19,4.19,0,0,1,1.29-1.15A3.22,3.22,0,0,1,84,26.41a2.93,2.93,0,0,1,1.76.55,2.4,2.4,0,0,1,.93,1.26,11.32,11.32,0,0,1,.18,2.43V36.7a11.88,11.88,0,0,1-.23,2.79,2.33,2.33,0,0,1-1,1.32,3,3,0,0,1-1.74.5,3.1,3.1,0,0,1-1.5-.38A4.18,4.18,0,0,1,81.2,39.8v3.29H76.83V26.67Zm1.24,4.18a7.93,7.93,0,0,0-.09-1.61c-.07-.19-.25-.28-.54-.28a.53.53,0,0,0-.56.32,5.46,5.46,0,0,0-.13,1.57v6a6.22,6.22,0,0,0,.13,1.63.56.56,0,0,0,.57.32.48.48,0,0,0,.52-.3,5.83,5.83,0,0,0,.1-1.44Z"/><path class="cls-1" d="M99.14,31.72v3.52A14.91,14.91,0,0,1,99,38.08a3.9,3.9,0,0,1-.84,1.69,3.68,3.68,0,0,1-1.64,1.16,6.48,6.48,0,0,1-2.3.38A8.35,8.35,0,0,1,91.71,41a3.39,3.39,0,0,1-1.56-1,3.86,3.86,0,0,1-.8-1.56,11.59,11.59,0,0,1-.24-2.74V32a9,9,0,0,1,.44-3.14,3.58,3.58,0,0,1,1.56-1.8A5.43,5.43,0,0,1,94,26.41a6.66,6.66,0,0,1,2.53.44A4.21,4.21,0,0,1,98.15,28a4.08,4.08,0,0,1,.78,1.46A9,9,0,0,1,99.14,31.72Zm-4.37-1.08a4.7,4.7,0,0,0-.12-1.39.48.48,0,0,0-.51-.29.51.51,0,0,0-.52.29,4.26,4.26,0,0,0-.13,1.39v6.49a4.06,4.06,0,0,0,.13,1.32.5.5,0,0,0,.51.31.49.49,0,0,0,.51-.28,3.43,3.43,0,0,0,.13-1.21Z"/><path class="cls-1" d="M110.45,31.27h-3.88v-.78a4.47,4.47,0,0,0-.11-1.27c-.08-.17-.27-.26-.57-.26a.67.67,0,0,0-.56.24,1.25,1.25,0,0,0-.18.73,3.75,3.75,0,0,0,.09,1,1.57,1.57,0,0,0,.55.68,12.05,12.05,0,0,0,1.89,1.07,6.93,6.93,0,0,1,2.51,1.76,4.09,4.09,0,0,1,.59,2.39,6.11,6.11,0,0,1-.45,2.65,3,3,0,0,1-1.53,1.37,6,6,0,0,1-2.57.49,7.18,7.18,0,0,1-2.85-.52,3.12,3.12,0,0,1-1.63-1.41,6.19,6.19,0,0,1-.45-2.69V36h3.88v.91a4.64,4.64,0,0,0,.15,1.5.55.55,0,0,0,.58.35.81.81,0,0,0,.65-.23,1.78,1.78,0,0,0,.18-1,2.16,2.16,0,0,0-.24-1.29A19.48,19.48,0,0,0,104,34.72a5.57,5.57,0,0,1-2.35-2,4.78,4.78,0,0,1-.42-2.09,5.46,5.46,0,0,1,.45-2.54,2.9,2.9,0,0,1,1.54-1.26,6.6,6.6,0,0,1,2.53-.45,6.9,6.9,0,0,1,2.43.37,3.72,3.72,0,0,1,1.54.95,2.52,2.52,0,0,1,.65,1.11,7.6,7.6,0,0,1,.12,1.59Z"/><path class="cls-1" d="M117.35,26.34v2.28h-4.5V26.34Zm0,3.16V41.05h-4.5V29.5Z"/><path class="cls-1" d="M124.61,26.43v2.26h1.18V31h-1.18v6a4.42,4.42,0,0,0,.14,1.58,2.5,2.5,0,0,0,1.22.16v2.32h-1.76a12.89,12.89,0,0,1-2.14-.13,2.23,2.23,0,0,1-1.12-.57,1.88,1.88,0,0,1-.61-1,18.08,18.08,0,0,1-.12-2.72V31h-.94V28.69h.94V26.43Z"/><path class="cls-1" d="M137.69,34.11H132v3.11a3.35,3.35,0,0,0,.14,1.26.53.53,0,0,0,.54.28.64.64,0,0,0,.66-.37,4.13,4.13,0,0,0,.17-1.45V35.05h4.15v1.06a9.65,9.65,0,0,1-.17,2,4.15,4.15,0,0,1-.78,1.52,3.92,3.92,0,0,1-1.57,1.22,6.05,6.05,0,0,1-2.38.41,7,7,0,0,1-2.44-.4,4.06,4.06,0,0,1-1.66-1.1,4,4,0,0,1-.81-1.54,9.54,9.54,0,0,1-.23-2.44v-4.2a7.14,7.14,0,0,1,.51-3A3.49,3.49,0,0,1,129.82,27a6.7,6.7,0,0,1,5.71.12A3.88,3.88,0,0,1,137.21,29a8.77,8.77,0,0,1,.48,3.25Zm-4.39-2.33V30.72a5.29,5.29,0,0,0-.12-1.44.47.47,0,0,0-.48-.32c-.31,0-.49.09-.57.27a6.12,6.12,0,0,0-.1,1.49v1.06Z"/><path class="cls-1" d="M149,31.27h-3.88v-.78a4.47,4.47,0,0,0-.11-1.27c-.08-.17-.27-.26-.57-.26a.64.64,0,0,0-.55.24,1.18,1.18,0,0,0-.19.73,3.28,3.28,0,0,0,.1,1,1.5,1.5,0,0,0,.55.68,11.13,11.13,0,0,0,1.89,1.07,6.87,6.87,0,0,1,2.5,1.76,4,4,0,0,1,.6,2.39,6.09,6.09,0,0,1-.46,2.65,3,3,0,0,1-1.52,1.37,6.08,6.08,0,0,1-2.57.49,7.2,7.2,0,0,1-2.86-.52,3.16,3.16,0,0,1-1.63-1.41,6.36,6.36,0,0,1-.44-2.69V36h3.88v.91a4.73,4.73,0,0,0,.14,1.5.56.56,0,0,0,.58.35.8.8,0,0,0,.65-.23,1.76,1.76,0,0,0,.19-1,2.16,2.16,0,0,0-.24-1.29,20.92,20.92,0,0,0-2.55-1.54,5.64,5.64,0,0,1-2.35-2,4.78,4.78,0,0,1-.42-2.09,5.46,5.46,0,0,1,.45-2.54,2.93,2.93,0,0,1,1.55-1.26,6.57,6.57,0,0,1,2.53-.45,7,7,0,0,1,2.43.37,3.79,3.79,0,0,1,1.54.95,2.73,2.73,0,0,1,.65,1.11,8.56,8.56,0,0,1,.11,1.59Z"/><path class="cls-1" d="M166.06,32.1h-4.13V30.44a3.28,3.28,0,0,0-.14-1.17.52.52,0,0,0-.52-.31.52.52,0,0,0-.51.27,3.36,3.36,0,0,0-.13,1.21v6.78a2.68,2.68,0,0,0,.19,1.16.63.63,0,0,0,.58.38.59.59,0,0,0,.6-.4,5,5,0,0,0,.16-1.52V35.13h3.9a22.17,22.17,0,0,1-.13,2.59,4.14,4.14,0,0,1-.72,1.76,3.92,3.92,0,0,1-1.6,1.37,5.87,5.87,0,0,1-2.44.46,5.71,5.71,0,0,1-2.93-.64,3.45,3.45,0,0,1-1.54-1.77,9.26,9.26,0,0,1-.45-3.25V31.57a8,8,0,0,1,.37-2.76,3.64,3.64,0,0,1,1.57-1.67,6.23,6.23,0,0,1,5.85,0A3.55,3.55,0,0,1,165.66,29,9.78,9.78,0,0,1,166.06,32.1Z"/><path class="cls-1" d="M178.17,34.11H172.5v3.11a3.58,3.58,0,0,0,.14,1.26.55.55,0,0,0,.54.28.65.65,0,0,0,.67-.37,4.13,4.13,0,0,0,.17-1.45V35.05h4.15v1.06a9.65,9.65,0,0,1-.17,2,4.19,4.19,0,0,1-.79,1.52,3.82,3.82,0,0,1-1.56,1.22,6.12,6.12,0,0,1-2.38.41,7.11,7.11,0,0,1-2.45-.4,4,4,0,0,1-1.65-1.1,4,4,0,0,1-.82-1.54,10,10,0,0,1-.23-2.44v-4.2a7.14,7.14,0,0,1,.51-3A3.52,3.52,0,0,1,170.3,27a6.68,6.68,0,0,1,5.7.12A3.88,3.88,0,0,1,177.68,29a8.54,8.54,0,0,1,.49,3.25Zm-4.39-2.33V30.72a5.29,5.29,0,0,0-.12-1.44.47.47,0,0,0-.49-.32c-.3,0-.49.09-.56.27a5.92,5.92,0,0,0-.11,1.49v1.06Z"/><path class="cls-1" d="M184.9,26.67,184.83,28a3,3,0,0,1,2.75-1.59,3,3,0,0,1,1.84.53,2.38,2.38,0,0,1,.92,1.34,12,12,0,0,1,.21,2.69V41.05h-4.38v-10a8.8,8.8,0,0,0-.1-1.81c-.06-.21-.24-.32-.54-.32a.53.53,0,0,0-.58.37,9.38,9.38,0,0,0-.12,2v9.72h-4.38V26.67Z"/><path class="cls-1" d="M197.75,26.38v2.27h1.18v2.27h-1.18V37a4.42,4.42,0,0,0,.14,1.58,2.5,2.5,0,0,0,1.22.16v2.32h-1.76a12.89,12.89,0,0,1-2.14-.13,2.23,2.23,0,0,1-1.12-.57,1.88,1.88,0,0,1-.61-1,18.08,18.08,0,0,1-.12-2.72V30.92h-.94V28.65h.94V26.38Z"/><path class="cls-1" d="M210.83,34.11h-5.67v3.11a3.58,3.58,0,0,0,.14,1.26.55.55,0,0,0,.54.28.65.65,0,0,0,.67-.37,4.13,4.13,0,0,0,.17-1.45V35.05h4.15v1.06a9.65,9.65,0,0,1-.17,2,4.15,4.15,0,0,1-.78,1.52,3.92,3.92,0,0,1-1.57,1.22,6.05,6.05,0,0,1-2.38.41,7,7,0,0,1-2.44-.4,4.06,4.06,0,0,1-1.66-1.1,4.18,4.18,0,0,1-.82-1.54,10.11,10.11,0,0,1-.22-2.44v-4.2a7.14,7.14,0,0,1,.51-3A3.45,3.45,0,0,1,203,27a6.7,6.7,0,0,1,5.71.12A3.93,3.93,0,0,1,210.35,29a8.77,8.77,0,0,1,.48,3.25Zm-4.39-2.33V30.72a5.29,5.29,0,0,0-.12-1.44.47.47,0,0,0-.49-.32c-.3,0-.49.09-.56.27a5.92,5.92,0,0,0-.11,1.49v1.06Z"/><path class="cls-1" d="M217.49,26.67l-.17,1.89a3.25,3.25,0,0,1,2.76-2.15v5.06a3.65,3.65,0,0,0-1.77.33,1.35,1.35,0,0,0-.69.9,15.89,15.89,0,0,0-.13,2.67v5.68h-4.38V26.67Z"/><polygon class="cls-3" points="11.17 17.06 20.2 17.06 22.58 12.66 8.79 12.66 11.17 17.06"/><polygon class="cls-4" points="31.27 25.96 24.22 13.75 21.76 18.28 26.2 25.96 31.27 25.96"/><polygon class="cls-5" points="0 25.96 5.07 25.96 9.56 18.19 7.1 13.66 0 25.96"/><polygon class="cls-6" points="31.27 27.99 26.2 27.99 21.76 35.67 24.22 40.2 31.27 27.99"/><polygon class="cls-7" points="20.2 36.63 11.4 36.63 8.83 41.02 22.58 41.02 20.2 36.63"/><polygon class="cls-8" points="9.67 35.96 5.07 27.99 0 27.99 7.12 40.32 9.67 35.96"/></g></g></svg>