<svg xmlns="http://www.w3.org/2000/svg" viewBox="0 0 211.36 36"><defs><style>.cls-1{fill:#fff;}</style></defs><g id="Layer_2" data-name="Layer 2"><g id="Layer_1-2" data-name="Layer 1"><path class="cls-1" d="M142.85,12.54a4.26,4.26,0,0,1-2.56.92c-1.63,0-2.7-.79-2.7-2.79V4.74h2.15v5.63c0,.85.37,1.26,1.17,1.26a3,3,0,0,0,1.73-.71V4.74h2.13v8.63H143Z"/><path class="cls-1" d="M152.16,13.37l-3.4-5.16v5.16h-2V4.74h2.07L152,9.57V4.74h2v8.63Z"/><path class="cls-1" d="M156,13.37V4.74h2.13v8.63Z"/><path class="cls-1" d="M164.7,13.42h-2.29l-3-8.41,2.29-.35,2,6.05,1.86-6h2.23Z"/><path class="cls-1" d="M169,13.37V4.74h5.37V6.47h-3.27V8.09h2.5l.27,1.72h-2.77v1.82h3.38v1.74Z"/><path class="cls-1" d="M180.72,13.46l-1.89-3.05h-.53v3h-2.13V4.74h3c2.09,0,3.32,1,3.32,2.73a2.5,2.5,0,0,1-1.63,2.45L183,13.09ZM179,6.36h-.68V8.87H179c.92,0,1.45-.45,1.45-1.28S179.9,6.36,179,6.36Z"/><path class="cls-1" d="M187,13.47a7.06,7.06,0,0,1-3-.65l.31-1.83a6.08,6.08,0,0,0,2.74.8c.61,0,1-.26,1-.77s-.24-.71-1.46-1.18c-1.72-.66-2.47-1.22-2.47-2.65,0-1.66,1.3-2.54,3-2.54a5.53,5.53,0,0,1,2.6.57L189.38,7a4.71,4.71,0,0,0-2.25-.7c-.65,0-1,.27-1,.67s.24.65,1.31,1.07c1.89.68,2.63,1.33,2.63,2.71C190.11,12.64,188.73,13.47,187,13.47Z"/><path class="cls-1" d="M191.71,13.37V4.74h2.13v8.63Z"/><path class="cls-1" d="M199.77,6.56v6.81h-2.15V6.56h-2.43V4.74H202l.3,1.82Z"/><path class="cls-1" d="M208.25,10.19v3.18h-2.14V10.22l-3-5.25,2.27-.31,1.88,3.57,1.81-3.49h2.27Z"/><path class="cls-1" d="M137.62,31.37V22.74h2.14v6.78h2.65l.29,1.85Z"/><path class="cls-1" d="M144,31.37V22.74h2.13v8.63Z"/><path class="cls-1" d="M151,31.37h-2.89V22.74h2.94c2,0,2.94.84,2.94,2.24a1.94,1.94,0,0,1-1.25,1.83,2,2,0,0,1,1.56,2.07C154.34,30.54,153.09,31.37,151,31.37Zm-.1-7.09h-.76v1.95h.71c.8,0,1.23-.39,1.23-1S151.77,24.28,150.94,24.28Zm0,3.33h-.76v2.22H151c.86,0,1.36-.36,1.36-1.1S151.85,27.61,150.94,27.61Z"/><path class="cls-1" d="M160.5,31.46l-1.88-3.05h-.54v3H156V22.74h3c2.09,0,3.32,1,3.32,2.73a2.5,2.5,0,0,1-1.63,2.45l2.11,3.17Zm-1.75-7.1h-.68v2.51h.66c.92,0,1.45-.45,1.45-1.28S159.68,24.36,158.75,24.36Z"/><path class="cls-1" d="M166.76,22.71h2.35l3,8.4-2.16.35-.64-1.88h-3l-.58,1.79h-2.1Zm.09,5.2h1.94l-1-3Z"/><path class="cls-1" d="M177.92,31.46,176,28.41h-.54v3h-2.12V22.74h3c2.08,0,3.31,1,3.31,2.73a2.5,2.5,0,0,1-1.62,2.45l2.11,3.17Zm-1.74-7.1h-.69v2.51h.66c.93,0,1.45-.45,1.45-1.28S177.1,24.36,176.18,24.36Z"/><path class="cls-1" d="M181.47,31.37V22.74h2.14v8.63Z"/><path class="cls-1" d="M185.61,31.37V22.74H191v1.73h-3.27v1.62h2.5l.27,1.72h-2.77v1.82h3.38v1.74Z"/><path class="cls-1" d="M195.35,31.47a7.11,7.11,0,0,1-3-.65l.32-1.83a6,6,0,0,0,2.73.8c.61,0,1-.26,1-.77s-.25-.71-1.46-1.18c-1.73-.66-2.48-1.22-2.48-2.65,0-1.66,1.3-2.54,3-2.54a5.5,5.5,0,0,1,2.6.57l-.32,1.8a4.74,4.74,0,0,0-2.25-.7c-.65,0-1,.27-1,.67s.23.65,1.31,1.07c1.89.68,2.62,1.33,2.62,2.71C198.43,30.64,197.06,31.47,195.35,31.47Z"/><rect class="cls-1" x="126.72" width="0.4" height="36"/><path class="cls-1" d="M11.91,9.88c.06,0,.09,0,.09,0,3.95-.15,6.22,1.35,6.41,2l1.58,0,.49-1.07a.33.33,0,0,0,0-.25C20,10,16,8.87,11.21,8.87c-5.12,0-8.37,1-9.06,1.52a.34.34,0,0,0-.16.25.76.76,0,0,0,.09.26l.14.3c0,.09.11.08.21,0s.09,0,.11-.09,0-.16,0-.16c-.1-.21,0-.24,0-.24l.3-.14c.14,0,.15,0,.2.15a.59.59,0,0,0,.09.18,5.81,5.81,0,0,0,1-.26l.16-.05c.07,0,0-.26,0-.26s-.08-.24.18-.28L4.92,10c.21-.05.22.06.25.17a.65.65,0,0,0,.06.25c0,.1.16-.05,1.49-.19,0,0,.2,0,.23-.08a.42.42,0,0,0,0-.22c0-.16-.08-.28.23-.3l.58-.06c.44-.07.37.08.38.24a.69.69,0,0,0,0,.21s.17,0,.17,0c.74-.08,1.16-.08,2-.11,0,0,.12,0,.16-.05a.11.11,0,0,0,0-.09c0-.09,0-.24,0-.3s.16,0,.27,0h.66c.11,0,.32,0,.38,0a1.34,1.34,0,0,1,0,.33.13.13,0,0,0,0,.08Z"/><path class="cls-1" d="M11.24,3.46C7.38,3.46,5,4.7,3.48,6.19a.17.17,0,0,0,0,.07c0,.07,0,.19.12.13,3.31-1.39,6.93-.52,8.08.79,0,.06,0,.08-.05.08A25.51,25.51,0,0,0,7.3,7.5c-1.16.17-2.2.34-3.07.56a10.94,10.94,0,0,0-3,1.22.56.56,0,0,0-.28.29c-.06.19-.05.19-.09.32a3.94,3.94,0,0,0-.12.47c0,.15.13.1.21,0a4.79,4.79,0,0,1,1.35-.92,14.52,14.52,0,0,1,3.16-1A33.11,33.11,0,0,1,11.1,8a29.74,29.74,0,0,1,5.8.54,16.27,16.27,0,0,1,3.86,1.2,3.64,3.64,0,0,1,.89.6c.21.22.23,0,.22,0a3.32,3.32,0,0,0-.39-.94A11.18,11.18,0,0,0,11.24,3.46"/><path class="cls-1" d="M0,29.3C0,30.2,3.74,32,11.46,32,19,32,22.91,30.2,22.91,29.3l0-1.37s0-.1,0-.06c0-.25-.4-.3-1.62-.32l0-.76c0,.08-.26.24-.42.33-1,.57-4.75,1.42-9.47,1.42-5.46,0-9.28-1.13-9.88-1.75V28c1.79,1.28,7.33,2.43,12.92,1.84a.86.86,0,0,1,.39,0s.2.15-.11.26C11.39,31.15,3.39,30.91,0,28.34l0,1"/><path class="cls-1" d="M16,11.52h0Z"/><path class="cls-1" d="M15.9,11.81h0v-.24h0v.23Z"/><polygon class="cls-1" points="15.9 11.82 15.9 11.82 15.9 11.58 15.9 11.58 15.9 11.82 15.9 11.82"/><path class="cls-1" d="M13.85,11.43h0Z"/><path class="cls-1" d="M16,11H13.92c-.1,0-.14,0-.15.15v.24a.14.14,0,0,0,.16.16h.66c.06,0,.07,0,.07,0s-.09.12-.13.15l-.32.21a.21.21,0,0,0-.09.2V27.24c0,.26.45.29.91.28s.85,0,.89-.28c0,0,0-14.39,0-15.63,0-.06,0-.07,0-.08H16q.15,0,.15-.15v-.26A.13.13,0,0,0,16,11Z"/><path class="cls-1" d="M12.57,21.49l0-.1h.14v-.1H9.83v.1H10l0,.09.17.37.07,0a.39.39,0,0,0,.14,0h.73a.22.22,0,0,1,.17,0s0,.12-.06.19-.67.45-.87.57c0,0-.09.06-.11.12a.3.3,0,0,0,0,.1v2.84l-.25.1s-.07.57,0,.63a21.86,21.86,0,0,0,2.56,0c.08-.05,0-.64,0-.64l-.25-.09V22l.24-.49Z"/><path class="cls-1" d="M20.13,11.79H18c-.11,0-.15.05-.16.16v.23a.14.14,0,0,0,.16.16h.66a.08.08,0,0,1,.08,0c0,.06-.1.12-.14.14l-.32.22c-.05,0-.09.08-.09.2V26.57c0,.27.45.29.91.29s.85,0,.9-.28c0,0,0-12.91,0-14.15,0-.06,0-.07,0-.08h.08a.13.13,0,0,0,.15-.15v-.25a.14.14,0,0,0-.14-.15Z"/><path class="cls-1" d="M8.59,11H6.48a.13.13,0,0,0-.15.15v.24a.14.14,0,0,0,.16.16h.65a.09.09,0,0,1,.08,0c0,.07-.09.12-.13.15l-.33.21a.24.24,0,0,0-.08.2l0,15.13c0,.26.46.29.92.28s.84,0,.89-.27c0,0,0-14.4,0-15.64a.08.08,0,0,1,0-.08h.08a.15.15,0,0,0,.15-.15v-.25A.15.15,0,0,0,8.59,11Z"/><path class="cls-1" d="M4.48,11.83H2.37c-.1,0-.15.05-.15.16v.23a.14.14,0,0,0,.16.16H3s.07,0,.07,0-.09.12-.13.14l-.32.21a.22.22,0,0,0-.09.21V26.61c0,.27.45.29.91.29s.84,0,.89-.28c0,0,0-12.91,0-14.15,0-.06,0-.07,0-.08h.08a.13.13,0,0,0,.15-.15V12a.15.15,0,0,0-.15-.15Z"/><path class="cls-1" d="M115,11.75a10,10,0,0,0-9.74-6.59c-7.14,0-11.59,5.17-11.59,12.35,0,7.74,5.56,13.43,12.06,13.43,3.38,0,7.52-1.16,10.43-6.33H117a29,29,0,0,1-2.74,6.24c-2.73-.38-4.61,1.16-9.65,1.16-8.69,0-14.92-5.73-14.92-13.64C89.69,10.08,96.1,4.1,105,4.1c5.39,0,7.69,1.71,9,1.71.47,0,.68-.13.77-.26h.64l.39,6.2Z"/><path class="cls-1" d="M79.52,4.74v.81c3.41.08,4.18.56,4.18,3.16v17l-20.13-21H47.5v.81c3.55.17,4.19.9,4.19,5v10c0,7.26-4.91,9.27-9.74,9.27-6.37,0-9.74-3.46-9.74-9.23V8.67c0-2.48,1-3.12,3.37-3.12H36V4.74H25v.81c2.91,0,3.68.47,3.68,3.2V21.24C28.66,27.35,32.85,32,41,32c9.28,0,12.65-5.69,12.65-11V9.48c0-3.17,1.52-3.92,3.5-3.92a5.77,5.77,0,0,1,3.3,1v21c0,2-.86,2.87-3.51,2.87h-.17v.81H66.7v-.81c-3.63,0-4.32-.64-4.32-3.72V8.45L84.52,31.62h1.11V7.77c0-1.66.68-2.22,3.89-2.22V4.74Z"/></g></g></svg>