<svg width="400" height="155" viewBox="0 0 400 155" fill="none" xmlns="http://www.w3.org/2000/svg">
<g clip-path="url(#clip0_2001_2)">
<rect width="400" height="155" fill="white"/>
<mask id="mask0_2001_2" style="mask-type:luminance" maskUnits="userSpaceOnUse" x="90" y="94" width="310" height="59">
<path d="M400 94.2157H90.9091V152.314H400V94.2157Z" fill="white"/>
</mask>
<g mask="url(#mask0_2001_2)">
<mask id="mask1_2001_2" style="mask-type:luminance" maskUnits="userSpaceOnUse" x="90" y="94" width="310" height="59">
<path d="M400 94.2157H90.9091V152.314H400V94.2157Z" fill="white"/>
</mask>
<g mask="url(#mask1_2001_2)">
<path d="M156.322 99.0814C151.323 96.8083 145.979 95.1563 140.391 94.2157C139.705 95.4216 138.903 97.0435 138.35 98.3337C132.41 97.4655 126.525 97.4655 120.694 98.3337C120.141 97.0435 119.321 95.4216 118.629 94.2157C113.035 95.1563 107.684 96.8144 102.686 99.0934C92.6036 113.901 89.8705 128.341 91.237 142.576C97.9241 147.43 104.405 150.378 110.776 152.308C112.349 150.203 113.752 147.967 114.961 145.609C112.659 144.759 110.454 143.71 108.371 142.492C108.923 142.094 109.464 141.678 109.986 141.25C122.692 147.026 136.498 147.026 149.052 141.25C149.58 141.678 150.121 142.094 150.667 142.492C148.578 143.716 146.367 144.765 144.065 145.615C145.274 147.967 146.671 150.209 148.25 152.314C154.627 150.384 161.114 147.436 167.801 142.576C169.404 126.074 165.062 111.767 156.322 99.0814ZM116.692 133.822C112.877 133.822 109.749 130.361 109.749 126.147C109.749 121.932 112.811 118.465 116.692 118.465C120.573 118.465 123.7 121.926 123.634 126.147C123.64 130.361 120.573 133.822 116.692 133.822ZM142.347 133.822C138.532 133.822 135.404 130.361 135.404 126.147C135.404 121.932 138.465 118.465 142.347 118.465C146.228 118.465 149.355 121.926 149.289 126.147C149.289 130.361 146.228 133.822 142.347 133.822Z" fill="#5865F2"/>
<path d="M194.676 109.037H211.257C215.254 109.037 218.63 109.658 221.401 110.894C224.163 112.13 226.235 113.854 227.608 116.061C228.98 118.268 229.672 120.794 229.672 123.64C229.672 126.425 228.955 128.952 227.522 131.212C226.089 133.479 223.908 135.27 220.975 136.591C218.042 137.911 214.409 138.574 210.067 138.574H194.676V109.037ZM209.897 131.068C212.587 131.068 214.659 130.399 216.104 129.066C217.55 127.728 218.273 125.907 218.273 123.598C218.273 121.457 217.628 119.751 216.341 118.473C215.054 117.194 213.104 116.549 210.498 116.549H205.311V131.068H209.897Z" fill="#5865F2"/>
<path d="M254.496 138.538C252.2 137.947 250.128 137.091 248.288 135.964V128.958C249.679 130.025 251.543 130.905 253.882 131.599C256.22 132.286 258.48 132.63 260.666 132.63C261.686 132.63 262.458 132.497 262.98 132.232C263.503 131.966 263.764 131.647 263.764 131.279C263.764 130.857 263.624 130.507 263.339 130.224C263.053 129.941 262.5 129.705 261.681 129.506L256.579 128.367C253.657 127.692 251.586 126.757 250.354 125.557C249.12 124.363 248.507 122.796 248.507 120.854C248.507 119.22 249.041 117.804 250.123 116.592C251.197 115.38 252.728 114.445 254.714 113.788C256.701 113.125 259.02 112.793 261.686 112.793C264.067 112.793 266.247 113.046 268.234 113.553C270.22 114.059 271.86 114.705 273.166 115.494V122.121C271.829 121.331 270.298 120.71 268.55 120.239C266.806 119.775 265.015 119.546 263.168 119.546C260.502 119.546 259.172 119.998 259.172 120.897C259.172 121.319 259.379 121.632 259.792 121.843C260.204 122.054 260.963 122.271 262.063 122.5L266.314 123.26C269.091 123.736 271.161 124.574 272.521 125.768C273.883 126.962 274.562 128.729 274.562 131.068C274.562 133.63 273.439 135.662 271.186 137.17C268.932 138.677 265.737 139.431 261.595 139.431C259.16 139.425 256.792 139.129 254.496 138.538Z" fill="#5865F2"/>
<path d="M284.597 137.652C282.162 136.47 280.322 134.866 279.095 132.84C277.868 130.815 277.249 128.535 277.249 126.003C277.249 123.471 277.886 121.204 279.162 119.208C280.437 117.213 282.308 115.645 284.774 114.505C287.239 113.366 290.185 112.799 293.617 112.799C297.868 112.799 301.397 113.685 304.203 115.458V123.182C303.213 122.506 302.059 121.958 300.741 121.536C299.423 121.113 298.014 120.902 296.508 120.902C293.872 120.902 291.813 121.379 290.325 122.337C288.837 123.296 288.09 124.544 288.09 126.094C288.09 127.613 288.812 128.855 290.258 129.832C291.704 130.802 293.799 131.291 296.55 131.291C297.965 131.291 299.363 131.086 300.741 130.682C302.114 130.272 303.298 129.772 304.288 129.181V136.651C301.173 138.508 297.559 139.436 293.446 139.436C289.985 139.424 287.033 138.833 284.597 137.652Z" fill="#5865F2"/>
<path d="M314.807 137.652C312.354 136.47 310.483 134.854 309.195 132.798C307.908 130.742 307.258 128.451 307.258 125.919C307.258 123.387 307.902 121.126 309.195 119.142C310.489 117.158 312.347 115.603 314.79 114.475C317.224 113.348 320.134 112.787 323.504 112.787C326.876 112.787 329.785 113.348 332.22 114.475C334.656 115.603 336.515 117.146 337.79 119.118C339.066 121.089 339.703 123.35 339.703 125.913C339.703 128.445 339.066 130.736 337.79 132.792C336.515 134.848 334.65 136.464 332.196 137.646C329.742 138.828 326.845 139.418 323.499 139.418C320.152 139.418 317.255 138.834 314.807 137.652ZM327.726 130.163C328.759 129.139 329.281 127.782 329.281 126.094C329.281 124.406 328.764 123.061 327.726 122.066C326.694 121.065 325.284 120.565 323.499 120.565C321.683 120.565 320.261 121.065 319.223 122.066C318.191 123.067 317.674 124.406 317.674 126.094C317.674 127.782 318.191 129.139 319.223 130.163C320.256 131.188 321.683 131.707 323.499 131.707C325.284 131.701 326.694 131.188 327.726 130.163Z" fill="#5865F2"/>
<path d="M365.248 114.355V123.471C364.168 122.765 362.77 122.416 361.04 122.416C358.773 122.416 357.025 123.097 355.81 124.46C354.589 125.822 353.981 127.945 353.981 130.815V138.58H343.565V113.89H353.77V121.741C354.334 118.871 355.252 116.754 356.514 115.386C357.772 114.023 359.399 113.342 361.379 113.342C362.879 113.342 364.168 113.679 365.248 114.355Z" fill="#5865F2"/>
<path d="M399.856 108.193V138.58H389.439V133.052C388.559 135.132 387.223 136.717 385.425 137.803C383.627 138.882 381.404 139.425 378.768 139.425C376.412 139.425 374.359 138.858 372.603 137.718C370.848 136.579 369.494 135.017 368.541 133.034C367.593 131.05 367.113 128.807 367.113 126.299C367.083 123.712 367.587 121.391 368.625 119.335C369.658 117.279 371.121 115.675 373.004 114.524C374.888 113.372 377.037 112.793 379.449 112.793C384.411 112.793 387.739 114.934 389.439 119.208V108.193H399.856ZM387.885 129.995C388.948 128.97 389.476 127.637 389.476 126.009C389.476 124.436 388.96 123.152 387.928 122.169C386.895 121.186 385.479 120.692 383.7 120.692C381.945 120.692 380.542 121.192 379.491 122.193C378.44 123.194 377.918 124.49 377.918 126.094C377.918 127.698 378.44 129.006 379.491 130.019C380.542 131.032 381.927 131.538 383.658 131.538C385.413 131.532 386.821 131.02 387.885 129.995Z" fill="#5865F2"/>
<path d="M238.449 116.519C241.317 116.519 243.642 114.446 243.642 111.888C243.642 109.331 241.317 107.258 238.449 107.258C235.581 107.258 233.256 109.331 233.256 111.888C233.256 114.446 235.581 116.519 238.449 116.519Z" fill="#5865F2"/>
<path d="M233.252 119.709C236.434 121.071 240.382 121.132 243.637 119.709V138.713H233.252V119.709Z" fill="#5865F2"/>
</g>
</g>
<path d="M343.403 6.07843C362.946 6.07843 378.788 17.2397 378.788 31.0063C378.788 44.7729 362.946 55.9341 343.403 55.9341C337.276 55.9341 331.515 54.8364 326.49 52.9065C316.572 56.6857 303.03 63.8235 303.03 63.8235C303.03 63.8235 311.86 58.764 315.5 52.6211C316.43 51.0509 316.975 49.4047 317.287 47.8238C311.532 43.3906 308.018 37.4874 308.018 31.0063C308.018 17.2397 323.861 6.07843 343.403 6.07843ZM343.403 8.06464C324.974 8.06464 309.98 18.3563 309.98 31.0072C309.98 36.6133 312.997 42.0244 318.475 46.2438L319.451 46.9962L319.211 48.213C318.818 50.2081 318.135 52.0351 317.183 53.6428C316.882 54.1501 316.549 54.6512 316.193 55.1406C319.398 53.6679 322.753 52.2095 325.798 51.0491L326.492 50.7843L327.186 51.0509C332.122 52.9468 337.73 53.9488 343.403 53.9488C361.833 53.9488 376.826 43.6572 376.826 31.0063C376.826 18.3554 361.833 8.06464 343.403 8.06464Z" fill="black"/>
<path d="M35.3847 94.2157C15.8422 94.2157 -9.31908e-06 105.377 -9.31908e-06 119.144C-9.31908e-06 132.91 15.8422 144.071 35.3847 144.071C41.5114 144.071 47.273 142.974 52.2983 141.044C62.2163 144.823 75.7576 151.961 75.7576 151.961C75.7576 151.961 66.9277 146.901 63.2876 140.758C62.3577 139.188 61.8132 137.542 61.5011 135.961C67.2557 131.528 70.7694 125.625 70.7694 119.144C70.7694 105.377 54.9272 94.2157 35.3847 94.2157ZM35.3847 96.2019C53.8143 96.2019 68.8079 106.494 68.8079 119.144C68.8079 124.751 65.791 130.162 60.3131 134.381L59.3372 135.133L59.5768 136.35C59.9701 138.345 60.6525 140.172 61.6046 141.78C61.906 142.287 62.2384 142.788 62.5946 143.278C59.3903 141.805 56.0348 140.347 52.9895 139.186L52.2956 138.922L51.6017 139.188C46.6657 141.084 41.0579 142.086 35.3847 142.086C16.9551 142.086 1.96149 131.794 1.96149 119.144C1.96149 106.493 16.9551 96.2019 35.3847 96.2019Z" fill="black"/>
<path d="M66.6667 0C46.5825 0 30.303 16.3273 30.303 36.4706C30.303 46.5405 34.3737 55.6582 40.9529 62.26L34.0269 69.2063C32.6532 70.5841 33.6263 72.9412 35.569 72.9412H66.6667C86.7508 72.9412 103.03 56.6138 103.03 36.4706C103.03 16.3273 86.7508 0 66.6667 0Z" fill="#FF4500"/>
<g clip-path="url(#clip1_2001_2)">
<path d="M87.2808 44.6393C91.9706 44.6393 95.7724 40.8263 95.7724 36.1228C95.7724 31.4192 91.9706 27.6062 87.2808 27.6062C82.5911 27.6062 78.7892 31.4192 78.7892 36.1228C78.7892 40.8263 82.5911 44.6393 87.2808 44.6393Z" fill="url(#paint0_radial_2001_2)"/>
<path d="M46.0539 44.6393C50.7437 44.6393 54.5455 40.8263 54.5455 36.1228C54.5455 31.4192 50.7437 27.6062 46.0539 27.6062C41.3641 27.6062 37.5623 31.4192 37.5623 36.1228C37.5623 40.8263 41.3641 44.6393 46.0539 44.6393Z" fill="url(#paint1_radial_2001_2)"/>
<path d="M66.6882 61.6751C80.0769 61.6751 90.9306 53.5109 90.9306 43.4399C90.9306 33.3688 80.0769 25.2046 66.6882 25.2046C53.2995 25.2046 42.4458 33.3688 42.4458 43.4399C42.4458 53.5109 53.2995 61.6751 66.6882 61.6751Z" fill="url(#paint2_radial_2001_2)"/>
<path d="M59.5206 41.6663C59.3792 44.7555 57.3347 45.8766 54.9536 45.8766C52.5724 45.8766 50.7583 44.2949 50.9011 41.2057C51.0425 38.1165 53.0869 36.0714 55.4681 36.0714C57.8492 36.0714 59.6634 38.5758 59.5206 41.6663Z" fill="#842123"/>
<path d="M82.4755 41.2057C82.6169 44.2949 80.8027 45.8766 78.4229 45.8766C76.0431 45.8766 73.9987 44.7555 73.8559 41.6663C73.7145 38.5771 75.5287 36.0714 77.9085 36.0714C80.2883 36.0714 82.3327 38.1151 82.4755 41.2057Z" fill="#842123"/>
<path d="M59.5219 41.9365C59.3886 44.8284 57.4761 45.8766 55.2485 45.8766C53.0209 45.8766 51.3226 44.3057 51.4559 41.4151C51.5892 38.5231 53.5017 36.632 55.7293 36.632C57.9569 36.632 59.6552 39.0445 59.5219 41.9365Z" fill="url(#paint3_radial_2001_2)"/>
<path d="M73.8546 41.9365C73.9879 44.8284 75.9004 45.8766 78.128 45.8766C80.3556 45.8766 82.0539 44.3057 81.9206 41.4151C81.7872 38.5231 79.8748 36.632 77.6472 36.632C75.4196 36.632 73.7212 39.0445 73.8546 41.9365Z" fill="url(#paint4_radial_2001_2)"/>
<path d="M57.1165 40.3277C57.6372 40.3277 58.0593 39.8657 58.0593 39.2957C58.0593 38.7258 57.6372 38.2637 57.1165 38.2637C56.5959 38.2637 56.1738 38.7258 56.1738 39.2957C56.1738 39.8657 56.5959 40.3277 57.1165 40.3277Z" fill="#FFC49C"/>
<path d="M79.534 40.3277C80.0547 40.3277 80.4768 39.8657 80.4768 39.2957C80.4768 38.7258 80.0547 38.2637 79.534 38.2637C79.0133 38.2637 78.5912 38.7258 78.5912 39.2957C78.5912 39.8657 79.0133 40.3277 79.534 40.3277Z" fill="#FFC49C"/>
<path d="M66.6882 47.9379C63.6822 47.9379 60.8014 48.0838 58.1374 48.3485C57.6822 48.3945 57.3939 48.8591 57.5704 49.2752C59.0626 52.7831 62.5832 55.2469 66.6882 55.2469C70.7933 55.2469 74.3138 52.7831 75.8061 49.2752C75.9825 48.8591 75.6943 48.3945 75.2391 48.3485C72.5751 48.0824 69.6943 47.9379 66.6882 47.9379Z" fill="#BBCFDA"/>
<path d="M66.6883 48.6079C63.6916 48.6079 60.8203 48.7551 58.1644 49.0253C57.7105 49.0712 57.4223 49.544 57.5987 49.9667C59.0869 53.5301 62.5953 56.033 66.6883 56.033C70.7812 56.033 74.2896 53.5301 75.7778 49.9667C75.9543 49.5453 75.666 49.0725 75.2122 49.0253C72.5563 48.7551 69.6849 48.6079 66.6883 48.6079Z" fill="white"/>
<path d="M66.6882 48.2594C63.7387 48.2594 60.9118 48.4053 58.2977 48.67C57.8505 48.7159 57.5677 49.1806 57.7414 49.5966C59.2054 53.1046 62.66 55.5683 66.6896 55.5683C70.7192 55.5683 74.1724 53.1046 75.6377 49.5966C75.8115 49.1806 75.5286 48.7159 75.0815 48.67C72.4674 48.4039 69.6404 48.2594 66.6896 48.2594H66.6882Z" fill="url(#paint5_radial_2001_2)"/>
<path d="M79.965 22.7246C83.2884 22.7246 85.9825 20.0225 85.9825 16.6894C85.9825 13.3562 83.2884 10.6541 79.965 10.6541C76.6416 10.6541 73.9475 13.3562 73.9475 16.6894C73.9475 20.0225 76.6416 22.7246 79.965 22.7246Z" fill="url(#paint6_radial_2001_2)"/>
<path d="M66.602 25.9732C65.8815 25.9732 65.297 25.6706 65.297 25.2046C65.297 19.7975 69.6822 15.3994 75.0734 15.3994C75.794 15.3994 76.3785 15.9856 76.3785 16.7083C76.3785 17.4309 75.794 18.0172 75.0734 18.0172C71.1219 18.0172 67.9058 21.2414 67.9058 25.2059C67.9058 25.6719 67.3212 25.9745 66.6007 25.9745L66.602 25.9732Z" fill="url(#paint7_radial_2001_2)"/>
<path d="M57.9381 43.3669C57.9381 44.4853 56.7516 44.9878 55.2863 44.9878C53.8209 44.9878 52.6344 44.4853 52.6344 43.3669C52.6344 42.2485 53.8209 41.3408 55.2863 41.3408C56.7516 41.3408 57.9381 42.2485 57.9381 43.3669Z" fill="#FF6101"/>
<path d="M80.7408 43.3669C80.7408 44.4853 79.5542 44.9878 78.0889 44.9878C76.6236 44.9878 75.4371 44.4853 75.4371 43.3669C75.4371 42.2485 76.6236 41.3408 78.0889 41.3408C79.5542 41.3408 80.7408 42.2485 80.7408 43.3669Z" fill="#FF6101"/>
</g>
<path d="M141.96 26.3129L137.916 35.9573C137.407 35.7007 136.195 35.4137 135.05 35.4137C133.906 35.4137 132.758 35.7007 131.643 36.2444C129.444 37.3621 127.821 39.5976 127.821 42.8226V60.4838H117.758V26.117H127.535V30.9393H127.727C130.02 27.873 133.522 25.6071 138.077 25.6071C139.734 25.6071 141.327 25.9279 141.963 26.3095L141.96 26.3129Z" fill="#FF4500"/>
<path d="M140.013 43.4C140.013 33.4685 146.798 25.6105 156.956 25.6105C166.158 25.6105 172.751 32.3508 172.751 41.8365C172.751 43.4979 172.593 45.0615 172.242 46.5642H149.185C150.236 50.1741 153.357 52.9837 158.037 52.9837C160.616 52.9837 164.279 52.0584 166.252 50.5253L169.374 58.0625C166.475 60.0414 162.05 61.0004 158.165 61.0004C147.306 61.0004 140.013 53.9731 140.013 43.4034V43.4ZM148.993 40.2392H163.481C163.481 35.8324 160.488 33.4989 156.825 33.4989C152.683 33.4989 149.882 36.1802 148.99 40.2392H148.993Z" fill="#FF4500"/>
<path d="M259.101 10.6812C262.478 10.6812 265.246 13.4604 265.246 16.844C265.246 20.2277 262.475 23.0069 259.101 23.0069C255.727 23.0069 252.956 20.2277 252.956 16.844C252.956 13.4604 255.727 10.6812 259.101 10.6812ZM264.131 60.4872H254.067V26.1204H264.131V60.4872Z" fill="#FF4500"/>
<path d="M200.673 11.3025L200.643 29.3791H200.451C197.68 26.7282 194.687 25.6409 190.771 25.6409C181.121 25.6409 174.72 33.4348 174.72 43.3021C174.72 53.1694 180.707 60.9971 190.451 60.9971C194.529 60.9971 198.38 59.5923 200.865 56.3977H201.151V60.4872H210.737V11.3025H200.673ZM201.151 52.2948H200.818L198.572 49.9546C197.111 51.4168 195.111 52.2948 192.774 52.2948C187.845 52.2948 184.397 48.3843 184.397 43.3122C184.397 38.2401 187.845 34.3296 192.774 34.3296C197.704 34.3296 201.151 38.2401 201.151 43.3122V52.2948Z" fill="#FF4500"/>
<path d="M239.108 11.3025L239.077 29.3791H238.885C236.114 26.7282 233.121 25.6409 229.205 25.6409C219.556 25.6409 213.155 33.4348 213.155 43.3021C213.155 53.1694 219.141 60.9971 228.885 60.9971C232.963 60.9971 236.815 59.5923 239.3 56.3977H239.586V60.4872H249.172V11.3025H239.108ZM239.539 52.2948H239.205L236.96 49.9546C235.498 51.4168 233.498 52.2948 231.162 52.2948C226.232 52.2948 222.784 48.3843 222.784 43.3122C222.784 38.2401 226.232 34.3296 231.162 34.3296C236.091 34.3296 239.539 38.2401 239.539 43.3122V52.2948Z" fill="#FF4500"/>
<path d="M283.65 26.1204H291.007V34.7112H283.65V60.4872H273.586V34.7112H266.263V26.1204H273.586V16.7799H283.65V26.1204Z" fill="#FF4500"/>
</g>
<defs>
<radialGradient id="paint0_radial_2001_2" cx="0" cy="0" r="1" gradientUnits="userSpaceOnUse" gradientTransform="translate(87.46 31.0524) scale(17.165 14.9775)">
<stop stop-color="#FEFFFF"/>
<stop offset="0.4" stop-color="#FEFFFF"/>
<stop offset="0.51" stop-color="#F9FCFC"/>
<stop offset="0.62" stop-color="#EDF3F5"/>
<stop offset="0.7" stop-color="#DEE9EC"/>
<stop offset="0.72" stop-color="#D8E4E8"/>
<stop offset="0.76" stop-color="#CCD8DF"/>
<stop offset="0.8" stop-color="#C8D5DD"/>
<stop offset="0.83" stop-color="#CCD6DE"/>
<stop offset="0.85" stop-color="#D8DBE2"/>
<stop offset="0.88" stop-color="#EDE3E9"/>
<stop offset="0.9" stop-color="#FFEBEF"/>
</radialGradient>
<radialGradient id="paint1_radial_2001_2" cx="0" cy="0" r="1" gradientUnits="userSpaceOnUse" gradientTransform="translate(46.233 13.2969) scale(17.165 14.9775)">
<stop stop-color="#FEFFFF"/>
<stop offset="0.4" stop-color="#FEFFFF"/>
<stop offset="0.51" stop-color="#F9FCFC"/>
<stop offset="0.62" stop-color="#EDF3F5"/>
<stop offset="0.7" stop-color="#DEE9EC"/>
<stop offset="0.72" stop-color="#D8E4E8"/>
<stop offset="0.76" stop-color="#CCD8DF"/>
<stop offset="0.8" stop-color="#C8D5DD"/>
<stop offset="0.83" stop-color="#CCD6DE"/>
<stop offset="0.85" stop-color="#D8DBE2"/>
<stop offset="0.88" stop-color="#EDE3E9"/>
<stop offset="0.9" stop-color="#FFEBEF"/>
</radialGradient>
<radialGradient id="paint2_radial_2001_2" cx="0" cy="0" r="1" gradientUnits="userSpaceOnUse" gradientTransform="translate(67.2108 28.8767) scale(51.7764 36.3501)">
<stop stop-color="#FEFFFF"/>
<stop offset="0.4" stop-color="#FEFFFF"/>
<stop offset="0.51" stop-color="#F9FCFC"/>
<stop offset="0.62" stop-color="#EDF3F5"/>
<stop offset="0.7" stop-color="#DEE9EC"/>
<stop offset="0.72" stop-color="#D8E4E8"/>
<stop offset="0.76" stop-color="#CCD8DF"/>
<stop offset="0.8" stop-color="#C8D5DD"/>
<stop offset="0.83" stop-color="#CCD6DE"/>
<stop offset="0.85" stop-color="#D8DBE2"/>
<stop offset="0.88" stop-color="#EDE3E9"/>
<stop offset="0.9" stop-color="#FFEBEF"/>
</radialGradient>
<radialGradient id="paint3_radial_2001_2" cx="0" cy="0" r="1" gradientUnits="userSpaceOnUse" gradientTransform="translate(55.7037 43.2157) scale(4.32593 6.33443)">
<stop stop-color="#FF6600"/>
<stop offset="0.5" stop-color="#FF4500"/>
<stop offset="0.7" stop-color="#FC4301"/>
<stop offset="0.82" stop-color="#F43F07"/>
<stop offset="0.92" stop-color="#E53812"/>
<stop offset="1" stop-color="#D4301F"/>
</radialGradient>
<radialGradient id="paint4_radial_2001_2" cx="0" cy="0" r="1" gradientUnits="userSpaceOnUse" gradientTransform="translate(77.6728 43.2157) rotate(180) scale(4.32592 6.33443)">
<stop stop-color="#FF6600"/>
<stop offset="0.5" stop-color="#FF4500"/>
<stop offset="0.7" stop-color="#FC4301"/>
<stop offset="0.82" stop-color="#F43F07"/>
<stop offset="0.92" stop-color="#E53812"/>
<stop offset="1" stop-color="#D4301F"/>
</radialGradient>
<radialGradient id="paint5_radial_2001_2" cx="0" cy="0" r="1" gradientUnits="userSpaceOnUse" gradientTransform="translate(66.6438 56.5548) scale(15.2539 10.0972)">
<stop stop-color="#172E35"/>
<stop offset="0.29" stop-color="#0E1C21"/>
<stop offset="0.73" stop-color="#030708"/>
<stop offset="1"/>
</radialGradient>
<radialGradient id="paint6_radial_2001_2" cx="0" cy="0" r="1" gradientUnits="userSpaceOnUse" gradientTransform="translate(80.0957 11.1216) scale(13.3899 13.1607)">
<stop stop-color="#FEFFFF"/>
<stop offset="0.4" stop-color="#FEFFFF"/>
<stop offset="0.51" stop-color="#F9FCFC"/>
<stop offset="0.62" stop-color="#EDF3F5"/>
<stop offset="0.7" stop-color="#DEE9EC"/>
<stop offset="0.72" stop-color="#D8E4E8"/>
<stop offset="0.76" stop-color="#CCD8DF"/>
<stop offset="0.8" stop-color="#C8D5DD"/>
<stop offset="0.83" stop-color="#CCD6DE"/>
<stop offset="0.85" stop-color="#D8DBE2"/>
<stop offset="0.88" stop-color="#EDE3E9"/>
<stop offset="0.9" stop-color="#FFEBEF"/>
</radialGradient>
<radialGradient id="paint7_radial_2001_2" cx="0" cy="0" r="1" gradientUnits="userSpaceOnUse" gradientTransform="translate(74.5159 24.6778) scale(10.9751 11.0074)">
<stop offset="0.48" stop-color="#7A9299"/>
<stop offset="0.67" stop-color="#172E35"/>
<stop offset="0.75"/>
<stop offset="0.82" stop-color="#172E35"/>
</radialGradient>
<clipPath id="clip0_2001_2">
<rect width="400" height="155" fill="white"/>
</clipPath>
<clipPath id="clip1_2001_2">
<rect width="58.2101" height="51.021" fill="white" transform="translate(37.5623 10.6541)"/>
</clipPath>
</defs>
</svg>
