<svg xmlns="http://www.w3.org/2000/svg" viewBox="0 0 283.39 368.71"><defs><style>.cls-1{fill:#332c2b;}</style></defs><g id="Layer_2" data-name="Layer 2"><g id="Layer_1-2" data-name="Layer 1"><polygon class="cls-1" points="187.55 16.48 187.55 16.25 187.52 16.06 187.5 15.86 187.45 15.69 187.34 15.37 187.18 15.07 187.02 14.82 186.81 14.56 186.6 14.33 186.37 14.1 186.16 14.22 185.98 14.36 185.84 14.49 185.7 14.66 185.59 14.79 185.5 14.96 185.4 15.12 185.36 15.3 185.26 15.62 185.22 15.92 185.2 16.22 185.2 16.48 185.31 16.27 185.45 16.11 185.59 15.97 185.72 15.88 185.89 15.83 186.05 15.79 186.21 15.79 186.37 15.81 186.53 15.83 186.72 15.9 186.88 15.97 187.02 16.06 187.31 16.25 187.55 16.48 187.55 16.48"/><polygon class="cls-1" points="125.22 35.88 127 34.11 127.09 34.27 127.18 34.43 127.25 34.59 127.3 34.75 127.34 34.89 127.36 35.05 127.39 35.19 127.39 35.33 127.36 35.6 127.3 35.88 127.2 36.13 127.07 36.39 126.77 36.87 126.42 37.33 126.26 37.56 126.1 37.79 125.94 38 125.82 38.23 128.17 38.23 128.08 38.12 127.99 38 127.92 37.88 127.87 37.75 127.85 37.63 127.83 37.52 127.83 37.38 127.83 37.24 127.87 36.99 127.94 36.71 128.01 36.43 128.1 36.16 128.17 35.88 128.24 35.63 128.26 35.35 128.26 35.07 128.24 34.96 128.19 34.82 128.15 34.7 128.06 34.57 127.99 34.45 127.87 34.34 127.73 34.22 127.57 34.11 129.35 32.35 129.95 33.53 130.15 33.32 130.36 33.16 130.57 33.05 130.75 32.93 130.89 32.81 131 32.7 131.05 32.63 131.07 32.54 131.1 32.45 131.12 32.35 132.3 33.53 133.47 31.75 133.61 31.96 133.72 32.17 133.84 32.35 133.91 32.54 133.93 32.7 133.98 32.86 133.98 33.02 133.96 33.16 133.93 33.28 133.88 33.41 133.84 33.53 133.77 33.67 133.63 33.9 133.47 34.11 133.31 34.34 133.15 34.57 133.08 34.68 133.03 34.8 132.99 34.94 132.96 35.07 132.96 35.21 132.96 35.35 132.99 35.51 133.03 35.67 133.1 35.86 133.19 36.04 133.31 36.25 133.47 36.46 133.22 36.69 132.92 36.89 132.76 36.99 132.59 37.06 132.41 37.13 132.2 37.19 132.02 37.24 131.81 37.29 131.6 37.29 131.4 37.29 131.19 37.26 130.96 37.22 130.75 37.15 130.52 37.06 131.12 37.63 131.33 37.66 131.53 37.72 131.74 37.79 131.93 37.86 132.06 37.88 132.18 37.88 132.23 37.86 132.27 37.79 132.27 37.72 132.3 37.63 132.3 39.41 134.05 38.81 134.21 38.35 134.37 37.98 134.51 37.68 134.65 37.42 134.76 37.26 134.9 37.15 135.01 37.08 135.11 37.06 135.22 37.08 135.34 37.15 135.43 37.24 135.54 37.35 135.75 37.66 135.96 38 136.19 38.37 136.44 38.69 136.58 38.81 136.72 38.92 136.86 39.01 137.02 39.06 137.2 39.06 137.39 39.04 137.57 38.95 137.78 38.83 138.01 38.62 138.24 38.37 138.49 38.05 138.75 37.63 138.91 37.79 139.09 37.93 139.25 38.02 139.41 38.12 139.58 38.19 139.74 38.25 139.92 38.3 140.08 38.32 140.41 38.35 140.73 38.35 141.07 38.32 141.4 38.3 141.74 38.28 142.06 38.28 142.39 38.3 142.73 38.39 142.89 38.44 143.06 38.51 143.22 38.6 143.38 38.72 143.56 38.85 143.72 39.01 143.88 39.2 144.05 39.41 145.22 37.06 145.47 37.29 145.77 37.56 146.1 37.84 146.47 38.07 146.67 38.19 146.88 38.28 147.09 38.32 147.29 38.37 147.5 38.39 147.73 38.37 147.94 38.32 148.17 38.23 148.33 38.02 148.52 37.84 148.7 37.7 148.91 37.56 149.12 37.47 149.32 37.4 149.55 37.33 149.76 37.29 150.01 37.26 150.24 37.24 150.5 37.24 150.73 37.26 151.24 37.29 151.76 37.33 152.29 37.4 152.82 37.42 153.08 37.45 153.35 37.45 153.61 37.42 153.86 37.4 154.12 37.35 154.37 37.29 154.62 37.22 154.88 37.13 155.1 36.99 155.36 36.85 155.59 36.66 155.8 36.46 156.44 36.27 157.02 36.09 157.55 35.93 158.01 35.72 158.22 35.6 158.42 35.47 158.61 35.33 158.79 35.14 158.93 34.94 159.09 34.68 159.21 34.43 159.32 34.11 159.44 33.92 159.55 33.76 159.67 33.67 159.78 33.62 159.88 33.6 159.99 33.6 160.1 33.62 160.22 33.67 160.43 33.81 160.66 33.95 160.77 34.01 160.87 34.06 160.98 34.11 161.1 34.11 161.76 33.58 162.43 33.12 163.08 32.68 163.75 32.28 164.41 31.94 165.1 31.62 165.77 31.29 166.46 31.02 167.85 30.49 169.28 29.98 170.01 29.7 170.75 29.43 171.51 29.13 172.27 28.81 172.73 29.01 173.17 29.15 173.56 29.24 173.93 29.29 174.25 29.29 174.53 29.27 174.8 29.2 175.03 29.11 175.24 28.97 175.43 28.83 175.61 28.64 175.77 28.46 176.05 28.02 176.3 27.56 176.56 27.1 176.81 26.64 176.97 26.43 177.11 26.25 177.29 26.06 177.48 25.93 177.68 25.79 177.91 25.7 178.17 25.63 178.44 25.6 178.77 25.6 179.11 25.65 179.48 25.74 179.92 25.88 179.92 25.6 179.97 25.37 180.03 25.16 180.13 24.98 180.24 24.8 180.38 24.66 180.54 24.52 180.7 24.4 180.89 24.29 181.09 24.2 181.28 24.11 181.49 24.04 181.92 23.87 182.34 23.74 182.73 23.6 183.1 23.44 183.26 23.34 183.4 23.23 183.54 23.11 183.63 22.98 183.72 22.84 183.77 22.65 183.79 22.47 183.79 22.26 183.77 22.03 183.7 21.78 183.58 21.48 183.44 21.18 183.91 20.92 184.41 20.67 184.69 20.53 184.94 20.42 185.22 20.3 185.5 20.21 185.77 20.14 186.05 20.09 186.32 20.07 186.58 20.09 186.83 20.14 187.09 20.26 187.2 20.3 187.34 20.39 187.45 20.49 187.55 20.58 187.55 19.4 187.55 19.24 187.52 19.1 187.5 18.97 187.45 18.85 187.41 18.73 187.34 18.64 187.27 18.55 187.18 18.46 186.99 18.32 186.78 18.2 186.56 18.09 186.3 18.02 185.79 17.86 185.33 17.68 185.1 17.56 184.92 17.42 184.83 17.35 184.74 17.26 184.67 17.17 184.62 17.05 185.2 16.48 185.03 16.41 184.87 16.39 184.71 16.36 184.55 16.34 184.21 16.34 183.88 16.39 183.21 16.52 182.55 16.68 182.22 16.78 181.9 16.82 181.56 16.87 181.23 16.87 180.91 16.85 180.56 16.78 180.4 16.73 180.24 16.66 180.08 16.57 179.92 16.48 179.92 15.99 179.92 15.51 179.94 14.98 179.99 14.47 180.06 14.01 180.15 13.57 180.22 13.39 180.31 13.2 180.4 13.07 180.5 12.93 180.54 12.63 180.56 12.35 180.54 12.1 180.52 11.87 180.45 11.68 180.38 11.5 180.29 11.36 180.17 11.22 180.06 11.13 179.9 11.04 179.76 10.95 179.57 10.9 179.21 10.81 178.81 10.74 178.38 10.69 177.96 10.62 177.52 10.55 177.11 10.46 176.9 10.39 176.72 10.3 176.53 10.21 176.35 10.09 176.19 9.96 176.05 9.79 175.91 9.61 175.79 9.4 175.43 9.49 175.06 9.56 174.74 9.59 174.41 9.59 174.11 9.56 173.81 9.52 173.54 9.43 173.28 9.33 173.03 9.22 172.8 9.08 172.57 8.92 172.34 8.76 171.92 8.37 171.53 7.95 170.77 7.03 170.01 6.11 169.81 5.88 169.6 5.67 169.39 5.49 169.16 5.3 168.93 5.12 168.68 4.96 168.42 4.82 168.15 4.7 167.75 4.38 167.36 4.1 166.93 3.83 166.51 3.57 166.07 3.32 165.61 3.11 165.17 2.9 164.69 2.72 164.23 2.56 163.75 2.4 163.26 2.26 162.78 2.14 161.79 1.89 160.8 1.68 158.84 1.34 156.9 0.99 155.98 0.78 155.1 0.55 154.67 0.44 154.25 0.3 153.84 0.16 153.45 0 153.01 0 152.59 0.02 152.2 0.07 151.79 0.12 151.42 0.18 151.05 0.28 150.71 0.39 150.36 0.51 150.04 0.67 149.74 0.83 149.44 1.01 149.16 1.24 148.88 1.48 148.63 1.75 148.38 2.03 148.17 2.35 148.63 2.14 149.14 1.94 149.39 1.87 149.67 1.77 149.94 1.73 150.22 1.68 150.5 1.68 150.77 1.68 151.03 1.71 151.3 1.77 151.56 1.87 151.81 1.98 152.04 2.14 152.27 2.35 151.83 2.79 151.4 3.16 151.16 3.32 150.96 3.43 150.84 3.48 150.73 3.5 150.61 3.53 150.52 3.53 150.61 4.1 150.64 4.61 150.66 5.05 150.61 5.44 150.54 5.78 150.45 6.06 150.31 6.29 150.15 6.5 149.94 6.66 149.74 6.78 149.48 6.87 149.23 6.94 148.95 6.96 148.65 6.98 148.33 6.98 148.01 6.98 147.34 6.94 146.63 6.89 146.28 6.89 145.91 6.89 145.57 6.89 145.22 6.91 144.88 6.96 144.55 7.05 144.23 7.14 143.93 7.28 143.63 7.47 143.35 7.67 143.1 7.93 142.87 8.23 142.41 8.2 142 8.2 141.63 8.25 141.3 8.34 141.05 8.46 140.82 8.62 140.61 8.8 140.45 9.01 140.31 9.24 140.2 9.49 140.13 9.77 140.06 10.05 139.94 10.67 139.85 11.31 139.76 11.98 139.65 12.65 139.55 12.97 139.44 13.27 139.3 13.57 139.14 13.85 138.95 14.13 138.72 14.38 138.47 14.59 138.15 14.79 137.8 14.96 137.39 15.12 136.93 15.21 136.4 15.3 136.4 15.62 136.37 15.92 136.31 16.25 136.26 16.55 136.17 16.82 136.07 17.1 135.96 17.38 135.84 17.65 135.54 18.18 135.22 18.67 134.88 19.15 134.48 19.63 133.7 20.56 132.94 21.5 132.57 21.98 132.25 22.47 132.09 22.72 131.95 22.98 131.81 23.25 131.7 23.53 131.12 23.53 131.1 23.64 131.03 23.76 130.96 23.9 130.84 24.06 130.61 24.38 130.38 24.7 130.27 24.86 130.2 25.03 130.13 25.19 130.13 25.35 130.13 25.42 130.13 25.49 130.18 25.56 130.22 25.63 130.27 25.7 130.34 25.76 130.43 25.81 130.52 25.88 129.95 25.88 129.78 25.93 129.62 25.99 129.49 26.09 129.35 26.18 129.12 26.36 128.93 26.59 128.77 26.85 128.63 27.12 128.54 27.42 128.47 27.72 128.43 28.02 128.4 28.32 128.43 28.64 128.45 28.94 128.49 29.22 128.56 29.5 128.66 29.75 128.77 29.98 128.54 30 128.31 30.05 128.1 30.1 127.89 30.16 127.5 30.3 127.14 30.44 127 30.49 126.83 30.51 126.72 30.51 126.61 30.49 126.54 30.42 126.47 30.33 126.42 30.19 126.42 29.98 125.98 30.23 125.57 30.49 125.18 30.76 124.81 31.09 124.51 31.41 124.23 31.75 124.12 31.94 124 32.12 123.91 32.31 123.84 32.49 123.77 32.68 123.72 32.88 123.7 33.09 123.7 33.3 123.7 33.48 123.72 33.71 123.77 33.92 123.84 34.13 123.93 34.34 124.05 34.57 124.19 34.77 124.35 34.98 124.53 35.21 124.74 35.44 124.97 35.65 125.22 35.88 125.22 35.88"/><polygon class="cls-1" points="89.95 59.39 89.88 59.48 89.81 59.57 89.79 59.66 89.74 59.75 89.92 59.69 90.11 59.59 90.02 59.5 89.95 59.39 89.95 59.39"/><path class="cls-1" d="M281.62,364.61l-.21,0-.21,0-.18-.07-.19,0-.32-.14-.27-.07-.14,0H280l-.12,0-.11.1-.12.11-.11.19-.12.23-.11.3V365l0-.13,0-.16,0-.12-.07-.14-.05-.11-.09-.1-.07-.11-.21-.16-.23-.16-.25-.14-.26-.12-.57-.2-.58-.17-.3-.09-.27-.09-.26-.09-.23-.09-.09-.21,0-.19v-.16l.07-.14.07-.11.11-.12.14-.09.16-.09.37-.16.34-.14.19-.07.16-.09.14-.09.14-.12-.44-.11-.39-.14-.37-.19-.35-.18-.3-.21-.3-.21-.25-.25-.25-.25-.23-.28-.21-.28-.18-.3-.17-.32-.16-.3-.14-.34-.13-.33-.12-.34-.18-.69-.19-.72-.14-.71-.13-.69-.14-.69-.16-.67-.17-.62-.2-.58.2-.55.17-.56.13-.53.12-.55.18-1.08.17-1.06.06-.53.12-.51.11-.51.14-.48.19-.49.2-.48.12-.23.14-.23.14-.23.16-.21h-1.78l-.09-.23-.07-.18,0-.19,0-.18v-.16l0-.16,0-.14.05-.14.07-.12.09-.13.09-.1.09-.11.26-.19.25-.18.58-.3.53-.3.2-.16.17-.16.06-.09.05-.1,0-.11,0-.09-.12-.1-.14-.06-.13,0h-.44l-.28,0h-.14l-.11,0-.12-.07-.09-.09-.09-.11-.07-.19,0-.23,0-.3.21-.21.16-.13.14-.12.16-.07.19,0,.23,0,.3,0h.39v-.32l0-.35.05-.32.07-.32.14-.67.13-.67,0-.32,0-.32v-.35l0-.32,0-.32-.11-.35-.14-.32-.18-.35-.12.21-.11.14-.12.09-.09.07-.12,0h-.11l-.12,0-.11,0-.21-.14-.23-.13-.11-.07-.1-.05-.11,0-.12,0-.41-.76-.32-.62-.05-.14,0-.14,0-.11v-.12l0-.11,0-.12.07-.11.09-.12,1.2.6V331l.07-.21.07-.11.09-.1.07,0,.09-.05h.1l.09,0,.11-.09.14-.09.14-.07.16-.07.16-.05.16,0h.19l.18,0,.21,0h.21l.2,0,.21.05.21.07.23.07.21.09.23.09v-2.35l.25-.28.25-.27.23-.3.23-.3.21-.3.19-.32.18-.3.16-.33.14-.34.14-.32.11-.35.12-.35.21-.71.13-.74.14-.76.09-.76.07-.8,0-.81,0-1.68v-1.73l-.09-.07-.09-.05-.07-.07-.07-.09-.09-.16-.07-.18v-.42l.05-.21.06-.23.1-.2.11-.23.12-.21.14-.21.25-.35.25-.27-.21-.37-.16-.37-.13-.34-.1-.33-.07-.32,0-.3v-.58l0-.27.05-.28.07-.25.09-.26.12-.25.13-.23.14-.23.14-.25.65-.93.69-1,.16-.26.14-.27.14-.26.13-.27.12-.3.11-.3.07-.3.07-.32-1.77.57-.07.09-.14.28,0,.09,0,.09v.1l0,.09,0,.11,0,.12.07.09.09.12-.9.66-.92.67-.95.69-.9.7-.43.36-.42.37-.39.37-.37.39-.34.4-.33.41-.27.42-.23.43-.19.44-.14.37,0,.18,0,.17v.16l0,.16.05.3.07.25.09.25.11.23.33.42.34.39.16.19.17.2.13.21.14.21.3,0,.25,0,.21-.09.16-.12.14-.16.12-.16.07-.16.07-.19.09-.41.07-.37,0-.18.07-.17.07-.16.09-.11.3.11.23.14.19.14.14.14.09.18,0,.16,0,.19,0,.18,0,.39,0,.44,0,.21,0,.21.05.23.09.2-.3,0-.26.07-.2.07-.19.11-.16.14-.14.16-.11.16-.09.16-.12.16-.11.17-.14.13-.16.14-.19.12-.21.09-.25,0-.3,0,0-.16,0-.16,0-.14-.07-.12-.07-.14-.06-.11-.1-.12-.09-.09-.21-.21-.23-.18-.25-.16-.25-.19-.23-.16-.23-.16-.21-.18-.16-.21-.07-.09L274,316l0-.11,0-.14,0-.12,0-.16,0-.14,0-.16h-.53l-.3,0-.27,0-.14,0-.12,0-.11.05-.12.07-.07.07-.07.06,0,.1,0,.09-.26.28-.32.36-.16.19-.14.21-.14.23-.09.2-.07.23,0,.21,0,.12,0,.09,0,.11,0,.1.07.09.1.09.09.09.14.07.13.09.17.07.18.05.21.07-.23.21-.21.2-.23.19-.21.16-.23.16-.21.12-.23.11-.23.09-.2.07-.23.07-.21,0h-.23l-.21,0-.23,0-.21-.07-.23-.1.58-1.17h-.58l-.11.3-.16.25-.17.21-.2.18-.21.14-.21.14-.23.09-.25.09-.51.17-.5.16-.26.11-.25.14-.23.16-.23.21-.09.21-.1.2,0,.19,0,.18,0,.33v.55l-.05.25,0,.12-.05.11-.07.09-.11.12v.11l0,.12,0,.09,0,.09-.1.21-.13.16-.3.37-.26.32-.09.17-.07.16v.18l0,.09,0,.1,0,.06.07.1.09.11.12.09.3.21.37.21-.16.14-.16.14-.17.09-.13.09-.17.05-.13,0-.16,0h-.14l-.28,0-.3-.07-.28-.12-.27-.13-.28-.14-.27-.12-.28-.11-.28-.09-.16,0-.14,0-.16,0h-.14l-.16,0-.16,0-.16.1-.16.09V327l-.12.2-.14.14-.13.09-.14.07-.16.05h-.37l-.19,0-.39-.07-.44-.05h-.2l-.21,0-.23.07-.21.09v1.18l-.23.32-.25.3-.26.3-.25.28-.3.25-.3.26-.3.2-.32.21-.35.18-.34.17-.37.13-.37.12-.39.09-.41.07-.42.05h-.44l-.55.13-.51.07h-.48l-.48,0-.47-.12-.43-.16-.42-.21-.39-.25-.39-.28-.39-.34-.35-.35-.37-.39-.32-.44-.35-.43-.32-.47-.32-.46-1.24-2-1.23-2-.32-.46-.32-.44-.32-.41-.35-.39-.34-.35-.35-.32-.37-.28-.37-.25-.76-.35-.74-.34-.71-.37-.67-.39-.67-.42-.62-.41-.62-.46-.58-.49-.57-.5-.55-.56-.53-.57-.51-.6-.51-.62-.46-.7-.46-.71-.46-.74-.37-.18-.35-.19-.34-.2-.3-.23-.3-.23-.25-.26-.26-.25-.25-.28-.21-.27-.2-.3-.21-.3-.19-.33-.34-.64-.32-.67-.58-1.43-.58-1.43-.3-.74-.32-.69-.18-.37-.19-.34-.2-.32-.24-.35-.2-.21-.26-.16-.23-.14-.25-.09-.53-.16L222,302l-.23-.07-.23-.05-.23-.07-.21-.09-.18-.12-.18-.13-.14-.17-.14-.2-.32,0-.3,0-.28,0-.28,0-.27-.05-.23-.09-.26-.09-.2-.12-.21-.13-.21-.14-.18-.16-.19-.19-.34-.39-.32-.42-.58-.92-.53-.94-.28-.46-.27-.44-.3-.42-.33-.34-.06-.48-.1-.47-.13-.43-.14-.44-.19-.39-.2-.39-.24-.35-.23-.37-.27-.32-.28-.35-.3-.3-.3-.3-.67-.6-.71-.55L209.3,289l-1.48-1.13-.37-.28-.34-.3-.35-.32-.34-.32-.33-.33-.32-.34-.3-.37-.28-.37-.48-.14-.44-.16-.41-.18-.37-.21-.35-.23-.32-.25-.28-.28-.27-.3-.23-.3-.23-.34-.21-.35-.18-.37-.19-.37-.16-.37-.14-.39-.14-.39-.53-1.64-.53-1.59-.13-.39-.17-.37-.18-.37-.18-.36-.21-.33-.21-.32-.25-.3-.26-.3,0-1-.05-1-.06-1-.1-1-.07-1-.06-1-.07-1v-1.45l0-.48,0-.46.05-.46,0-.47.1-.43.09-.44.11-.44.14-.41.14-.42.18-.39.21-.39L199,261l.26-.37.3-.35.3-.34.09-.12.09-.09,0-.11,0-.12v-.09l0-.09,0-.1,0-.09L200,259l-.07-.07-.09-.07-.1,0-.09-.05-.11,0-.1,0h-.11l.32-.11.32-.16.33-.16.32-.21.28-.23.27-.26.28-.27.23-.28.21-.32.16-.32.14-.37.11-.37.05-.19,0-.18v-.62l0-.21-.05-.21,0-.23.41-.25.39-.25.35-.28.32-.25.16-.1.19-.09.16-.07.18,0,.19,0,.18,0,.21.05.2.09.19-.3.09-.23.05-.09v-.17l0-.07,0,0,0-.05,0,0-.07,0-.14,0-.13-.05-.37,0-.33-.1-.13-.07-.12-.11,0-.07,0-.07,0-.09v-.12l.41-.32.4-.3.32-.3.3-.3.27-.28.23-.29.19-.28.16-.28.12-.27.09-.28,0-.28,0-.27v-.3l-.05-.3-.07-.33-.09-.32.3.09.28.07.25,0h.21l.18,0,.16,0,.14-.07.12-.09.09-.1.07-.13.07-.14,0-.14.09-.35,0-.34.07-.37.07-.35,0-.16.07-.16.1-.14.09-.14.11-.11.12-.12.16-.07.18-.06.21-.05.25,0,.28,0,.32.05,0-.24,0-.2.07-.21.07-.16.05-.16,0-.12,0,0,0,0-.06,0h-.1l-1.17,1.18L207,241.69l.59-.58.12-.11.14-.07.14-.05.13,0h.17l.16,0,.16,0,.16,0,.32.14.32.19.28.2.25.21v-.58l-.18-.11-.12-.12-.09-.11v-.21l.07-.11.07-.12.12-.11L210,240l.23-.23.11-.12.07-.09.07-.11,0-.12,1.18,1.18,1.17-3,.21.2.21.12.09,0,.09,0h.16l.17,0,.13-.09.14-.11.12-.16.11-.17.09-.2.07-.21.07-.23.05-.25,0-.23,0-.24v-.23l-1.75-.59.3-.12.3-.14.28-.18.25-.16.49-.4.43-.39.23-.18.21-.19.23-.16.26-.14.25-.11.28-.09.3-.07.29,0v-.57l.49-.88.51-.9.53-.87.55-.88.53-.9.55-.87.51-.88.46-.87.21.18.23.14.18.11.19.07.27.07h.09l-.6-1.75.24-.21.23-.13.2-.12.23-.07.21,0,.23,0h.44l-1.18-4.12h1.18l.18,0h.16l.1,0,.07.05,0,.07,0,.09v.35h.33l.25-.05.23,0,.19-.07.13-.07.1-.07.09-.09,0-.09,0-.12v-.25l0-.14-.09-.28-.14-.3-.14-.3-.11-.32,0-.14,0-.14,0-.16v-.14l0-.11,0-.14.07-.11.1-.1.13-.09.19-.09.21-.07.25-.07-.09-.23-.07-.21-.05-.2v-.4l0-.18,0-.18.07-.17.16-.34.21-.35.21-.3.23-.32.2-.3.19-.28.07-.16.07-.14,0-.16.05-.13v-.14l0-.16,0-.17-.07-.13-.12-.17-.11-.16-.19-.16-.18-.16-.44-.23-.44-.23-.39-.25-.41-.28-.37-.25-.39-.3-.37-.28-.37-.3-.69-.62-.69-.65-.67-.64-.67-.67-.21-.09-.25-.07-.23-.05-.25,0-.28,0-.25,0-.26,0-.25,0-.23,0-.23.09-.23.07-.21.09-.18.12-.19.09-.14.11-.14.12v-.53l0-.46-.07-.39-.12-.35-.11-.3-.14-.25-.16-.21-.18-.16-.21-.14-.21-.09-.25-.07-.23-.05-.26,0-.25,0h-.28l-.27,0-.56,0-.55,0h-.28l-.27,0-.26,0-.25-.05-.25-.09-.23-.09-.21-.14-.21-.18-.18-.21-.16-.28-.14-.3-.12-.37-.23.1-.2.07-.19,0-.18,0-.19,0-.16,0-.16-.05-.16,0-.3-.19-.25-.18-.26-.23-.23-.23-.21-.21-.2-.16-.09-.09-.12-.05-.09,0-.09,0h-.1l-.09,0-.11,0-.1.07-.09.09-.11.14-.1.16-.11.21h-.21l-.18,0-.16-.05-.14,0-.09-.07-.12-.07-.07-.07-.07-.07-.07-.18,0-.19,0-.23v-.21l-.87-.23-.85-.23-.42-.14-.41-.13-.39-.14-.37-.16-.35-.17-.32-.2-.3-.19-.25-.23-.26-.25-.21-.25-.09-.17-.07-.13-.07-.17-.06-.16-.58,1.78-.21.18-.18.09-.09,0-.07,0h-.07l-.07,0-.14,0-.09-.11-.09-.14-.1-.16-.16-.35-.14-.32-.09-.14-.07-.12,0,0-.05,0-.07,0h-.05l.26-.27.21-.23.16-.21.11-.19.09-.16,0-.16v-.23l0-.09-.09-.09-.09-.07-.12,0-.32-.09-.34-.07-.83-.09-.86-.16-.18-.05-.18-.07-.19-.07-.14-.09-.13-.09-.12-.12-.09-.14-.07-.16-.6.6-.21.16-.16.14-.16.16-.12.14-.09.14-.07.14,0,.11,0,.12v.23l.05.11.05.1.07.09.06.09.1.09.11.09.23.17.28.13.3.14.3.12.57.25.53.21.1.32.07.3,0,.28,0,.25v.23l0,.23-.05.21-.07.18-.07.16-.09.19-.09.14-.12.16-.25.25-.23.26-.26.25-.2.25-.12.14-.07.14-.07.14-.07.14,0,.16,0,.18,0,.19,0,.18.05.21.09.23.12.25.16.28.21.27.2.3.21.33.19.32.2.35.16.34.19.37.16.37.3.78.25.79.23.82.19.83.14.83.11.81,0,.81,0,.76,0,.37,0,.37,0,.36-.05.35-.07.32-.07.32-.09.3-.09.28.25.16.23.16.21.19.16.18.16.16.14.19.09.18.1.19.06.18,0,.21,0,.18,0,.19V219l-.05.37-.14.78-.16.76-.07.37,0,.35,0,.18v.16l0,.19,0,.16-.2.27-.19.3-.16.33-.14.32-.11.34-.09.37-.1.35-.07.39-.11.76-.09.81-.07.8-.07.83-.09.83-.14.83-.09.39-.1.4-.11.39-.14.39-.16.37-.19.37-.2.34-.23.35-.28.32-.3.32-.32.3L194,234l.14.44.09.41.05.39,0,.37,0,.37-.09.35-.12.32-.14.32-.16.33-.18.29-.21.28-.23.28-.46.55-.48.53-.44.53-.42.51-.16.27-.16.28-.11.28-.1.27,0,.28,0,.3,0,.32.09.33.12.32.18.34.23.37.3.37-2.35.6-.55.51-.51.39-.48.34-.49.24-.46.18-.44.09-.41.05-.42,0-.39-.09-.39-.11-.37-.19-.37-.2-.37-.23-.34-.28L183,245l-.34-.3-.69-.65-.69-.66-.35-.33-.37-.3-.37-.27-.37-.26-.36-.23-.4-.2-.41-.14-.42-.12-.43,0h-.44l-.46,0-.49.14.58-.58-.85-1.29-.81-1.17-.74-1.11-.69-1.06-.62-1-.6-1-.25-.53-.26-.51-.25-.55-.23-.53-.57,0-.51-.07-.46-.12-.42-.16-.37-.18-.32-.21-.28-.26-.23-.27-.2-.3-.19-.32L168,230l-.11-.35-.12-.36-.09-.4-.07-.36-.07-.4-.14-.76-.14-.73-.09-.37L167,226l-.12-.32-.11-.3-.16-.28-.19-.23-.2-.23-.26-.18-.27-.16-.33-.1-.36-.07-.42,0,.3-.41.18-.3.07-.12.05-.11,0-.1,0-.09,0-.07v0l0,0,0,0-.14-.07-.16,0-.21,0-.25,0-.25-.05-.26-.09-.27-.09-.26-.16-.13-.12-.12-.11-.12-.14-.11-.16,0-.37,0-.37-.07-.35-.09-.34-.14-.32-.14-.33-.16-.32L162,219l-.21-.3-.21-.3-.23-.27-.25-.28-.51-.53-.55-.53-.55-.53-.56-.51-.53-.53-.53-.55-.23-.25-.23-.3-.23-.28-.18-.3-.19-.3-.18-.3-.14-.32-.11-.32,0-.12,0-.09.07-.12.12-.11.21-.23.2-.21.07-.11.05-.12v-.09l-.05-.12-.09-.11-.14-.12-.23-.11-.27-.1-.07-.32-.07-.32-.07-.3-.09-.28-.21-.55-.23-.51-.26-.46-.29-.46-.3-.44-.33-.41-.69-.81-.71-.85-.35-.44-.37-.48-.34-.49-.32-.53-.42-1.31-.41-1.31-.21-.63-.21-.62-.21-.62-.25-.58-.25-.57-.28-.56-.32-.5-.35-.49-.18-.23-.21-.23-.21-.23-.2-.2-.23-.19-.26-.21-.25-.18-.25-.16.11-.09.12-.1.13-.09.14-.07.28-.14.23-.09.11-.07.07,0,.07-.07.05-.07,0-.07,0-.07-.05-.09-.09-.12-.23-.44-.23-.41-.23-.41-.28-.35-.14-.16-.13-.14-.17-.14-.18-.09-.16-.09-.19-.07-.2,0-.21,0h.09l.12,0,.11,0,.09,0,.1-.07.09-.05.07-.09,0-.07.07-.09,0-.09,0-.09,0-.1,0-.11,0-.09-.07-.12-.09-.11v-.21l-.05-.21-.07-.18-.09-.19-.09-.14-.14-.16-.14-.11-.16-.12-.16-.11-.19-.09-.2-.07-.19-.07-.23,0-.21,0-.2,0-.23,0,0-.09.12-.28.14-.39.13-.48.05-.26,0-.25,0-.23,0-.25-.07-.21-.09-.18-.07-.1-.09-.09-.07-.07-.11,0-2.35.57-.19-.21-.14-.2,0-.1,0-.09v-.18l0-.16.07-.16.09-.14.14-.14.3-.28.34-.23.32-.23.28-.23-.11,0-.1-.1-.07-.09-.06-.11-.12-.26-.09-.27-.12-.65-.14-.67-.09-.32-.14-.3-.06-.14-.1-.14-.09-.11-.11-.09-.14-.1-.14-.07-.16-.06-.19-.05-.18,0h-.23l-.23,0-.28.05.09-.21.05-.21,0-.18,0-.21-.07-.19-.11-.18-.12-.18-.14-.19-.27-.39L139,177l-.11-.25-.07-.26-.07-.3,0-.32-.3-.23-.3-.23-.26-.25-.23-.28-.2-.28-.19-.27-.16-.3-.14-.3-.14-.33-.11-.32-.09-.32-.07-.35-.14-.69-.09-.69-.14-1.47-.16-1.46-.12-.73-.16-.72-.11-.34-.12-.35-.14-.35-.16-.32,0-.23,0-.21,0-.2.07-.19.07-.2.09-.19.12-.16.11-.18.28-.35.3-.3.32-.3.33-.28.64-.53.55-.48.23-.23.19-.23.07-.12,0-.11,0-.12v-.09l.23-.16.2-.14.21-.11.23-.1.21-.09.18-.07.21,0,.21-.05.39,0h.39l.39,0,.4,0,.76.12.78.11.41,0h.42l.41,0,.44-.09-.25-.07-.26-.07-.2-.07-.21-.09-.18-.09-.17-.12-.16-.09-.14-.11-.23-.26-.2-.27-.19-.3-.16-.3-.16-.3-.18-.3-.21-.32-.23-.3-.14-.14-.16-.14-.16-.14-.19-.14-.2-.13-.21-.12-.26-.14-.25-.11,2.35-1.75,2.35,2.35v-.12l0-.09,0-.07,0-.07.1-.14.11-.11.09-.1.12-.13,0-.07,0-.09,0-.1,0-.09.58.58.18.23.16.23.09.21,0,.23,0,.2,0,.23,0,.21-.07.23-.2.44-.26.44-.25.43-.23.47,4.63.46-.07-.12,0-.09,0-.12,0-.09v-.21l.05-.2,0-.21.07-.21.05-.21,0-.2.44,0h.44l.41.05.39.09.19.07.18.07.19.09.16.11.13.14.17.16.11.19.12.21.11,0,.12-.05.11,0h.09l.23.05.23.07.44.18.44.25.21.1.23.06.23.05h.21l.11,0,.12,0,.09-.06.11-.07.12-.07.11-.12.12-.14.09-.13v-.44l0-.21,0-.18,0-.07,0-.07,0-.07,0-.05-.07,0-.09,0-.09,0-.09,0,.23-.3.23-.26.23-.2.23-.14.25-.14.25-.07.23,0,.26,0h.25l.25,0,.26,0,.25.07.49.14.48.18.46.14.41.12.21,0,.21,0,.18,0,.17-.05.16-.07.16-.11.14-.16.11-.21.12-.25.09-.28.09-.37.07-.41.21.14.23.13.2.16.21.21.19.19.18.2.16.23.16.21.12.23.11.21.07.21,0,.2,0,.19,0,.16,0,.16-.09.12h1.18l-.05-.16v-.26l.05-.11,0-.12.07-.09L166,158l.12-.07.27-.14.33-.09.37-.11.41-.1.42-.14.43-.13.21-.07.21-.09.21-.12.2-.12.21-.13.18-.14.19-.16.18-.19.16-.2.14-.21.14-.26.12-.25.34,0,.32,0,.35-.09.32-.12.69-.27.69-.32.37-.19.37-.14.39-.16.37-.14.42-.11.39-.07.44-.07.43,0v-.12l.07-.11.07-.14.12-.16.25-.3.3-.35.12-.16.13-.16.1-.16.07-.16,0-.14,0-.14,0-.07,0-.07,0-.05-.05-.06-.21-.19-.16-.11-.14-.07-.11,0-.09,0-.07.07,0,.11-.07.12-.11.3-.17.34-.09.19-.14.16-.16.14-.2.11-.17,0-.16,0H175l-.16,0-.14-.05-.14,0-.27-.14L174,152l-.25-.19-.26-.23-.48-.46-.46-.44-.23-.23-.21-.18-.23-.16-.23-.14-.07-.85-.07-.76v-.16l0-.14,0-.12.07-.11.12-.09.11-.07.16,0,.21,0,.3,0,.28,0,.25.07.21.09.16.11.16.12.14.14.11.16.37.76.37.85.48,0,.58.05h.65l.32,0L177,150l.32-.07.35-.09.3-.14.32-.18.14-.12.16-.11.14-.14.14-.16.13-.16.12-.19.12-.18.11-.21V148l0-.28-.05-.3,0-.35-.07-.34-.1-.37-.11-.37-.12-.39-.16-.39-.16-.37-.18-.37-.23-.37-.23-.32-.28-.32-.28-.28-.32-.23-.21,0-.23-.07-.18-.07-.19-.07-.16,0h-.11l0,0,0,.05,0,.07v.09l-2.35-3-.42,0h-.37l-.32,0-.3,0-.25.07-.26.09-.23.14-.2.21h-.24l-.2,0h-.19l-.18-.05-.09,0-.07,0,0,0-.07-.07,0-.06,0-.07,0-.1V140h-.09l-.05,0,0,0,0,0,.12-.1.23-.09.32-.11.37-.09.41-.07.44,0-1.1-.9-1.11-.92-.58-.44-.57-.41-.58-.41-.6-.37-.62-.35-.62-.3-.32-.14-.33-.11-.34-.09-.33-.1-.34-.09-.35-.07-.34,0-.37,0-.35,0-.39,0-.37,0-.37,0,.12.09.16.1.21.09.21.09.46.16.46.21.2.11.19.14.16.14.14.19,0,.11.05.09,0,.12,0,.14v.11l0,.14,0,.16L164,137l0,.09,0,.1,0,.09-.09.07-.09,0-.12.05-.12,0-.13,0-.28.05-.3,0h-.53l-.28-.3-.3-.28-.29-.25-.33-.23-.34-.19-.33-.16L160,136l-.35-.11-.37-.1-.39-.06-.39-.07-.37,0-.42,0h-1.22l-1.66.11-1.7.14-.83,0-.83,0h-.39l-.42,0-.39,0-.39,0,0,.2v.21l.05.19,0,.18.11.32.14.28.18.28.19.23.23.23.21.23,0,.16-.09.11-.09.14-.1.09-.11.07-.12.07-.13,0-.14.05-.14,0h-.32l-.19,0-.34-.05-.4-.12-.39-.11-.39-.14-.39-.16-.42-.16-.78-.32-.69-.28-.07.21-.09.18-.09.14-.1.14-.13.09-.12.09-.14.07-.14,0-.32,0-.32,0h-.92l-.26,0-.11,0-.09,0-.1.07-.06.1-.07.09,0,.14,0,.16v.18l0,.21.05.23.07.28.09.32-.32-.21-.32-.16-.33-.14-.3-.09-.3-.07-.3,0-.29,0-.3,0-.28,0-.3,0-.28.1-.27.06-.56.23-.55.26-1.11.57-1.12.58-.3.14-.3.11-.3.1-.3.09-.32.07-.3.07-.33,0-.32,0,2.35.58,0,.3,0,.25-.06.23-.07.16-.1.14-.09.14-.11.09-.12.09-.21.17-.18.16-.09.11-.05.14,0,.16v.21l-.35-.09-.37-.07-.39-.05-.41,0h-.88l-.46,0-.46,0-1,.05-.94.09-.95,0-.92,0-.11.28-.12.23-.14.23-.13.18-.17.19-.16.16-.16.14-.18.11-.16.12L126,147l-.19.09-.2.07-.42.09-.44.07-.89.07-.93,0-.48,0-.46,0-.46,0-.44.09-.44,0h-.8l-.39,0-.37.05-.37.07-.35.09-.34.11-.33.14-.3.14-.32.16-.3.16-.57.37-.56.42-1.08.85-1.08.83-.58.39-.57.37-.3.16-.3.14-.33.14-.32.11-.57-.07-.53-.14-.46-.16-.42-.21-.37-.25-.34-.28-.28-.32-.25-.34-.21-.4-.19-.41-.16-.44-.11-.46-.12-.48-.07-.49-.07-.53,0-.53-.09-2.21-.1-2.28,0-.55-.07-.56-.07-.53-.09-.53-.12-.5-.14-.51-.18-.46-.21-.46-.18-.53-.14-.51-.12-.48,0-.44,0-.42,0-.36.07-.37.09-.35.14-.32.16-.3.18-.28.21-.27.23-.26.26-.25.27-.23.28-.23,1.22-.83,1.27-.85.3-.23.3-.24.27-.23.26-.25.25-.28.23-.27.21-.32.18-.3,1.75.57.6-1.17.25.09.28.09.28.07.25.05.28,0,.25,0h.25l.26,0,.5-.05.51-.07.51-.09.48-.11.51-.12.48-.09.51-.07.51,0,.25,0,.25,0H121l.25,0,.28,0,.25,0,.28.09.28.1-.21-.21-.14-.21-.09-.18,0-.19,0-.18,0-.16,0-.19.07-.16.44-.67.5-.78.21,0,.21,0h.16l.16,0,.14,0,.11,0,.12,0,.11.07.07.09.09.09.07.11.05.12.12.28.09.27.16.65.21.67.13.3.21.3.12.13.11.14.14.14.16.12,1.18-1.18.57.58.44.09.44.07.39,0,.41,0h.37l.39,0,.37-.07.37-.06.35-.1.34-.11.35-.12.34-.16.33-.16.34-.18.33-.21.34-.21.12-.21.11-.18.16-.14.14-.11.16-.12.19-.07.18-.07.18,0,.21,0,.21,0,.21,0h.23l.44.07.46.06.48.1.46.07.48,0,.44,0,.23,0,.21,0,.23,0,.18-.07.21-.1.19-.09.18-.11.16-.16.23-.17.26-.11.25-.12.25-.09.28-.09.28,0,.27,0,.3-.05,1.22-.09,1.22-.07.3,0,.3,0,.3-.07.28,0,.28-.1.27-.09.26-.11.25-.14.23-.14.21-.18.2-.21.21-.23.16-.28.16-.3.14-.32.14-.37v.58l.25.09.28.07.25,0h.23l.23,0,.23,0,.24-.07.2-.09.23-.09.19-.14.2-.14.21-.14.39-.34.4-.35.39-.34.39-.37.39-.33.42-.27.23-.12.2-.11L154,120l.23-.07.26,0h.5l.28,0,.12-.09.11-.07.14,0,.14,0h.14l.13,0,.12,0,.14.09.09.09.09.12.05.11,0,.16,0,.17,0,.18,0,.21-.09.2h.46l.48,0,.23,0,.23,0L158,121l.21-.07.18-.09.14-.11.14-.14.09-.16,0-.12,0-.09,0-.12V120l0-.28-.09-.32.11-.09.12-.07.09,0,.11,0h.23l.1,0,.11,0,.23.14.21.16.23.21.23.23.46-.46.48-.51.53-.55.51-.55.46-.53.44-.56.18-.25.19-.25.14-.23.13-.24h-1.17l-.23.1-.21.07-.23,0-.21,0h-.2l-.19,0-.18,0-.19-.1-.13-.09-.17-.11-.11-.12-.12-.16-.07-.16-.06-.19,0-.2v-.3l0-.09,0-.1,0-.07,0,0,.07,0,.07,0,.07,0,.18,0,.21,0h.43l.05.14.07.16.09.12.07.11.21.19.23.16.48.23.56.21.27.11.28.14.25.18.26.24.11.11.09.16.12.16.09.19.09.18.07.23.07.23.07.28,0-.28,0-.27,0-.28-.07-.25-.09-.26-.1-.25-.11-.25-.12-.26-.3-.48-.34-.49-.37-.46-.39-.46-.44-.41-.44-.44-.43-.39-.44-.39-.83-.76-.74-.67-.39-.19-.39-.2-.39-.21-.4-.23-.8-.49-.83-.53-.85-.55-.86-.55-.87-.58-.9-.53-.46-.25-.46-.26-.49-.23-.46-.23-.48-.18-.48-.21-.49-.16-.51-.14-.5-.11-.51-.12-.51-.07-.53,0-.53,0-.53,0-.53,0-.55.09-.32,0h-.35l-.32,0-.32,0-.67.1-.67.16-1.36.32-1.36.35-.69.16-.69.13-.71.1-.72.07-.37,0h-.37l-.36,0-.37,0-.37,0-.39-.07-.37-.07-.39-.12-.49.23-.55.23-.28.14-.27.14-.28.14-.25.16-.26.18-.2.19-.17.21-.13.2-.07.12,0,.14,0,.14v.41l0,.16.05.16-.23-.2-.23-.14-.21-.09-.23-.07-.21-.05-.23,0-.2,0h-.23l-.21.26-.21.3-.09.14-.07.16-.05.16,0,.16v.34l0,.17.07.13.09.17.12.13.16.12.21.14-1.18.57-.25-.09-.35-.07-.39,0-.46,0H125l-.62,0-1.29.07-1.32.07-1.29.07-1.17,0-.12.21-.11.19-.14.16-.14.11-.16.12-.16.09-.16.07-.16.07-.19,0-.18,0h-.19l-.21,0-.39,0-.41,0-.83-.14L115,112h-.39l-.21,0-.18,0-.19,0-.18.06-.19.1-.16.09-.27-.07-.26-.07-.25-.09-.23-.09-.23-.12-.23-.11-.21-.14-.23-.14-.37-.3-.37-.35-.34-.34-.33-.39-.27-.4-.28-.39-.25-.41-.26-.39-.46-.79-.46-.71-.09-.76-.07-.74,0-.74v-1.45l0-.69.07-.67.09-.67.14-.66.14-.65.18-.62.21-.62.23-.6.28-.58.27-.58.33-.55.2-.18.19-.19.16-.23.16-.23.12-.25.13-.28.1-.27.09-.28.32-1.2.28-1.15.09-.28.09-.25.12-.23.11-.23.14-.21.14-.18.18-.17.19-.13.21-.12.23-.09.27-.05h.28l.32,0,.35,0,.39.12.44.13.2-.16.23-.13.21-.14.23-.1.44-.18.46-.14.44-.11.46-.07.46,0,.46,0,.94,0,1-.09.5-.07.53-.11.53-.14.53-.21.16.09.16.07.17,0h.27l.14,0,.12,0,.11-.07.14-.12.09-.09.12-.14.11-.14.21-.32.18-.35.4-.73.36-.72.19-.32.18-.28.12-.11.09-.09.12-.1.11-.07h.12l.11,0,.14,0,.14,0,.16.07.14.07.14.09.13.09.14.12.14.14.09.13.12.17.07.18.07.18,0,.21,0,.21.16-.12.12-.13.11-.14.1-.16.06-.17.05-.16,0-.18,0-.19,0-.18,0-.21,0-.2L128.7,85l-.14-.42-.16-.41-.23-.39-.23-.39-.25-.4-.26-.32-.27-.32-.26-.26-.25-.2-.23-.14.09-.09.14-.1.12-.06.13-.07.28-.07.28,0h.3l.32,0,.3,0,.3,0,.3,0h.57l.26-.07.11,0,.09,0,.12-.07.09-.09.09-.09.07-.12.07-.14.07-.16,1.78,1.78.57-.6h.44l.23,0,.21,0,.23.07.23.11.21.14.23.21-.12.39-.14.35-.14.27-.16.23-.18.19-.19.11-.18.09-.23,0h-.46l-.25,0-.28-.06-.58-.19-.62-.21H131l-.1,0-.07,0-.06,0-.07,0-.05.07,0,.07,0,.09-.05.16,0,.21v.44h5.88l-1.75-.6.2-.12.19-.09.14-.11.13-.12.12-.11.09-.1.07-.11,0-.09,0-.12,0-.09v-.21l-.07-.18-.09-.16-.11-.17-.14-.13-.16-.14L135,82l-.23-.17-.09,0,.62-.19.6-.16.53-.14.53-.09.48-.11.46-.14.44-.14.44-.21-.05.12,0,.11,0,.12,0,.11v.26l0,.25.1.51.09.51V83l0,.11,0,.12-.05.09,0,.12-.07.09-.09.09-.12.09-.11.07-.14.1L138,84l-.18.07-.21,0,.23.11.21.07.21.07.18,0,.21,0h.53l.34-.07.35-.11.3-.12.32-.16.6-.34.58-.35.3-.14.3-.11.16,0,.16,0,.16,0h.16l.16.17.19.13.16.12.18.09.16.09.19.07.18,0,.19,0,.39.07h.76l.39,0,.37,0,.39,0,.37,0h.39l.37,0,.35.07.18.07.18.07.16.09.17.09.27-.18.28-.17.28-.11.27-.07.28,0h.28l.27,0,.26,0,.27.07.28.09.27.1L152,84l.53.25.53.26.53.23.5.18.26.07.25,0,.25,0h.24l.25,0,.23-.07.25-.12.23-.16.23-.21.23-.25.23-.3.21-.35.12.1.11.06.12.07.14,0,.11,0h.25l.14,0,.26-.07.27-.12.28-.11.28-.12.27-.09.28-.07.11,0,.14,0H160l.14,0,.11,0,.14.05.12.09.13.09.12.12.12.16.11.16.12.21.27,0,.28,0h.53l.25,0,.26,0,.25,0,.25,0,.49-.13.48-.19.46-.21.44-.23.44-.25.41-.28.42-.27.39-.28.73-.55.7-.49.27,0,.28,0,.25,0h.26l.23,0,.25,0,.23,0,.23,0,.44-.14.44-.19.41-.2.39-.26.37-.25.37-.25.37-.3.34-.28.67-.55.67-.49-1.77-.6.11-.2.12-.16.11-.17.12-.13.09-.12.11-.09.12-.09.11-.05.21-.09.23-.05.21,0h.23l0,.11,0,.12.07.11.09.1.09.11.14.09.14.1.16.09.16.07.18.07.21.07.21,0,.21,0,.2,0,.21,0h.74l.62,0,.32,0,.3,0,.32,0,.28-.07.25-.1.23-.11.1-.07.09-.07.07-.09,0-.09.05-.1,0-.11v-.23l0-.14,0-.14L180,76l-.09-.16h-.6l-.11,0-.1,0-.11-.07-.09-.09-.1-.1-.09-.11-.07-.12-.07-.14,0-.13,0-.14,0-.16v-.14l0-.14.05-.14.07-.14.11-.11L179,74l.23-.1.21-.07.21-.06.2,0,.19,0h.37l.16,0,.14.06.11.07.12.12.09.11.05.17,0,.18,0,.21,1.18-1.18-.16-.07-.16-.07-.14-.09-.14-.09-.23-.21-.23-.25-.42-.53-.36-.53-.21-.23-.21-.21-.11-.09-.12-.07-.11-.07-.14,0-.14,0-.14,0h-.32l-.19.05-.18,0-.21.07-.2.11.59-.6v-.21l0-.23.05-.2,0-.23.14-.44.09-.44v-.44l0-.23-.1-.23-.11-.21-.18-.23-.24-.2-.29-.23-.56-.53L177,66l-.62-.51-.62-.46-.67-.44-.67-.43-.69-.4-.71-.39-.74-.39-.74-.37-.73-.34-.76-.35-1.53-.69L167,60.56l-.44.12-.48.07-.51,0-.5.05-1.09.09-1.08.09-.55,0-.56.09-.53.09-.53.14-.53.18-.5.21-.23.12-.23.14-.23.13-.23.17-.28-.05-.28,0h-.53l-.25,0-.25.05-.26,0-.25,0-.48.16-.49.16-.46.21-.44.18-.44.19-.41.18-.41.14-.4.09-.18,0-.21,0h-.18l-.16,0-.19,0-.18,0-.16-.1-.16-.09-.56-.09-.55-.07L150,63.3l-.56,0-.53,0-.53.05-.55.07-.51.09-.53.12-.5.16-.51.18-.51.21-.48.23-.46.25-.46.3-.44.33-1.13.46-1.2.46-.6.23-.6.23-.62.18-.64.19-.62.16-.65.11-.67.07-.64.05h-.33l-.32,0-.34,0-.33,0-.32-.07-.34-.07-.33-.09-.32-.09v.6l-.34.34-.35.32-.35.26-.34.23-.37.18-.35.14-.36.12-.4.09-.36,0-.4,0h-.76l-.78-.07-.81-.09-.8-.12-.81-.11-.39,0-.42,0h-.8l-.39,0-.42,0-.39.07-.39.11-.39.14-.4.16-.39.23-.39.26.09.16.07.14,0,.16,0,.14v.13l0,.14,0,.14-.07.12-.07.11-.07.14-.09.11-.12.12-.25.21-.26.23-.27.23-.3.2-.26.24-.25.25-.11.11-.12.14-.07.14-.09.14-.07.14,0,.16,0,.14v.16l-1.17-1.75-.21-.1-.19,0-.16,0h-.16l-.11,0-.14.07-.12.07-.09.07-.23.16-.25.18-.14.07-.16.05-.19,0h-.2l-.6-.57h-1.18l-.23.3-.25.27-.26.23-.29.21-.3.19-.3.13-.33.12-.34.09-.35.09-.34,0-.37,0-.37,0-.74,0-.74.05-.73,0-.74.07-.35,0-.34.07-.32.07-.33.11-.3.12-.29.16-.28.18-.25.21-.26.23-.21.3-.2.32-.19.35-.57-1.18-1.78,1.18V75.26l-.41.1-.39,0-.35,0-.3,0-.28-.07-.25-.09-.23-.14-.18-.16-.19-.19-.16-.2-.14-.23L98.13,74l-.21-.53-.18-.6-.17-.6-.16-.64-.09-.3-.09-.3-.12-.3-.11-.3-.14-.28-.16-.25-.19-.25-.18-.23-.23-.19-.25-.18-.28-.16-.32-.12.2-.16.14-.16.12-.12.09-.14,0-.11,0-.09,0-.09,0-.1-.07-.07-.06-.07-.1-.06-.11-.07-.26-.12L95,67.34l-.28-.12-.23-.11L94.33,67l-.1-.07-.09-.07,0-.07,0-.09v-.21l0-.12.09-.11.11-.14.16-.14.19-.16-.21-.11-.18-.12-.16-.14L94,65.35l-.14-.16L93.73,65l-.1-.16-.09-.16-.11-.37L93.34,64l0-.37,0-.39,0-.37,0-.39,0-.37-.07-.34,0-.19L93,61.39l-.07-.16-.07-.14L92.71,61l-.11-.14-.14-.13-.16-.12,0,.12,0,.11-.09.09L92,61l-.14.09-.16.07-.18.07-.19,0-.2,0H91l-.21,0-.18-.05-.18-.09-.17-.14-.13-.16L90,60.56l0-.05-.09-.18,0-.11,0-.14v-.16l0-.17-.21.07-.2,0h-.4l-.18,0-.16,0-.19-.09-.16-.1-.16-.11-.14-.14-.16-.14L87.64,59l-.3-.35-.27-.36-.53-.79L86,56.8l-.14-.16-.13-.16-.17-.14-.16-.13-.16-.12L85,56l-.16-.07-.19-.07v-.21l0-.18,0-.16.05-.14.07-.14.09-.09.09-.09.09-.1.12,0,.14-.05.13,0,.14,0,.3,0h1.68l.33,0,.3-.09.13,0,.14-.07.12-.09.11-.09-.14.21-.11.2-.09.21-.05.19,0,.16v.18l0,.16.05.14.07.14.09.14.09.14.14.11.28.23.34.21.37.18.39.16.42.17.39.13.74.23.55.23-.12-.43L92,56.8l-.21-.39-.2-.37-.46-.69-.46-.67-.21-.32L90.29,54l-.18-.33L90,53.32l0-.18,0-.18,0-.19,0-.18v-.21l0-.21,0-.2,0-.21v-.23l0-.26L89.88,51l0-.28-.09-.28-.09-.27-.14-.26-.14-.23-.18-.2L89,49.32l-.11-.07-.12-.07-.14,0-.14,0-.16,0H88l-.18,0-.19,0-.18.07-.21.07-.21.12,0-.07,0-.07v-.12L87,49l.07-.14.21-.3.23-.28.09-.14.09-.11,0-.12v-.11l0,0,0,0,0,0-.07,0-.21,0-.28,0,0-.32L87,47l0-.28-.07-.3-.07-.27-.09-.28-.12-.25-.11-.24-.28-.48-.3-.46L85.57,44l-.32-.41-.32-.41-.33-.42-.3-.41L84,41.92l-.12-.21-.09-.23-.09-.23L83.64,41l-.07-.25,0-.26,0-.25V40l-1.18,1.78-.14-.12-.13-.09-.17-.07-.2-.09-.39-.16L80.85,41l-.23-.12-.21-.13-.21-.17L80,40.42l-.18-.21L79.65,40l-.16-.27-.12-.3.44-.63.42-.53.18-.23.16-.23.14-.23.14-.23.09-.21.07-.23,0-.23v-.23l0-.27-.1-.26-.16-.3-.18-.32-.37-.07-.35-.09L79.49,35l-.3-.14-.3-.14-.28-.18-.25-.16-.25-.21L77.88,34l-.24-.2-.2-.23-.21-.23-.41-.47-.4-.46L76.06,32l-.42-.46-.21-.21-.2-.18L75,30.9l-.24-.16-.25-.16-.25-.16L74,30.3l-.3-.11-.3-.07L73,30.05,72.69,30l-.37,0-.3-.41-.3-.35-.32-.32-.34-.28-.35-.25-.37-.19L70,28l-.42-.14-.41-.11-.41-.07-.44-.05-.44,0H66.47l-.48,0-.93.07-1,.07-.95.07h-.92l-.46,0-.46,0-.44,0-.44-.1L60,27.56l-.44-.14-.39-.16-.39-.21-.28.1-.3.09-.3.07-.3,0-.32,0-.32,0-.32,0h-1l-.69-.07-.72-.07-.71-.12L52.07,27l-1.38-.23L50,26.62l-.62-.07-.62-.07-.58,0v-.58l-.12,0L48,25.79l-.19-.12-.18-.14-.39-.3-.44-.32-.23-.11-.21-.1-.11,0-.1,0h-.2l-.1,0-.09,0-.09.05-.07.07-.09.09-.07.11-.07.14,0,.14-.16,0-.14,0h-.36l-.12,0-.09-.05-.09,0-.19-.12L44,25l-.14-.16-.16-.19-.18-.2-.19-.19-.23-.18-.27-.19-.14-.07-.16-.06-.19-.07-.21-.05-.2-.05-.23,0-.23,0h-.28l-.14.25-.14.26-.09.23-.07.23-.07.2,0,.21v.35l0,.16.07.16,0,.14.09.16.09.11.12.14.11.14.14.12.62.5.72.51.37.3.36.32.37.37.35.42-.12,0-.11,0-.09,0-.1.05-.09,0L43.5,29l-.07.07-.07.06,0,.1,0,.09v.21l0,.09.05.11.07.12.09.09.11-.09.1-.07.07-.05.09,0h0l.07,0,.05,0,.07,0,.23.33.34.41.12.12.07.06,0,.1,0,.07L45,31v.07l0,.05,0,.07-.06.09-.07.14-.07.16,0,.19,2.38,1.17-.14.21-.14.21-.16.2-.18.19-.37.37-.35.36-.16.21-.14.21-.11.21-.1.23,0,.25v.28l0,.27.09.33,0,.3,0,.25.09.21.12.18.14.14.16.09.18.09.19.07.39.07L47,38l.19,0,.16,0,.16.07.11.11-.5.44-.53.44-.1.11-.09.12-.07.09,0,.11,0,.12,0,.11,0,.12.09.09,1.17-1.17.58.6v.11l-.05.09,0,.12-.07.11-.16.26-.19.25-.07.14-.07.16,0,.16,0,.16v.19l0,.18,0,.21.09.21v.09l0,.09,0,.09,0,.07.06,0,0,0,.07.05.09,0,.19.05.18,0h.44l.3.14.25.14.21.18.16.19.14.21.09.23.07.23,0,.23,0,.25v.53l0,.25,0,.49,0,.48-.09.07-.27.14-.1,0-.09,0h-.09l-.09,0-.12,0L49,46,48.91,46l-.11-.09,0,.26v.5l0,.26.06.23.07.23.1.23.11.2.14.21.14.21.16.18.16.19.37.39.39.35.85.71.86.71.39.37.37.39.16.21.14.21.13.21.12.2-.58.6,0,.3,0,.3.09.28.12.23.14.23.16.21.18.18.19.19.78.55.62.46.44.23.42.25.41.28.39.28.39.25.4.25.39.23.39.21.39.19.39.13.19.05.2,0,.19,0h.41l.19,0,.2,0,.21-.07.21-.09.23-.12.21-.11.2-.17,0,.21,0,.21,0,.18.05.16.07.17.07.13.09.14.11.12.12.11.12.1.16.06.13.07.19.05.18,0,.21,0h.21v.11l0,.12,0,.11,0,.12.14.2.16.23.39.44.37.44.16.23.1.21,0,.11,0,.12V62l0,.11,0,.12-.07.11-.09.09-.14.12-.13.11-.19.12-.21.11.33.21.27.26.26.23.2.25.42.48.37.46.2.23.21.19.23.18.26.14.27.14.33.09.36,0,.42,0-2.35-2.35.16-.07.14-.07.11-.11.1-.12.09-.14.07-.13.07-.17,0-.18.09-.37,0-.41.07-.44,0-.44,0-.44L67,60l.07-.2.07-.19.07-.2.12-.19.09-.16.14-.16.13-.16.19-.14.18-.12.21-.09.23-.09.28-.07L70.55,60l.37.12.3.12.25.11.23.12.16.13.14.12.09.14.07.14,0,.11,0,.14v.16l0,.14-.07.28L72,62.1l-.11.33-.07.3,0,.16v.16l0,.16,0,.16.07.16.1.17.13.16.17.16.23.18.25.16.3.16.37.17-.16.2-.16.19-.14.14-.16.11-.14.09-.14.1-.12,0-.13,0-.14,0-.12,0-.11,0-.14,0-.23-.12-.26-.13-.5-.4-.58-.37L70,64.36l-.35-.13-.2,0-.19-.05-.21,0-.2,0-.21.11-.16.12-.14.09-.11.07-.07.09,0,.09,0,.07v.07l0,.07,0,.07,0,.07.07.07.16.14.19.13.18.14.19.16.09.07.07.1.07.09,0,.09,0,.11v.21l0,.14,0,.12-.09.16-.11.14L68.8,67h.9l.92,0,.48,0,.46.07.46.09.44.12.44.16.41.18.21.12.18.13.19.12.18.16.19.16.16.19.16.18.16.21.14.21.14.23.11.25.12.28h.39L76,70l.37,0,.34.07.35.11.32.12.35.11.32.14.3.16.32.19.3.18.28.19.57.41.58.42,1.08.89,1,.88.53.39.53.37.25.16.28.14.28.14.27.11.09.14.1.12.09.14.07.16.11.3.12.32.11.34.14.3.07.17.07.13.09.12.12.11-.51.56-.53.48-.53.46-.55.42-.58.39-.57.34-.58.33-.6.3-.62.27-.62.28-.63.23-.64.21-.65.2-.64.19-.65.18-.66.16L75,82.94l-1.34.32-1.33.3L71,83.91l-.66.18-.65.21-.67.2-.64.23-.63.26-.62.25-.62.3-.62.32-.28-.16-.27-.11-.3-.12-.28-.07-.3-.07-.28,0-.3,0h-.3l-.59,0-.63.09-.62.1-.62.13-.65.14-.64.14-.65.12-.64.09-.35,0h-.64l-.32,0-.35,0L56.52,86,56.19,86l-.34-.1-.78-.43L54.26,85l-.83-.42-.85-.39-.86-.37-.87-.32-.44-.14L50,83.21l-.43-.11L49.1,83l-.44-.07-.44-.09-.46,0-.44,0h-.85l-.44,0-.43,0-.42.07-.44.09-.41.12-.42.16-.39.16-.41.21-.39.23-.4.25,0,.21,0,.2.07.19.09.18.12.16.14.17.14.16.16.14.74.53.76.48.18.14.16.11.14.14.14.14.11.14.09.16.07.14,0,.18,0,.16,0,.19,0,.2-.07.21-.13.21-.16.23-.21.25-.26.28,0,.11,0,.1,0,.11,0,.12.14.23.18.21.26.23.3.2.36.23.42.21v.44l0,.21,0,.16-.05.09,0,.07-.05.07-.06,0-.07,0-.07,0-.1,0h-.11l.07.16.09.16.09.14.1.14.25.23.28.23.57.37.55.34.21.16.19.19.06.09.07.09,0,.09,0,.1,0,.11,0,.12,0,.11-.09.12-.12.13-.14.14-.16.16-.21.17.23.09.28,0,.3,0,.32,0h.69l.67,0,.32.05.33.07.14,0,.11,0,.14.07.11.09.1.09.09.1.09.13.07.14,0,.14,0,.18,0,.19,0,.21-.35.5-.16.28,0,.07v0l0,0,0,0,.07,0,.07,0,.06.1.07.11.07.16,0,.26,0,.3,0,.39,1.17-1.18,1.75,2.35.12.12.14.09.14.07.13.07.17,0,.16,0,.16,0H56l.16,0,.16,0,.16,0,.17-.07.13-.07.12-.09.11-.12.28.26.28.23.3.2.27.16.3.14.28.12.3.09.3.07.27.07.3,0,.3,0h.88l.58,0,.57-.07.58,0,.55,0,.53,0,.28,0,.25,0,.25,0,.26.07.23.06.23.12.23.12.23.16.44,0,.41,0h.21l.16,0h.18l.14,0,.14,0,.09,0,.07-.11.07-.12v-.37l-.05-.25-.09-.3.09-.21.12-.16.09-.16.12-.09.09-.09.09-.07.09,0,.1,0h.09l.09,0,.09,0,.09.07.19.14.21.18.18.19.21.2.23.21.23.19.11.07.12.06.14,0,.14,0,.13,0h.16l.17,0,.16,0,.16-.21.18-.18.19-.14.2-.14.21-.12.21-.09.23-.09.21,0,.48-.09.48,0,.51,0h1.06l.53,0,.53-.05.51-.07.27-.07.26-.06.23-.1.25-.11.26-.14.23-.16.23-.19.2-.2,0-.21-.07-.23-.09-.19-.09-.18-.21-.25-.09-.12.16-.14.16-.13.14-.12.14-.09.14-.07.13,0,.14,0,.12,0h.11l.12,0,.11,0,.12,0,.18.11.21.14.37.39.37.42.2.18.19.19.21.18.2.12V99.6l.07-.88.07-.5.12-.49.07-.21.06-.2.1-.16.11-.12.51.44.51.51.11.13.07.16.07.14,0,.19,0,.16,0,.21-.07.18-.07.23h.2l.21,0,.21,0,.18,0,.07,0,.07,0,.07,0,0,0,0-.07.05-.07v-.09l0-.12.69,0,.79,0h.41l.39,0h.42l.39,0,.37,0,.37,0,.32.1.3.14.14.06.14.1.11.09.12.11.11.12.07.14.09.14,0,.16,1.17-1.18.12.12.09.11.07.14,0,.14,0,.14,0,.14,0,.13,0,.16v.33l0,.32,0,.35,0,.34,0,.37,0,.37,0,.37v.37l0,.36.07.35.07.19.07.16.07.18.11.16-.16.16-.11.16-.1.17-.07.13,0,.17,0,.16v.14l0,.16,0,.13,0,.14.07.16.07.14.16.3.18.3.19.3.2.32.16.33.12.34.05.19,0,.18,0,.19v.18l0,.21,0,.2-.07.21-.11.21-.26.41-.23.4-.2.43-.19.44-.16.44-.14.46-.14.48-.09.46-.37,2-.34,2-.12.46-.09.49-.14.46-.14.46-.16.44-.18.43-.21.42-.23.41-.25.4-.3.36-.32.35-.35.32-.41.33-.44.27-.46.26-.53.23-.28-.1-.25-.06-.23,0-.23,0h-.21l-.19,0-.18,0-.18.07-.17.07-.16.09-.13.09-.14.12-.28.25-.25.23-.23.26-.26.2-.14.12-.11.07-.14.07-.14.07-.13,0-.17,0-.16,0-.16,0-.18,0-.19-.09-.2-.12-.21-.16-.35.28-.34.23-.37.21-.39.18-.4.18-.41.14-.41.14-.42.12-.44.09-.44.09-.46.07-.43.07-.93.11-.89.1-.93.07-.87.09-.85.11-.83.14-.42.07-.37.09-.36.12-.37.14-.35.13-.32.17-.3.2-.28.21-.39-.07-.37,0-.37,0-.34,0-.69,0-.65,0-.64.07-.63.09-.62.14-.6.12-1.22.3-1.27.25-.64.11-.69.07-.72.07-.76,0-.36.06-.37.1-.35.11-.34.16-.35.16-.32.19-.3.21-.3.2-.6.46-.55.49-.56.48-.5.46-.28.21-.25.21-.26.18-.27.16-.26.14-.25.14-.28.09-.27.07-.28,0h-.28l-.27,0-.3-.07-.3-.12-.3-.16-.32-.19-.33-.25-.2.12-.19.11-.16.12-.11.11-.12.12-.09.14-.07.13-.07.12,0,.14,0,.14v.13l0,.17,0,.27.05.3.14.62.06.65V136l0,.16,0,.16,0,.17-.07.18-.09.16-.09.16h.21l.18,0,.18,0,.17.1.13.07.12.11.11.12.12.13.18.33.17.32.13.35.14.36.14.35.16.35.09.13.1.17.11.13.12.12.13.09.14.09.19.07.16.07.21,0h.46l.27,0,0,.3,0,.25-.07.21-.06.16-.12.14-.11.09-.17.07-.13,0-.19,0h-.37l-.2,0-.42,0-.46,0v.6l.28.26.36.34.44.37.46.35.26.16.25.14.28.11.25.07.25.07h.37l.12,0,.11,0,.12-.05,0-.3,0-.27,0-.21,0-.18,0-.14,0-.12,0-.07.1,0,.07,0,.09,0,.11,0,.12.05.27.14.28.18.32.18.33.21.32.19.34.11.17.05.13,0h.16l.14,0,.16-.05.12-.07.14-.11.11-.16.07.2,0,.19v.18l0,.14-.07.14-.09.11-.09.12-.12.11-.11.1-.09.11-.1.14-.07.11,0,.17v.16l0,.18.07.21.12.18.14.14.14.12.16.07.18,0h.37l.23,0,.46-.07.53,0h.28l.3,0,.3,0,.32.09v-1.17l.41.18.37.14.16,0,.16,0,.14,0h.14l.12,0,.11,0,.12,0,.09,0,.16-.12.16-.16.12-.18.11-.19.12-.23.09-.23.16-.46.21-.48.11.16.1.13.11.1.09.07.1.07.09,0,.09,0H62l.1,0,.09,0,.07-.07.16-.11.18-.16.33-.35.34-.3.09,0,.1-.07.09,0,.09,0h.21l.11,0,.09.05-.57-.58v-.11l0-.09,0-.07.05-.1.12-.11.16-.12.18-.11.19-.12.23-.16.2-.21.58,1.2v.1l-.07.18-.07.11-.09.1-.07,0-.09,0-.07,0h-.12l.42,0,.37.07.34.07.35.07.16,0h.51l.18,0,.21-.07.18-.07.23-.09-.09-.12-.07-.09v-.23l.05-.09.07-.09.09-.1.09-.09.25-.16.26-.11.27-.07.26,0,.2.21.21.16.19.12.2.09.19.07.16,0h.16l.19,0,.16-.05.13,0,.17-.07.16-.09.3-.24.3-.23.3-.25.32-.23.16-.11.18-.1.17-.09.18-.07.21,0,.2,0h.21l.21,0,.23,0,.25.07.26.12.27.13-.6-1.17.28.11.25.07.23.05.23,0h.21l.19,0,.18-.05.18,0L76,140l.13-.07.17-.12.13-.11.28-.26.25-.3.49-.62.53-.62.14-.16.16-.14.16-.12.16-.11.18-.12.19-.09.21-.07.2-.07.58.58.57.09.56.07.6,0h1.77l1.22,0h.6l.6,0,.6.07.6.09.3.05.3.07.27.09.3.09.28.12.3.14.28.14.27.13.26-.13.23-.12.18-.07.18,0,.14,0,.12,0,.09,0,.07.05.07.09,0,.11,0,.12v.48l0,.37,0,.39,0,.42,0,.39,0,.39,0,.19.05.16.09.16.09.14.14.14.14.11.18.09.21.07-.6.58.21.28.18.27.14.26.1.27.09.26.07.25,0,.28v.5l0,.26,0,.25-.07.25-.16.49-.21.5-.48,1-.46,1-.21.51-.16.53-.07.25-.05.28,0,.25,0,.28-.09.18,0,.18,0,.19,0,.18,0,.21.07.21.09.23.09.21.58.92.59.94.12.23.14.23.09.23.09.23,0,.21,0,.23,0,.21,0,.18-.07.21-.09.19-.16.16-.19.16-.25.16-.3.14-.35.14-.41.11-.19.49-.2.43-.23.42-.26.37-.3.34-.3.32-.32.3-.34.28-.37.25-.37.23-.39.21-.42.21-.83.37-.85.34-.85.33-.83.32-.44.18-.39.17-.42.2-.36.19-.4.23-.34.23-.35.23-.34.27-.3.3-.28.3-.25.35-.26.37-.3-.19-.3-.13-.27-.1-.26,0-.23,0-.2,0-.21.07-.21.09-.18.14-.19.14-.18.18-.18.18-.4.4-.41.43-.16.16-.16.14-.17.1-.13.09-.16.07-.17.07-.13,0-.14,0-.3,0-.3,0-.3-.07-.3-.07-.3-.09-.32-.07-.33-.07-.34,0h-.37l-.18,0-.19,0-.21,0-.2.07-.21.07-.21.11-.11.3-.14.26-.16.23-.16.18-.19.14-.18.11-.19.1-.2,0-.21,0H68l-.23,0-.46-.05-.46-.09-.49-.07-.44-.05h-.41l-.21.05-.18.07-.19.07-.16.11-.14.16-.13.19-.14.23-.09.25-.1.32-.07.35-.92.23-.92.25-.9.28-.9.28-1.75.6-1.73.62-1.7.64-1.71.65-1.68.64-1.66.6-.85.28-.85.28-.83.25-.85.23-.88.21-.85.18-.88.19-.87.13-.9.12-.9.07-.92.07H39.7l-.92,0-1,0-1-.12-1-.14-.46.33-.46.3-.46.25-.48.28-1,.46-1,.44-1.08.46-1.06.46-.56.25-.55.28-.55.3-.56.32-.16-.12L27.3,181l-.18,0-.16-.05H26.4l-.18.05-.37.09-.39.14-.37.18-.39.19-.39.18-.39.19-.37.18-.37.14-.37.12-.37.06H22.1l-.19,0-.16,0-.12-.1-.11-.09-.14-.05-.16,0h-.14l-.14,0-.16,0-.14,0-.13.07-.12.07-.11.09-.1.1-.07.09-.07.11,0,.12v.09l0,.3-.07.42-.05.5,0,.56,0,.27,0,.26.05.27.07.23.09.23.12.21.09.07.07.09.11.07.09,0,.6-1.75.21.11.19.12.18.16.16.14.16.16.14.18.14.19.11.18.23.39.19.44.18.41.16.44.17.46.18.42.18.41.23.42.12.18.14.19.14.16.13.16.19.16.18.14.19.14.2.11-.11.21L25,191l-.16.18-.18.19-.37.34L24,192l-.16.16-.14.16-.11.18-.1.17,0,.18v.21l0,.18.09.23H24.7l-.6,1.75h.21l.2,0,.19,0,.18,0,.33.11.3.14.25.19L26,196l.23.23.21.21.12.21.11.18.12.16.13.16.12.12.11.11.14.1.14.09.25.11.28.12.28.07.27,0,.28.05.25.07.28.11.28.12.11.09.14.09.12.12.13.11.12.14.11.19.12.18.11.21,1.78-1.78h.44l.41,0,.39,0,.37,0,.16,0,.14,0,.12.07.11.05.09.07.05.07,0,.09,0,.11.07-.11.14-.26,0-.09,0-.09v-.09l0-.12,0-.09,0-.12-.07-.11L34.7,197l0-.33.1-.25.09-.21L35,196l.12-.14.14-.11.14-.07.16-.05.16,0h.18l.19,0,.18.05.39.12.42.18.41.21.42.2.39.17.39.13.18.05.19,0h.18l.16,0,.14-.05.16-.09.12-.09.11-.16v-2.35l.12-.16.11-.14.12-.12.12-.11.13-.09.12-.1.14,0,.11-.07.26-.07.25,0h.25l.26,0,.25.07.23.09.23.1.21.13.37.26.25.23,0-.16,0-.16,0-.14,0-.14,0-.14.07-.11.07-.14.09-.1.21-.2.21-.16.25-.14.28-.09.27-.07.3,0h.28l.3.05.27.07.28.14.25.14.26.2.11-.09.16-.09.21-.09.21-.1.46-.16.46-.2.21-.12.18-.14.16-.16.14-.16,0-.12,0-.09,0-.11,0-.14V191l0-.16,0-.14,0-.16,1.17,1.18L54.1,187l1.75,1.75v-.19l0-.16,0-.11,0-.12.07-.11.11-.12.14-.16.21-.21h.21l.23-.07.23-.07.2-.09.49-.23.48-.18.23-.07.28-.05.25,0,.28,0,.16,0,.14.05.14.07.16.07.16.11.14.12.16.13.16.14,0-.09v-.09l0-.09,0-.07.09-.16.12-.14.11-.19.1-.23,0-.14,0-.16,0-.18v-.21l-.12-.09-.11-.09-.09-.05-.12,0-.23-.05H60l-.23,0-.09,0-.12,0-.11-.07-.12-.12.12-.14.11-.13.12-.12.09-.09.12-.07.11-.05.12,0,.09,0h.21l.2,0,.21.09.21.09.37.23.32.21.16.07.14,0,.07,0h.07l0,0,.07-.05.12-.25.11-.23.14-.21.14-.18.16-.14.14-.14.16-.12.16-.09.19-.07.16-.07.16,0,.18-.05.35-.07.32,0,.32,0,.33-.05.25,0,.25-.09.1-.07.09-.09.09-.09.07-.12,0-.13,0-.14,0-.19,0-.2,0-.24.07-.2.09-.19.1-.18.18-.35.23-.32.28-.28.27-.25.3-.23.35-.21.32-.16.35-.18.37-.14.34-.14.72-.25.69-.21.2.3.24.23.2.16.23.14.23.07.21,0,.23,0,.21,0,.44-.09.46-.11.2-.07.23,0,.21,0,.23,0,.12-.3.11-.28.14-.25.14-.21.16-.19.16-.13.16-.14.16-.09.19-.1.16,0,.18,0,.19,0h.39l.39,0,.76.14.72.14H79l.16,0,.16,0,.14,0,.14,0,.14-.06.11-.07.12-.1.32.19.3.16.25.11.26.1.23,0h.21l.18,0,.16,0,.16-.07.16-.09.14-.12.12-.11.23-.3.23-.33.23-.32.23-.32.14-.16.11-.14.16-.14.16-.12.17-.11.18-.07.21-.07.23,0H85l.25,0,.3.05.33.09.37.39.3.3.09.14.09.11,0,.12,0,.11,0,.12v.12l0,.11,0,.14-.14.3-.19.39H87V177l.32.1.33.07.3,0h.62l.3,0,.27,0,.3-.07.28-.09.28-.12.27-.11.26-.14.53-.3.48-.32,1-.67.94-.6.21-.14.23-.11.23-.12.23-.09.21-.07.23-.07.21,0h.23l-.6-1.2.11-.14.14-.14.14-.13.14-.12.14-.09.16-.09.16-.07.16-.07.35-.14.36-.09.35-.07.37-.09.34-.1.35-.09.32-.14.3-.16.14-.09.14-.12.11-.11.12-.16.09-.14.09-.19.07-.18.07-.21.83-.2.74-.17.67-.13.62-.17.3-.09.3-.09.3-.09.27-.14.3-.14.33-.16.3-.18.32-.21.6-.09.57-.05.58,0,.55,0,.53.05.51.07.51.11.48.14.48.16.46.18.46.24.44.23.42.27.41.28.39.3.4.32.39.35.37.34.36.37.35.39.35.39.34.42.32.41.33.42.62.87.57.88.58.9.58.87.48,1.36.51,1.39.25.69.23.69.19.69.16.69.07.35,0,.34,0,.35,0,.32v.35l0,.32,0,.32-.06.33-.07.32-.1.32-.13.3-.14.3-.19.3-.2.3-.23.28-.26.27-.44.26-.41.23-.42.16-.41.14-.41.09-.4.07-.36,0h-.4l-.37,0-.36,0-.37-.07-.37-.07-.74-.21L112,188l-.72-.25-.71-.26-.74-.23-.76-.2-.37-.07-.39-.07-.39-.05h-.81l-.41,0-.44.07-.44.1v-.6l-.2,0-.24,0-.2,0-.21,0-.21,0-.2,0-.21-.07-.21-.05-.39-.16-.42-.18-.39-.21-.41-.23-.42-.21-.43-.2-.44-.21-.46-.14-.23-.07-.23,0-.26,0-.23,0-.25,0-.28,0-.25,0-.28,0-.27-.21-.28-.19-.28-.16-.3-.14-.27-.09-.3-.09-.3-.09-.28-.05-.3,0-.3,0-.27,0h-.3l-.6,0-.58.05-1.13.11-1.1.1H91.4l-.25,0-.26,0-.25,0-.23-.05-.23-.09-.23-.09-.53.23-.53.28-.51.32-.51.35-.46.36-.46.4-.41.41-.42.44-.37.44-.34.46-.3.46-.28.48-.25.46-.21.46-.16.46-.14.47-.43.32-.42.34-.39.35-.39.35-.74.71-.71.71-1.34,1.48-1.31,1.45-.67.72-.69.69-.35.34-.39.32-.37.33-.39.32-.42.3-.41.3-.44.28-.46.27-.46.28-.51.25-.5.23-.56.23v.21l0,.18,0,.19,0,.16-.07.14-.07.11-.09.12-.09.09-.21.19-.21.13-.23.14-.23.09-.21.12-.2.14-.07.07-.07.07-.07.07-.05.09,0,.11,0,.12v.25l0,.16.05.19.07.18.11.21-.23.3-.23.28-.21.25-.23.21-.23.16-.23.16-.23.14-.25.11-.51.21-.55.16-.58.16-.64.21v.21l0,.2,0,.19-.07.18-.07.16-.12.17-.11.13-.12.14-.14.12L65,208l-.16.12-.16.11-.39.19-.39.18-.86.3-.87.3-.44.16-.41.16-.37.19-.37.21-.16.27-.19.26-.18.23-.21.23-.21.23-.2.2-.23.21-.23.19-.49.36-.5.33-.51.3-.55.27-1.13.53-1.16.53-.57.26-.58.27-.57.3-.56.33.21.11.16.14.14.18.12.16.18.37.16.35.07.16.12.14.11.11.14.1.18,0h.21l.25,0,.3-.09-1.17,1.17h.6v-.09l.07-.18.07-.12.09-.09.07-.05.09,0,.09,0h.55l.24,0,.27,0,.28.06.32.12.37.14.41.18-.2.21-.21.16-.21.12-.18.11-.14.12L56,219l0,.07-.05.09v.1l0,.09h.23l.21,0,.23,0,.2,0,.21-.05.19-.07.18-.07.16-.09.16-.07.14-.09.14-.09.11-.12.07-.09.07-.12.05-.11v-.12L57,217l1.18-.58h.6l.11,0,.14,0,.14.09.14.09.32.23.32.26.16.09.17.09.16,0,.16,0h.07l.07,0,.07,0,.06-.05.07-.07.07-.07,0-.07.07-.11.16.25.16.23.14.19.14.13.14.12L62,218l.14.07.12,0h.25l.12,0,.11,0,.23-.14.21-.18.23-.21.23-.19.23-.2.23-.14.14-.07.11,0,.14,0h.14l.14,0,.16,0,.14.06.16.1-.14.23-.11.18-.1.19-.07.16,0,.16,0,.11v.14l0,.12,0,.09,0,.09.07.09.09.07.21.12.23.09L66,219l.48.09.21.05.19.07,0,0,0,.05,0,0v.05L65.85,217l.16-.21.16-.16.16-.14.16-.12.14-.06.16-.07.14,0,.14,0,.14,0,.14,0,.13,0,.14.07.26.16.25.21.48.46.46.49.23.2.21.16.12.07.11,0,.12,0H70l.21-.27.18-.17.07-.06.1,0,.06,0h.14l.07,0,0,0,.07.07.11.11.12.16.09.17.11.18.14.16.12.14.07.05.09,0,.07.05.09,0h.19l.09,0,.11-.05.16-.21.19-.2.16-.19L73,218l.37-.3.41-.25.41-.21.42-.21.41-.16.42-.16.41-.18.4-.17.39-.2L77,216l.19-.12.16-.13.16-.14.14-.16.16-.16.11-.19.14-.21.12-.2.27.37.28.29.3.24.3.2.3.14.3.12.32,0,.3.05h.32l.33,0,.3,0,.32-.07.64-.16.65-.19.62-.18.62-.16.3,0,.3,0h.3l.28,0,.3.07.27.09.26.17.27.18.26.23.23.28.23.37.23.39,0,.2v.21l0,.16,0,.16.05.14.07.12.07.11.09.1.09.09.09.07.1.07.11,0,.23.09.23.07.51.1.48.09.23.09.19.11.09.07.07.07.07.1.07.09-.16.34-.12.33-.09.32-.07.34,0,.33,0,.32,0,.35V222l.1,1.29.09,1.29v.62l0,.32,0,.3,0,.33-.07.3-.09.29-.12.3-.16.3-.19.3-.2.3-.26.28-.27.3-.35.28-.37.27-.41.28-.12.32-.18.32-.19.28-.23.28-.23.27-.27.23-.26.23-.27.21-.28.19-.28.16L85,232l-.25.11-.21.09-.21.05-.16.05-.14,0-.32.21-.35.18-.34.18-.32.14-.35.16-.34.12-.37.11-.35.1-.69.18-.71.14-.72.11-.71.12-.72.12-.71.13-.72.14-.71.16-.35.12-.34.11-.35.12-.34.14-.35.16-.34.18-.33.19-.34.2-.07.42-.09.37-.14.32-.16.28-.19.25-.2.18-.23.19-.26.14-.27.11-.28.12-.3.07-.3,0-.62.1-.62.06-.65,0-.6.09-.27.07-.28.07-.25.09-.26.12-.21.16-.2.16-.16.21-.17.23L66,240l-.09.32,0,.37,0,.41h-.37l-.37,0-.37,0-.34,0-.33.07-.32.07-.32.09-.3.12-.6.2L62,242l-.55.25-.55.28-.55.27-.56.28-.57.25-.6.21-.3.12-.32.06-.33.1-.32.07L57,244l-.34.05-.37,0h-.39l-.28,0-.25,0-.25.07-.26.09-.25.09-.25.12-.24.13-.23.17-.48.32-.44.37-.43.37-.47.36-.43.35-.44.3-.23.14-.23.11-.23.12-.23.07-.23.07-.23,0-.26,0-.25,0-.25-.05-.26-.07-.27-.11L48.2,247l-.09.16-.14.14-.12.12-.13.11-.14.09-.14.1-.16.06-.14.07-.32.1-.33.06-.34.05-.37,0-.71,0-.74.1-.37.06-.35.12-.18.07-.18.07-.17.09-.16.09-.07.12,0,.09-.07.07-.07,0-.07.05-.07,0-.07,0h-.07l-.16,0-.16,0-.16-.09-.16-.1-.32-.25-.33-.23-.16-.09-.14-.09-.11-.05-.12,0-.23-.17-.2-.11-.21-.12-.21-.09-.21-.07-.2,0-.21,0-.19,0-.2,0h-.19l-.18.05-.21,0-.37.13-.34.17-.37.2-.35.26-.34.25-.35.25-.67.53-.64.49,0,.32,0,.28,0,.27,0,.23-.07.21-.09.19-.09.16-.1.16-.11.11L34,252l-.11.09-.14.09-.33.16-.32.12-.32.09-.35.12-.34.11-.35.16-.16.07-.16.12-.14.11-.16.12-.14.16-.14.16-.11.19-.12.2-.64.12-.62.14-.6.13-.58.17-.55.18L27,255l-.51.2-.51.26-.48.25L25,256l-.46.3-.46.32-.46.35-.44.39-.43.39-.44.44-.23-.16-.19-.12-.2-.09-.16-.05-.17,0-.16,0-.16,0-.14,0-.13.07-.12.07-.14.07-.11.12-.23.2-.21.26-.23.23-.23.25-.12.12-.11.09-.14.09-.14.07-.14.07-.14,0-.16.05h-.18l-.16,0-.19,0-.2-.07-.21-.09-.19.21-.16.18-.18.17-.16.16-.19.14-.18.11-.19.12-.18.09-.21.07-.18.07-.19,0-.2.05-.39,0h-.83l-.44,0-.42-.07-.43,0-.44-.05-.44-.05-.44,0h-.44v.21l0,.18,0,.14,0,.14-.05.11-.07.09-.07.07-.09.07-.07,0-.11,0h-.21l-.23,0-.23-.05-.51-.11-.48-.07H8.73l-.11,0-.1,0-.09.05-.07.07-.07.07-.06.11-.1.21,0,.21,0,.18,0,.19,0,.16,0,.16.09.14.12.14.5.5.51.46-.46.21-.51.21-.53.18-.55.14-.28.05-.27,0-.28,0H6.27l-.26,0-.25-.05-.25-.06-.21-.12.34-.35.3-.3.42-.41.69-.69-1.75-.6-.35.32-.34.28-.37.23-.35.23-.73.37-.74.34-.35.17-.34.16-.35.18-.3.21-.3.21-.3.25-.25.28-.23.3H1.77L0,270.52H.32l.28.07.28.09.23.12.23.16.18.16.16.21.16.2.12.23.11.23.1.26.06.25,0,.23.05.26,0,.23v.23l2.35-.58.12.09.06.12.07.11.07.12,0,.09,0,.12v.11l0,.09,0,.21-.07.18L5,274.3l-.09.18-.14.16-.11.14-.12.12-.11.11-.19.14-.07.07,0,.16.07.14.09.12.07.11.09.09.12.09.09.07.12.07.23.12.25.07.25.07.26.07.25,0,.23.07.21.09.18.1.07.06.09.07,0,.1L7,277l0,.09,0,.14,0,.14v.16l3-1.17.18.23.16.27.17.28.13.23.1.11.09.1.11,0,.12,0,.16,0,.14,0,.18,0,.21-.09.12,0H12l.07-.05.07,0,.13-.09.12-.12.11-.11.12-.1.07,0,.09-.05h.09l.1,0,.59.6.21-.21.23-.13.23-.12.21-.07.23,0,.21,0,.23,0h.21l0-.21,0-.18v-.39l0-.09,0-.07-.05-.07-.07,0-.07,0-.06,0-.1,0h-.18l-.21,0-.23,0-.23,0h-.25l-.21,0-.12,0-.11-.05-.09-.05-.1-.07-.09-.09-.07-.11-.07-.14-.06-.14.27.14.26.11.23.07.23,0h.2l.19,0,.18,0,.19-.07.16-.09.16-.12.16-.14.16-.14.28-.34.27-.35.28-.34.28-.35.16-.16.16-.16.14-.14.18-.11.16-.12.21-.07.19-.07.2,0h.23l.23,0,.26.07.27.09.21.3.21.25.18.23.16.16.19.14.16.12.14.07.14,0h.13l.14,0,.12,0,.11-.07.23-.16.23-.23.21-.28.23-.28.25-.25.26-.25.14-.12.16-.09.16-.07.16-.07.18,0,.19,0h.18l.23,0-1.17,1.18h2.92l.07-.26.07-.25.1-.21.09-.18.11-.16.12-.14.14-.14.13-.12.17-.06.13-.1.19-.07.16,0,.37-.07.37,0,.78,0,.81,0,.39-.07.39-.07.18-.07.19-.07.18-.09.16-.09.1,0,0,0V271l0-.07-.14-.21-.19-.27-.07-.14-.06-.14-.05-.14v-.16l0-.14.07-.14.07-.06.07-.05.07-.07.11-.05.12.26.11.23.14.18.12.16.14.14.16.14.14.09.16.07.14.05.16,0,.18,0,.16,0h.35l.34,0,.37,0,.37,0h.37l.37.07.16,0,.18.07.19.09.18.1.16.13.19.14.16.19.18.2.33.21.32.26.32.25.3.28.3.27.28.3.27.3.23.32.21.35.16.35.14.36.12.37,0,.42,0,.39v.21l0,.2,0,.23-.05.21.11.28.07.3.07.3.07.3.07.64.05.67v1.38l-.05.72,0,.71,0,.72v.71l0,.69,0,.69,0,.33.05.34.07.32.09.3.11.33.12.3.11.27.16.3-.36.05-.3.11-.28.12-.23.14-.21.16-.16.18-.14.21-.11.21-.07.23-.07.25,0,.25,0,.26,0,.55,0,.58,0,.57,0,.58,0,.28,0,.27,0,.28-.07.25-.07.26-.09.23-.14.2-.16.21-.18.19-.23.16-.28.14-.3.13,0,.23,0,.26-.07.27-.11.3-.21.63-.21.66-.07.33,0,.32v.32l0,.32,0,.14.06.14.07.16.07.14L36,299l.12.13.14.12.16.11h.34l.3,0,.23,0,.19.05.14.07.09.07,0,.06,0,.1,0,.09-.05.11-.09.12-.11.11-.28.28-.32.3-.33.3-.32.32-.14.19-.11.16-.12.18-.09.16,0,.19,0,.18,0,.16,0,.19.09.16.14.18.19.17.25.18-.14.37-.14.39-.09.39L36,305l-.05.39,0,.39v.76l0,.37.05.4.07.36.09.37.09.37.09.37.14.37.14.34.28.72.34.69.35.67.37.67.73,1.24.72,1.18H38.22v1.15l.21.28.23.32.21.34.23.33.11.11.1.09.11.07.12.05h0l.07,0,.05,0,.07,0,.09-.12L40,317l.12.17.14.16.11.11.16.14.3.21.33.18.32.16.34.12.35.11.35.12.32.11.3.12.27.14.23.16.12.07.09.09.07.12.07.11.07.12,0,.13.05.14v.16l.16,0,.16,0h.35l.16,0,.16,0,.16.05.18.07.33.16.34.21.35.23.37.25.37.23.36.26.37.23.39.23.4.18.41.14.21.05.21,0,.23,0H50v-.57l.33,0,.27,0,.26,0,.2-.07.21-.1.16-.09.16-.11.14-.12.09-.14.12-.16.07-.14.07-.18.11-.35.09-.36.07-.4.1-.41.13-.39.14-.37.12-.19.11-.18.14-.16.16-.16.16-.16.21-.14.23-.12.28-.14h.57l.1.23,0,.19,0,.21v.16l-.05.18-.07.14-.09.16-.09.14-.53.51-.51.46,0,.09,0,.09.07.07.07.07.12.07.11,0,.12,0,.14,0,.27.05.3,0h.53v-1.17l.21-.19.23-.13.12-.05.09-.05.11,0h.23l.12,0,.09.05.12.05.23.13.2.19,0-.44.07-.41.07-.42.11-.41.28-.81.34-.81.16-.43.17-.42.13-.44.14-.46.12-.46.09-.48.05-.53,0-.53.09-.12.09-.11.07-.14.05-.12.09-.3,0-.3v-.32l0-.32,0-.35,0-.34-.07-.37-.05-.37,0-.37v-.37l0-.37.09-.34,0-.19.07-.16.09-.18.09-.16.44-.46.42-.51.39-.53.37-.55.34-.6.3-.63.14-.3.12-.32.11-.32.09-.35.09-.32.1-.34,0-.33.07-.34,0-.35,0-.34,0-.35,0-.35,0-.34-.05-.35,0-.32-.09-.35-.09-.34L62,297l-.13-.32-.17-.34.12-1,.09-1,0-1,0-1.06,0-1.06,0-1.06,0-1.08-.09-1-.07-.53-.07-.51-.09-.53-.1-.5-.09-.49-.11-.5-.14-.49-.14-.48-.16-.46-.19-.46-.18-.47-.21-.43-.21-.44-.23-.42-.25-.41-.28-.39,0-.69-.05-.7-.11-.66-.14-.63-.18-.62-.19-.62-.25-.58-.25-.57-.28-.58-.3-.53-.32-.55-.35-.53-.71-1-.74-1-.74-1-.73-1-.35-.53-.35-.51-.32-.53-.3-.55-.3-.53-.27-.56-.23-.57-.21-.58-.19-.6-.16-.62-.11-.62-.07-.67.44-.62.46-.58.23-.28.25-.25.25-.25.28-.21.28-.23.3-.18.32-.19.32-.18.37-.16L55,259l.41-.14.42-.12.64.19.6.14.28.07.28,0,.27,0h.56l.27,0,.3,0,.28-.07.6-.14.62-.19,0-.41,0-.37v-.32l0-.28.05-.23.09-.21.09-.16.11-.14.12-.11.16-.07.16-.07.19,0,.37-.05.43,0,.46,0,.46,0h.49l.23,0,.23,0,.23-.05.23-.07.23-.09.21-.12.21-.16.2-.16.19-.23.16-.25v-.32l0-.28,0-.25.07-.21.07-.21.09-.16.12-.14.13-.14.14-.09.14-.09.16-.07.16,0,.37-.09.37,0,.78,0,.79-.07.18,0,.16-.05.19-.07.16-.06.14-.1.16-.11.11-.14.12-.16.11-.35.12-.32.11-.3.1-.23.11-.21.12-.18.11-.14.12-.12.11-.09.14-.07.12,0,.11,0h.25l.28,0,.28.07.3.07.32.06.34.05h.17l.18,0,.18,0,.19-.06.21-.07.2-.1.21-.11.21-.16-.58-1.18.21-.09.23-.07.21-.05.23,0H76l.23,0,.2.05.44.12.46.11.44.16.44.14.44.14.43.09.23,0h.44l.23,0,.21,0,.23-.07.21-.09.23-.14.2-.14.24-.18.2-.23.23-.25.44.23.42.23.41.25.41.25.81.58.83.58.83.62.9.64,1,.65,1,.67.12.34.09.35.07.34.07.37.11.74.07.78.12,1.59.09,1.66.07.83.09.81.12.83.16.78.09.39.09.4.14.36.14.37.14.37.18.35.19.34.2.35H91l-.09,0-.09,0-.07,0-.12.09-.11.12-.12.09-.14.09-.07.05-.06,0-.1,0H90l.25.34.19.32.13.33.1.32,0,.3,0,.32,0,.3-.07.3-.09.32-.12.28-.12.3-.16.3-.3.57-.32.56-.14.27-.14.28-.11.25-.09.28-.07.25,0,.26v.25l0,.25L89,273l.14.23.18.23.23.25.3.23.37.23.44.23.5.21-.34.12-.32.13-.26.17-.23.16-.18.16-.14.21-.12.18-.07.21,0,.23,0,.23v.23l0,.23,0,.23.05.25.07.26.09.23.35,1,.27.92,0,.21,0,.18v.21l0,.16,0,.16-.07.16-.11.14-.16.12.41,0,.35.05.16,0,.14.05.11.07.12.07.21.13.16.19.14.18.11.23.21.46.21.49.11.25.14.23.16.26.21.2-.07.16,0,.14-.07.12-.07.07-.07.07-.06.07-.07,0-.1,0h-.16l-.16,0-.18-.07-.19-.1-.41-.25-.42-.21-.2,0-.23-.05h-.1l-.11,0-.12,0L90,284v5.58l0,.28-.05.27,0,.28-.14.53-.16.55-.39,1-.37,1-.14.46-.11.44,0,.2,0,.19V295l0,.18,0,.18,0,.17.07.16.12.16.11.14.14.13.18.12.21.12-.09.23-.09.2,0,.23,0,.23,0,.44,0,.44,0,.21,0,.23-.06.23-.07.21-.12.23-.11.2-.19.23-.18.23.14.21.13.23.12.23.09.23.07.23,0,.23,0,.26,0,.23,0,.5,0,.51,0,.51-.07.51,0,.53,0,.53,0,.55,0,.53,0,.28,0,.27.07.28.07.27.09.28.09.28.14.27.16.28.58-1.77h.25l.28,0h.3l.27.05.14,0,.12,0,.11.05.09.07.1.07.07.07,0,.09,0,.12-.62.43-.53.42-.46.39-.44.37-.23.16-.23.14L89,309l-.23.12-.25.09-.28.05-.3,0-.32,0,.16.09.14.11.09.1.09.11.07.09,0,.1,0,.09,0,.09v.16l0,.16-.07.14-.11.14-.23.28-.21.23-.07.11,0,.12v.07l0,0,0,.07,0,.05.11.2.1.23.06.24.07.2.1.44,0,.44v.41l0,.42-.07.41-.09.39-.12.37-.16.37-.16.35-.18.32-.21.3-.21.3-.21.25-.23.23v.23l0,.21,0,.19,0,.18.05.07,0,.09,0,.05.07.07.07,0,.06,0,.1,0H87l.09-.09.12-.07.11-.05.1,0h.11l.09,0,.1.07.09.07.07.09.07.12L88,319l0,.16,0,.16,0,.19,0,.21v.2l.09.05.11,0,.1,0h.16l.09,0,.07,0,.07-.05.14-.11.11-.14.12-.14.11-.16.12-.19.11-.13.12-.14.14-.12.07,0,.06,0,.07,0h.19l.09,0,.09,0,.12.05h.16l.14,0,.11,0,.12,0,.09,0,.09.05.07.07,0,.07.09.14,0,.18v.19l0,.23-.09.46-.12.48,0,.25-.07.23,0,.26,0,.23-1.17-.6-.09.21-.07.18-.05.16,0,.14V322l0,.09,0,.1.3.29.44.37L90,324l1.77,2.35-.25.21-.28.2-.32.19-.32.14-.16,0-.17,0-.16,0H89.9l-.16,0-.14-.05-.11-.09-.12-.09,0-.26,0-.23,0-.21-.07-.18-.07-.14-.09-.14-.12-.11-.11-.09-.14-.1-.14-.07-.14,0-.16-.07-.32-.07-.32-.05-.32-.07-.33-.06-.16-.05-.14,0-.13-.07-.12-.09-.14-.09-.09-.12-.09-.13-.09-.16-.07-.19,0-.18,0-.23v-.28l1.75-1.18v-.09l0-.09,0-.09,0-.07-.1-.14-.11-.09-.09-.12-.1-.14,0-.06,0-.07,0-.1v-.11l-.21.11-.2.14-.16.12-.17.16-.13.14-.12.16-.09.18-.09.16-.1.19,0,.18-.07.21,0,.18-.05.44,0,.42v.46l0,.46,0,.46,0,.46.06.46,0,.46,0,.46,0,.46h.23l.27,0,.3,0,.3.09.12.07.14.07.11.09.09.12.07.14.07.16,0,.18v.21l.09.32,0,.28v.28l0,.23-.07.23-.12.2-.11.19-.14.18-.28.3-.25.26-.12.13-.09.12,0,.11,0,.1.07,0,.07.05.07,0,.07,0h.16l.21,0,.41-.14.49-.16.25-.09.25-.05.26-.05.25,0,.14,0,.11,0,.14,0,.12.05.11,0,.12.07.11.09.12.1-1.18,1.17.23.32.28.3.28.26.3.25.32.23.37.21.34.18.39.16.4.17.39.16.41.14.44.11.85.23.88.23-2.93.6-.16.25-.11.28-.12.23-.07.25,0,.23,0,.24,0,.23,0,.2v.21l0,.21,0,.18,0,.19.16.39.18.34.42.72.39.71.18.37.14.39,0,.21,0,.21.05.21v.2l.2.05.21,0h.21l.18,0,.19,0,.16-.05.16-.07.16-.09.3-.19.28-.2.27-.23.26-.21.23-.23.25-.16.12-.09.11-.07.14,0,.12,0,.13,0h.12l.14,0,.14,0,.16.05.13.11.17.12.16.14-1.18,1.77.32.12.26.16.25.16.21.18.16.21.16.23.14.23L98,345l.2.5.16.51.17.51.2.46.37.09.32.05.28,0H100l.21-.05.19-.07.13-.09.14-.11.09-.14.1-.16.07-.16,0-.21.05-.42,0-.43,0-.49,0-.48,0-.23,0-.23.07-.23.07-.21.12-.21.11-.21.14-.16.16-.16.21-.14.23-.11.27-.09.33-.07V342l0-.21,0-.21,0-.16,0-.09,0-.07-.07-.07,0-.05-.07,0-.07,0-.09,0h-.11l-.16-.07-.12-.07-.11-.07-.12-.09-.07-.09-.07-.12,0-.11,0-.12,0-.11V340l0-.14.07-.27.09-.3.12-.3.14-.32.16-.3.16-.3.32-.58.28-.48-.05-.23,0-.23,0-.28,0-.28v-.57l0-.63.09-1.29.1-1.33,0-.67,0-.62,0-.3,0-.3,0-.28-.07-.28-.06-.25-.1-.23-.11-.23-.12-.21-.14-.18-.16-.16-.18-.14-.21-.14,1.75-.58v-1.36l0-1.38,0-1.38,0-1.38.07-1.39.12-1.29.07-.64.06-.6.1-.6.11-.58h.12l.11-.07.14-.09.12-.11.11-.14.12-.16.09-.19L105,316l0-.19v-.2l0-.21-.07-.18-.07-.1-.07-.09-.07-.07-.09-.09-.11-.07-.12-.07-.14-.07-.16,0,.39-.33.3-.27.23-.26.19-.2.09-.21.07-.21,0-.18v-1.09l.05-.27.09-.32.12-.37.18-.42-.09-.18-.09-.16,0-.21,0-.19,0-.2,0-.21v-.44l.09-.92.11-.95,0-.46,0-.46v-.2l0-.23,0-.21,0-.19,0-.2-.1-.19-.07-.16-.11-.16-.14-.16-.16-.14-.18-.14-.21-.11.11-.07.1-.07.06-.09.07-.1.12-.23.07-.25,0-.3,0-.32,0-.35v-1.08l0-.35,0-.34.06-.33.12-.32.07-.14.07-.13.09-.12.09-.12h-.09l-.28.07-.16.07-.2.12-.21.14-.23.2-1.18-1.19.12-.1.14-.07.13,0,.14,0,.3-.07.28,0,.14,0,.11,0,.12-.05.09-.09.09-.09.07-.14,0-.16,0-.21-.16-.16-.12-.19-.09-.2-.07-.21,0-.21,0-.23v-.46l.09-1,.14-1,0-.49,0-.46,0-.23,0-.21-.07-.2-.09-.19-.12-.18-.13-.16-.19-.16-.21-.14-.23-.12-.3-.11-.29-.07-.37-.07.57-.6,1.18.6.16-.28.09-.23.09-.23.05-.23,0-.18v-.19l0-.16,0-.16-.07-.14-.07-.14-.09-.14-.12-.11-.23-.23-.25-.23-.25-.23-.21-.23-.09-.12-.07-.14-.07-.13,0-.14v-.33l0-.18.07-.21.09-.2.11-.24.16-.23.21-.27,0-.49,0-.57,0-.3,0-.3v-.32l-.05-.3-.07-.3-.11-.28-.07-.14-.07-.14-.09-.13-.1-.12-.11-.11-.12-.12-.13-.12-.14-.09-.16-.09-.19-.07-.21-.07-.2-.07,0-.11,0-.12,0-.11,0-.14,0-.28,0-.27-.12-.6-.11-.56,0-.27,0-.26v-.2l0-.21,0-.09,0-.07.07-.07.09-.05.09,0,.12-.05h.14l.16,0,.09,0h.09l.09.05,0,0,.07.05,0,.07,0,.07,0,.07,0,.18,0,.21v.41l.21-.32.16-.37.16-.34.12-.37.07-.4.07-.39,0-.39,0-.41v-.83l0-.44,0-.42-.1-.85-.09-.85-.11-.85-.1-.83,0-.42,0-.41,0-.39,0-.4,0-.37,0-.36.07-.35.1-.35.11-.34.14-.3.16-.3.21-.3.09-.41.05-.44,0-.42v-.39l0-.39-.07-.37-.09-.37-.09-.37-.25-.69-.26-.69-.27-.67-.26-.67.28-.16.23-.18.23-.21.18-.21.19-.2.16-.23.14-.26.11-.25.12-.25.07-.26.09-.27,0-.28.09-.55,0-.58,0-.58,0-.57,0-.58-.05-.57-.09-1.09,0-.94.2-.33.17-.32.13-.32.1-.32.06-.33.07-.32,0-.3V250l0-.32,0-.3,0-.3-.09-.62-.12-.6-.09-.6-.07-.62,0-.3v-.3l0-.33,0-.3.07-.32.09-.3.12-.32.16-.32.18-.3.23-.33.28-.34.3-.32-.07-.42-.05-.41,0-.37,0-.35L107,241l.14-.3.16-.3.21-.26.23-.25.25-.25.3-.21.3-.23L109,239l.34-.18.35-.18.37-.17,1.52-.62,1.49-.6.35-.16.35-.14.29-.18.3-.16.28-.19.23-.18.23-.21.19-.21,1.17,1.76.16-.26.19-.21.18-.2.19-.14.2-.14.21-.11.21-.07.23-.07.21-.05.23,0h.2l.23,0,.44,0,.42,0,.41,0h.37l.16,0,.16,0,.16-.07.14-.07.14-.07.11-.11.1-.17.09-.16,0-.2.06-.23,0-.28v-.3l.6.58.32-.1.3-.07.3,0,.3,0h.53l.25,0,.25.05.23.05.24.07.23.09.2.09.42.23.39.25.76.6.74.63.37.32.39.3.41.27.42.23,4.7-1.17.07-.16.06-.16.1-.14.09-.14.23-.28.28-.25.3-.23.32-.23.32-.21.37-.18.71-.37.69-.37.35-.21.3-.18.28-.21.23-.21,1.17,1.18.12-.23.07-.21,0-.23,0-.21,0-.46,0-.44.05-.2,0-.23.05-.21.09-.23.09-.21.14-.23.16-.23.19-.21.41-.23.39-.18.16-.07.19-.07.16,0,.16,0,.16,0,.19,0,.16.07.18.12.19.16.18.21.21.25.21.3.2-.21.14-.23.14-.21.09-.23.12-.23.14-.2.16-.23.18-.21.28.11.23.12.23.16.21.14.2.16.19.18.16.19.16.18.28.39.25.42.23.44.23.43.21.44.25.44.25.42.28.41.16.18.16.19.19.16.18.16.23.16.21.14.25.14.28.11-.09.44-.05.39,0,.4,0,.36.05.35.07.32.11.33.12.29.16.3.16.28.18.28.19.25.41.51.44.51.44.48.41.53.21.25.19.28.16.28.14.3.13.29.1.3.09.35,0,.35,0,.36,0,.4,0,.39-.09.44.25.27.23.28.23.3.18.3.17.3.16.3.13.3.12.3.21.62.16.6.14.62.14.58.16.57.16.53.09.26.09.25.14.25.12.23.16.21.16.21.18.18.23.19.23.16.26.16.27.14.33.11,0,.56,0,.53.12.5.12.51.16.48.18.49.23.46.23.44.25.43.28.42.3.41.3.4.3.36.32.37.35.37.32.32-.05.28,0,.28v.55l.05.28,0,.27.05.28.07.25.09.28.12.28.11.27.12.26.27.55.33.51.34.53.37.5.37.51.39.51.76.94.71.92.24.49.25.57.11.3.1.33.07.32,0,.34V272l0,.32-.05.16,0,.16-.05.16L167,273l-.09.16-.09.14-.14.14-.12.14-.16.14-.16.11-.21.14-.2.12-.12.11-.11.18-.14.19-.12.23-.14.23-.09.28-.09.25-.07.28,0,.27v.28l0,.25.07.26.07.11.06.09.07.12.1.09.11.09.12.07.13.07.17.07-.12.28-.09.2-.07.07-.05.05-.07.05h0l-.12,0-.11-.05-.09-.09-.12-.09-.23-.23-.21-.21-.11-.07-.12,0h-.11l0,0-.05.05-1.17,1.18,0,.89-.07.9-.07.95-.09.94-.23,1.94-.19,1.93-.07,1,0,1v.94l0,.9,0,.46,0,.44.07.44.09.41.1.44.11.39.14.42.16.39.11.3.12.27.16.24.16.2.16.19.19.16.21.14.2.11.46.19.53.18.58.16.64.21H166l-.16,0-.14.05,0,0,0,.05v.11l0,.05,0,.09.07.09.1.1.11.2.09.14.07.09.07.05.07,0,.07,0,.05-.05.06-.07.12-.18.12-.25.06-.14.1-.14.09-.12.09-.11.23.14.21.14.21.09.18.07.21,0,.18,0h.19l.16,0,.18-.05.16,0,.19-.07.16-.09.3-.19.32-.25.6-.51.58-.51.3-.2.29-.16.17-.07.16-.05.16,0,.16,0v1.53l0-.28.05-.32.07-.33.07-.16.07-.16.11-.16.09-.16.14-.16.16-.14.19-.12.21-.11,1.17,1.75.21-.12.2-.11.21-.14.19-.14.34-.3.35-.3.62-.64.6-.6.3-.25.32-.23.16-.1.19-.09.18-.07.19,0,.18-.05.21,0h.43l.24,0,.23,0,.25.07.28.11.59.12.6.14.6.18.6.19.58.2.57.23.58.26.55.27.53.3.56.33.5.32.51.37.51.37.48.39.46.39.46.41.42.44.41.46.39.46.39.49.35.48.35.51.29.51.3.53.26.55.23.53.23.57.18.56.16.6.12.57.11.6.07.6.42.12.37.16.34.18.33.19.25.2.25.26.21.25.18.25.14.3.14.28.09.32.09.3.05.33,0,.32,0,.32v.35l.32.11.3.14.3.16.28.16.27.21.26.18.23.23.23.24.44.46.41.5.39.53.39.53.4.51.39.51.21.23.2.23.21.23.23.21.23.18.25.18.23.19.28.14.28.14.3.11.3.07.32.07v.32l0,.28.05.25,0,.23.07.19.1.18.09.14.09.14.12.11.11.09.14.1.14.07.27.09.3.09.3.09.3.09.3.12.28.16.14.09.11.12.12.14.11.16.09.18.1.21.07.23.06.25.47,0,.5,0,.55,0,.53,0h.28l.28,0,.27,0,.26-.07.27-.09.23-.14.26-.16.23-.18.18.92.19,1,.16,1,.21,1.06.11.53.12.51.16.48.18.49.21.43.23.42.14.21.14.18.16.18.16.17.21.09.2,0h.19l.18-.05.19-.09.16-.11.16-.14.16-.16.35-.35.34-.37.19-.18.18-.16.21-.14.2-.12,1.78,2.35-.23.19-.21.14-.23.11-.23.07-.23,0-.23,0-.23,0-.25,0-.51-.07-.55,0h-.28l-.3,0-.32.05-.33.09.21.23.16.25.14.24.12.25.18.48.16.46.07.23.12.19.11.18.14.14.18.14.21.09.26.05.29,0,.24.6.18.53.09.23.07.23,0,.18,0,.21,0,.19,0,.18,0,.19-.07.18-.09.18-.12.21-.16.21-.21.21h1.18l.35.23.34.25.37.3.35.3.73.64.74.7.69.73.65.74.3.37.3.35.25.34.23.35.28-.3.18-.26.05-.11,0-.12v-.25l0-.07-.05-.05,0-.07-.16-.09-.18-.09-.42-.16-.39-.19-.18-.11-.14-.14-.05-.07,0-.09,0-.09v-.09l.6-.6.3,0,.3,0,.3.05.25.07.26.07.23.11.21.12.2.11.19.14.16.16.16.16.16.19.28.37.23.39.21.44.18.41.18.46.17.44.16.41.16.42.21.37.2.37.21-.12.18-.14.17-.13.13-.17.26-.32.23-.37.21-.41.25-.42.16-.2.16-.23.19-.21.2-.23.58,1.77,1.17-1.77,1.78,1.77-.6,1.18-.12,0-.09,0-.11-.05-.12-.07-.25-.18-.26-.23-.29-.21-.33-.18-.18-.07-.19-.07-.2-.05h-.21l-.09.05-.1.07-.06.07-.05.09-.09.16,0,.16v.21l0,.18,0,.21,0,.18.07.21,0,.16,0,.16v.21l0,.07,0,.05-.05,0,0,.05-.07,0-.09,0h-.1l-.23,0-.2,0-.21.09-.16.05-.16.05h-.12l-.05-.05,0-.05,0-.07v-.09l0,.09,0,.21-.09.09-.1.1-.06,0-.07,0-.1,0h-.11l.32.34.28.33.23.32.23.32.39.62.39.58.19.25.23.26.23.25.25.21.28.21.32.16.37.16.41.11.12.33.14.27.18.28.16.28.37.48.35.48.16.26.14.27.11.28.09.3.05.32V352l0,.39-.1.41h.07l0,0,0,0,0,0,0-.1v-.39l0-.32v-.16l0-.16.07-.17.09-.13,0,0,.07-.05.09-.06.09,0,.25-.07.28,0,.23.44.21.37.16.34.14.32,0,.19.05.16v.35l0,.18,0,.18-.07.21-.09.21h.44l.18,0,.18-.05.07,0,.1-.05,0,0,.07-.07,0-.07,0-.07,0-.09v-.1l1.18,1.75,1.17-1.75.21-.16.21-.11.18-.1.19,0,.16,0h.16l.14,0,.14,0,.13.07.12.07.11.12.12.11.21.28.2.3.37.71.42.7.21.29.25.28.14.12.14.11.16.07.16.07,1.17-1.18.58.6v.44l0,.21-.05.23-.07.23-.11.21-.14.23-.19.21h-.44l-.2,0-.16,0-.1,0-.07,0-.06,0-.05-.07,0,0,0-.1,0-.09V357l.16.46.14.37.16.32.14.25.13.21.14.14.14.09.12.05h.13l.12-.05.14-.07.11-.11.26-.28.23-.37.25-.39.28-.41.14-.19.13-.21.14-.16.16-.16.16-.14.17-.09.16-.07.18,0h.19l.2,0,.21.09.21.14-.14.32-.12.3-.06.28-.05.28v.25l0,.23.07.23.07.21.09.18.14.19.14.18.14.18.34.33.37.3.39.3.39.3.37.32.3.34.14.17.14.2.09.19.07.2,0,.24,0,.23v.25l-.05.28.6-.6.26.11.27.07.35.07.34.05.79.09.78.14.37.09.37.11.16.07.16.1.14.09.14.09.14.11.11.12.09.14.07.16.07.16.05.19,0,.18v.23l.16.14.17.14.16.11.16.12.14.07.16.07.14,0,.16.05.3,0h.27l.3-.05.3-.06.62-.19.7-.23.34-.09.39-.07.39-.07h.44l.19.18.13.17.12.13.07.17.05.18,0,.23v.69l1.77-.6.16.28.21.23.23.23.25.18.28.19.3.16.3.14.32.14.33.11.34.09.37.1.35.06.73.14.76.1,1.45.13,1.32.14.55.07.48.12.21.07.19.09.16.09.11.09,0-.21.06-.23.1-.18.11-.18.21-.26.09-.11.28.11.25.07.28.07.27,0,.28,0,.28,0h.27l.26,0,.55-.05.51-.07.53-.09.5-.11.49-.12.46-.09.46-.07.44-.05.2,0,.21,0h.21l.18.05.19.05.18,0,.19.09.16.1-.14-.12-.14-.09-.09-.12-.07-.09-.05-.09,0-.09v-.09l0-.1.07-.18.12-.16.14-.19.16-.16.16-.16.16-.16.12-.19.06-.16v-.18l0-.09,0-.1-.07-.11-.1-.09-.11-.12-.16-.09ZM132.87,214.06l0,0h-.05l-.05,0,0,0-.09-.1-.07-.14-.17-.34-.16-.35-.07-.16-.09-.14-.11-.09-.12-.07h-.07l-.09,0-.07,0-.07,0-.18.11-.21.19L131,213l-.14.27,0,.07,0,.1v.11l0,.09,0,.12.05.09.07.12.11.11h.37l-.21.07-.16.07-.18.11-.14.14-.16.16-.12.19-.14.21-.23.41-.2.46-.19.46-.18.44-.12.18-.09.19-.12.18-.09.14-.11.12-.14.09-.12.07-.16,0h-.14l-.18-.05-.16-.09-.21-.14-.21-.18-.23-.25-.25-.3-.25-.35-.37.21-.39.23-.46.23-.49.23-1.06.48-1.13.53-.57.28-.6.3-.58.32-.55.32-.55.37-.53.37-.49.39-.46.44-.23-.25-.25-.23-.28-.19-.28-.16-.3-.14-.32-.11-.32-.07-.32-.07-.69-.11-.72-.05-.71,0-.74,0-.35,0-.34,0-.35,0-.34-.07-.32-.09-.33-.11-.3-.12L111,219l-.27-.19-.26-.23-.23-.25L110,218l-.18-.32-.19-.37-.13-.44-.14-.46-.19-.44-.13-.43-.1-.44,0-.44,0-.42,0-.41,0-.44.11-.41.12-.42.13-.41.19-.42.18-.39.42-.83.41-.78.44-.81.42-.78.18-.39.18-.4.14-.39.12-.39.09-.39.07-.39,0-.39,0-.4,0-.36-.1-.4-.13-.39-.19-.39h.58v.6h.32l.32,0,.32,0,.3-.07.3-.07.3-.07.3-.09.28-.11.55-.26.53-.27.53-.33.51-.34.48-.37.49-.39.46-.4.46-.39.9-.76.87-.71.12.11.07.1,0,.11,0,.09,0,.21,0,.18,0,.07,0,.07.07.07.07,0,.11,0,.14,0,.16,0h.19l0-.16v-.14l0-.11,0-.09,0-.1.07,0,.07-.07.09,0,.09,0h.21l.11,0,.26,0,.27.09.58.28.58.32.55.33.48.25.72.67.78.69.39.34.39.35.37.37.37.39.35.39.32.39.3.44.23.44.11.23.1.23.09.25.07.26,0,.25.05.25,0,.26,0,.27.18.07.18.07.17.1.11.11.09.12.1.13.06.14,0,.16.05.35v.34l0,.37,0,.4,0,.39v.37l0,.18,0,.18.05.17,0,.16.09.16.09.14.11.14.14.11.16.12.21.09.21.07.28.07v-.1l0-.09,0-.09,0-.07,0-.05.07,0,.07,0,.09,0,.17-.05.2,0h.44l.09.21.07.2.05.19,0,.18v.33l0,.13,0,.14-.07.14-.07.14-.09.11-.09.12-.19.23-.23.23Z"/><polygon class="cls-1" points="91.12 58.81 90.85 59.06 90.59 59.27 90.34 59.45 90.11 59.59 90.18 59.71 90.27 59.78 90.36 59.85 90.5 59.92 90.64 59.94 90.8 59.96 90.96 59.98 91.12 59.98 91.12 58.81 91.12 58.81"/><polygon class="cls-1" points="151.69 159.95 150.45 159.84 150.47 159.88 150.52 159.95 150.52 160.04 150.54 160.11 150.57 160.18 150.61 160.21 150.73 160.21 150.89 160.18 151.05 160.11 151.26 160.04 151.47 159.97 151.69 159.95 151.69 159.95"/><polygon class="cls-1" points="184.02 115.84 183.93 115.84 183.65 115.84 183.28 115.84 182.84 115.84 182.98 116.08 183.12 116.28 183.28 116.51 183.49 116.72 183.7 116.93 183.91 117.14 184.16 117.34 184.39 117.55 184.9 117.92 185.4 118.24 185.91 118.54 186.37 118.79 184.02 120.55 183.95 120.78 183.91 120.96 183.93 121.14 183.97 121.33 184.07 121.49 184.18 121.65 184.32 121.81 184.46 121.95 185.17 122.46 185.79 122.9 185.59 123.06 185.4 123.22 185.26 123.38 185.15 123.54 185.03 123.7 184.97 123.84 184.92 124 184.87 124.14 184.87 124.3 184.87 124.44 184.87 124.58 184.92 124.74 185.01 125.04 185.13 125.34 185.43 125.96 185.7 126.63 185.77 126.81 185.82 127 185.84 127.18 185.86 127.37 185.86 127.57 185.86 127.78 185.84 127.99 185.79 128.2 185.68 128.2 185.61 128.22 185.54 128.27 185.5 128.31 185.47 128.36 185.45 128.43 185.45 128.5 185.45 128.56 185.54 128.98 185.72 129.44 185.79 129.69 185.86 129.95 185.89 130.2 185.86 130.43 185.84 130.55 185.82 130.64 185.75 130.75 185.68 130.85 185.59 130.94 185.5 131.01 185.36 131.08 185.2 131.15 185.33 131.79 185.5 132.39 185.7 132.97 185.91 133.5 186.16 134.03 186.42 134.51 186.69 135 186.97 135.48 187.5 136.4 188.01 137.34 188.24 137.83 188.44 138.31 188.6 138.84 188.72 139.37 188.15 139.37 188.15 140.55 188.35 140.5 188.56 140.48 188.72 140.48 188.91 140.48 189.04 140.5 189.18 140.55 189.3 140.59 189.41 140.69 189.53 140.76 189.62 140.85 189.69 140.96 189.76 141.06 189.9 141.31 189.99 141.59 190.1 142.14 190.22 142.69 190.26 142.94 190.31 143.18 190.4 143.36 190.5 143.47 190.5 143.64 190.47 143.8 190.43 143.94 190.4 144.07 190.29 144.33 190.13 144.53 189.94 144.74 189.76 144.9 189.53 145.09 189.32 145.25 189.09 145.41 188.88 145.59 188.7 145.78 188.51 145.96 188.35 146.19 188.24 146.43 188.19 146.56 188.17 146.7 188.15 146.86 188.15 147.02 188.35 147 188.58 146.93 188.81 146.86 189.02 146.79 189.13 146.77 189.25 146.75 189.37 146.75 189.46 146.77 189.57 146.79 189.69 146.84 189.8 146.91 189.9 147.02 189.92 147.44 189.97 147.85 190.03 148.25 190.1 148.61 190.22 148.98 190.36 149.33 190.52 149.65 190.68 149.95 190.86 150.25 191.07 150.53 191.28 150.78 191.51 151.03 191.76 151.29 192.01 151.52 192.27 151.72 192.54 151.93 193.12 152.35 193.7 152.72 194.27 153.06 194.87 153.38 195.45 153.71 195.98 154.03 196.49 154.33 196.97 154.65 197.13 154.56 197.29 154.49 197.45 154.42 197.61 154.38 197.8 154.35 197.96 154.33 198.12 154.35 198.28 154.35 198.6 154.42 198.95 154.54 199.27 154.7 199.6 154.88 200.26 155.3 200.93 155.74 201.25 155.94 201.6 156.13 201.92 156.29 202.25 156.43 202.45 156.31 202.64 156.2 202.8 156.08 202.94 155.97 203.07 155.85 203.17 155.74 203.26 155.6 203.35 155.46 203.65 154.86 204.02 154.08 204.04 154.4 204.09 154.7 204.18 155 204.32 155.27 204.46 155.53 204.64 155.78 204.83 156.01 205.06 156.2 205.26 156.38 205.52 156.54 205.75 156.68 206 156.79 206.25 156.89 206.48 156.96 206.74 157 206.94 157 206.85 157.03 206.76 157.05 206.69 157.07 206.62 157.12 206.55 157.16 206.51 157.23 206.46 157.3 206.44 157.37 206.39 157.56 206.37 157.76 206.37 157.97 206.37 158.18 208.14 158.18 208.14 155.83 208.24 155.76 208.42 155.62 208.49 155.6 208.53 155.57 208.58 155.57 208.63 155.6 208.67 155.62 208.7 155.67 208.72 155.74 208.72 155.83 208.72 156.43 209.89 157.6 210.01 157.72 210.13 157.81 210.26 157.88 210.4 157.97 210.72 158.09 211.05 158.18 211.37 158.25 211.72 158.27 212.06 158.27 212.41 158.27 212.73 158.22 213.03 158.18 213.3 158.11 213.53 158.02 213.74 157.92 213.88 157.81 213.95 157.76 213.97 157.72 214 157.65 214.02 157.6 214.02 157.72 214.04 157.79 214.06 157.88 214.11 157.95 214.16 157.99 214.23 158.04 214.29 158.09 214.39 158.11 214.55 158.15 214.76 158.18 214.96 158.18 215.19 158.18 215.7 157.74 216.3 157.23 216.41 157.09 216.55 156.93 216.67 156.79 216.76 156.61 216.83 156.45 216.9 156.24 216.94 156.06 216.94 155.83 218.12 155.83 218.3 155.62 218.42 155.44 218.44 155.37 218.47 155.27 218.44 155.21 218.44 155.14 218.37 155 218.28 154.88 218.14 154.77 217.98 154.65 217.64 154.44 217.29 154.19 217.15 154.03 217.06 153.87 217.01 153.78 216.97 153.68 216.97 153.59 216.94 153.48 218.72 152.9 218.03 151.82 217.31 150.78 216.6 149.77 215.93 148.78 215.61 148.29 215.29 147.78 215.01 147.28 214.76 146.77 214.53 146.26 214.32 145.73 214.13 145.2 214.02 144.67 213.9 144.49 213.81 144.33 213.74 144.14 213.67 143.96 213.56 143.57 213.47 143.18 213.35 142.39 213.21 141.66 213.12 141.31 212.98 140.99 212.91 140.82 212.82 140.69 212.73 140.57 212.61 140.46 212.47 140.34 212.34 140.25 212.18 140.16 211.99 140.09 211.81 140.04 211.58 140 211.35 139.97 211.07 139.95 211.09 139.86 211.14 139.6 211.21 139.42 211.32 139.21 211.46 139 211.67 138.77 211.76 138.87 212.04 139.07 212.2 139.19 212.41 139.28 212.61 139.35 212.84 139.37 212.84 138.94 212.84 138.5 212.84 138.04 212.84 137.6 212.64 137.32 212.45 137.05 212.31 136.77 212.2 136.47 212.11 136.19 212.04 135.89 211.99 135.59 211.97 135.32 211.97 134.72 211.99 134.12 212.04 133.5 212.11 132.9 212.15 132.3 212.15 131.7 212.15 131.4 212.13 131.1 212.08 130.8 212.01 130.5 211.92 130.2 211.81 129.9 211.67 129.63 211.51 129.33 211.3 129.05 211.07 128.75 210.79 128.47 210.49 128.2 211.67 127.62 211.6 127.3 211.53 126.97 211.46 126.7 211.37 126.42 211.25 126.17 211.16 125.92 211.05 125.69 210.91 125.45 210.79 125.25 210.66 125.06 210.49 124.88 210.35 124.69 210.03 124.37 209.69 124.07 209.32 123.82 208.93 123.59 208.51 123.36 208.1 123.15 207.25 122.73 206.37 122.32 206.16 122.11 205.98 121.91 205.84 121.72 205.7 121.54 205.61 121.38 205.54 121.21 205.49 121.05 205.49 120.91 205.49 120.78 205.54 120.66 205.61 120.52 205.7 120.41 205.84 120.29 205.98 120.18 206.16 120.08 206.37 119.97 204.02 119.37 203.93 119.28 203.88 119.16 203.86 119.05 203.86 118.93 203.88 118.82 203.95 118.72 204.02 118.61 204.09 118.5 204.27 118.26 204.43 118.06 204.5 117.94 204.55 117.83 204.59 117.71 204.59 117.62 202.84 116.44 202.52 116.58 202.22 116.7 201.92 116.77 201.65 116.81 201.39 116.84 201.14 116.81 200.89 116.79 200.66 116.72 200.45 116.63 200.24 116.54 200.03 116.42 199.83 116.28 199.46 115.98 199.09 115.64 198.74 115.27 198.37 114.9 198.01 114.53 197.64 114.21 197.43 114.05 197.22 113.91 197.01 113.79 196.78 113.7 196.55 113.61 196.3 113.54 196.05 113.52 195.79 113.49 195.68 113.75 195.54 113.98 195.4 114.19 195.26 114.37 195.13 114.53 194.96 114.65 194.8 114.76 194.62 114.85 194.46 114.92 194.27 114.99 194.09 115.04 193.91 115.06 193.51 115.11 193.14 115.11 192.75 115.11 192.38 115.11 192.01 115.11 191.65 115.15 191.49 115.18 191.32 115.22 191.16 115.29 191 115.36 190.86 115.45 190.72 115.57 190.61 115.71 190.5 115.84 190.38 115.75 190.26 115.66 190.13 115.57 189.97 115.5 189.66 115.41 189.32 115.31 188.58 115.25 187.78 115.18 187.36 115.15 186.95 115.11 186.53 115.04 186.12 114.95 185.91 114.88 185.7 114.81 185.52 114.72 185.33 114.62 185.15 114.51 184.97 114.39 184.78 114.23 184.62 114.09 184.02 115.84 184.02 115.84"/><polygon class="cls-1" points="148.17 273.45 148.38 273.4 148.54 273.33 148.7 273.26 148.84 273.17 148.95 273.1 149.05 273.01 149.12 272.92 149.16 272.82 149.21 272.71 149.23 272.62 149.25 272.5 149.25 272.39 149.23 272.16 149.18 271.9 149.07 271.39 149 270.89 148.98 270.75 149 270.63 149.02 270.5 149.05 270.38 149.09 270.27 149.16 270.15 149.23 270.04 149.34 269.92 149.32 269.81 149.32 269.74 149.28 269.64 149.23 269.57 149.18 269.53 149.12 269.48 149.05 269.44 148.98 269.41 148.79 269.37 148.59 269.34 148.38 269.34 148.17 269.34 148.15 268.88 148.1 268.42 148.03 267.96 147.94 267.5 147.8 267.02 147.64 266.56 147.43 266.1 147.2 265.66 146.95 265.22 146.65 264.8 146.3 264.41 145.94 264.04 145.73 263.86 145.52 263.7 145.29 263.54 145.06 263.38 144.83 263.24 144.58 263.1 144.32 262.98 144.05 262.87 143.63 263.08 143.26 263.28 142.94 263.42 142.64 263.51 142.53 263.54 142.39 263.54 142.27 263.51 142.13 263.44 142.02 263.35 141.93 263.21 141.81 263.05 141.7 262.87 141.1 262.87 140.89 262.96 140.66 263.01 140.45 263.03 140.22 263.01 140.01 262.96 139.78 262.92 139.55 262.82 139.35 262.71 138.91 262.48 138.47 262.2 138.01 261.92 137.57 261.69 137.8 261.69 138.01 261.67 138.22 261.62 138.38 261.53 138.47 261.49 138.54 261.39 138.61 261.3 138.66 261.19 138.7 261.05 138.72 260.91 138.75 260.73 138.75 260.52 137 260.52 137 260.98 137.02 261.49 137.04 261.99 137.13 262.5 137.2 262.73 137.27 262.98 137.36 263.19 137.48 263.4 137.62 263.61 137.78 263.77 137.96 263.91 138.17 264.04 137.94 264.25 137.73 264.46 137.5 264.64 137.29 264.78 137.18 264.83 137.06 264.85 136.95 264.87 136.84 264.87 136.74 264.85 136.63 264.8 136.51 264.74 136.4 264.62 136.14 264.5 135.89 264.39 135.68 264.27 135.47 264.16 135.31 264.04 135.15 263.91 135.01 263.77 134.9 263.63 134.81 263.49 134.74 263.35 134.67 263.21 134.62 263.05 134.58 262.92 134.55 262.75 134.55 262.59 134.58 262.43 134.62 262.08 134.72 261.74 134.83 261.37 134.99 260.98 135.38 260.19 135.82 259.34 135.47 259.13 135.13 258.95 134.76 258.79 134.39 258.65 134 258.51 133.61 258.42 133.22 258.33 132.8 258.24 131.97 258.07 131.1 257.94 130.22 257.78 129.35 257.57 129.28 257.2 129.21 256.85 129.12 256.55 129.02 256.25 128.91 256 128.79 255.77 128.66 255.56 128.49 255.36 128.36 255.19 128.17 255.06 128.01 254.92 127.83 254.8 127.62 254.71 127.43 254.62 127.2 254.55 127 254.48 126.54 254.39 126.08 254.34 125.57 254.3 125.04 254.27 124.51 254.23 123.98 254.2 123.42 254.13 122.87 254.04 122.67 254.27 122.48 254.5 122.32 254.76 122.16 255.01 122.02 255.26 121.91 255.54 121.79 255.82 121.72 256.09 121.65 256.37 121.58 256.67 121.54 256.97 121.51 257.27 121.47 257.89 121.49 258.54 121.54 259.16 121.61 259.8 121.7 260.45 121.81 261.07 122.04 262.29 122.3 263.44 122.41 263.35 122.57 263.26 122.73 263.19 122.92 263.12 123.1 263.1 123.29 263.08 123.49 263.08 123.68 263.08 123.89 263.12 124.05 263.19 124.21 263.26 124.37 263.38 124.48 263.49 124.58 263.65 124.62 263.84 124.65 264.04 124.53 264.04 124.42 264.09 124.32 264.14 124.21 264.23 123.98 264.41 123.77 264.62 123.54 264.85 123.33 265.04 123.22 265.1 123.1 265.17 122.99 265.2 122.87 265.22 122.99 265.5 123.06 265.77 123.15 266.05 123.19 266.35 123.29 266.92 123.31 267.52 123.33 268.7 123.31 269.92 123.33 270.52 123.36 271.14 123.42 271.74 123.54 272.32 123.61 272.62 123.7 272.92 123.82 273.22 123.93 273.49 124.09 273.79 124.25 274.07 124.44 274.35 124.65 274.62 124.05 275.22 124.37 275.22 124.65 275.24 124.88 275.29 125.08 275.34 125.27 275.4 125.43 275.5 125.55 275.59 125.66 275.7 125.73 275.84 125.8 275.96 125.82 276.12 125.84 276.26 125.87 276.6 125.82 276.97 125.68 277.8 125.55 278.68 125.52 278.91 125.52 279.14 125.52 279.37 125.55 279.6 125.59 279.83 125.64 280.06 125.73 280.29 125.82 280.5 125.98 280.5 126.12 280.48 126.24 280.45 126.35 280.4 126.47 280.36 126.56 280.29 126.63 280.22 126.7 280.13 126.83 279.97 126.93 279.76 127.04 279.55 127.14 279.32 127.27 279.12 127.41 278.91 127.57 278.7 127.8 278.52 127.94 278.45 128.08 278.38 128.24 278.31 128.43 278.26 128.63 278.22 128.84 278.17 129.09 278.17 129.35 278.15 129.51 278.26 129.65 278.38 129.76 278.49 129.85 278.61 129.95 278.75 129.99 278.86 130.04 279 130.08 279.12 130.11 279.25 130.11 279.37 130.11 279.51 130.08 279.62 130.04 279.88 129.95 280.13 129.81 280.38 129.67 280.61 129.51 280.84 129.35 281.05 129.02 281.42 128.77 281.67 130.52 282.85 130.52 282.96 130.45 283.22 130.38 283.4 130.27 283.61 130.13 283.82 129.95 284.02 129.72 284.02 129.49 284.02 129.28 283.98 129.05 283.88 128.96 283.82 128.84 283.75 128.72 283.65 128.61 283.54 128.49 283.4 128.4 283.24 128.29 283.06 128.17 282.85 127.57 284.62 127.71 284.83 127.85 285.01 128.03 285.15 128.22 285.29 128.4 285.41 128.61 285.48 128.84 285.54 129.05 285.57 129.28 285.59 129.49 285.59 129.69 285.57 129.9 285.52 130.08 285.48 130.25 285.41 130.41 285.31 130.52 285.22 130.84 285.13 131.1 285.06 131.35 285.04 131.56 285.06 131.74 285.08 131.93 285.13 132.06 285.2 132.2 285.29 132.48 285.45 132.76 285.61 132.92 285.68 133.08 285.75 133.26 285.77 133.47 285.8 134.05 285.22 131.12 284.62 131.12 284.39 131.12 284.19 131.14 284 131.19 283.82 131.21 283.72 131.26 283.65 131.31 283.61 131.35 283.54 131.42 283.49 131.51 283.47 131.6 283.45 131.7 283.45 131.81 283.36 131.93 283.26 132.04 283.19 132.16 283.13 132.3 283.1 132.41 283.06 132.55 283.06 132.66 283.03 132.94 283.06 133.22 283.13 133.47 283.19 133.75 283.31 134.3 283.54 134.83 283.77 135.11 283.88 135.34 283.95 135.59 284.02 135.82 284.02 135.82 284.55 135.87 284.99 135.94 285.34 136.03 285.64 136.07 285.77 136.14 285.89 136.21 285.98 136.28 286.07 136.44 286.21 136.63 286.31 136.84 286.37 137.04 286.42 137.29 286.42 137.55 286.42 138.13 286.4 138.75 286.37 138.7 286.6 138.7 286.79 138.7 286.97 138.7 287.13 138.75 287.3 138.79 287.43 138.86 287.57 138.95 287.69 139.16 287.92 139.39 288.1 139.67 288.29 139.92 288.45 140.2 288.61 140.47 288.79 140.71 288.98 140.91 289.21 140.98 289.32 141.05 289.46 141.12 289.6 141.14 289.74 141.17 289.92 141.17 290.08 141.14 290.29 141.1 290.5 139.35 291.1 139.55 291.21 139.76 291.4 139.94 291.58 140.13 291.81 140.47 292.32 140.82 292.85 141.14 293.4 141.49 293.91 141.67 294.12 141.86 294.32 142.06 294.49 142.27 294.62 142.71 293.84 143.08 293.03 143.45 292.2 143.77 291.35 144.39 289.65 144.99 287.94 145.31 287.09 145.64 286.24 145.96 285.41 146.33 284.62 146.53 284.23 146.72 283.84 146.95 283.45 147.16 283.08 147.39 282.71 147.64 282.36 147.89 282.02 148.17 281.67 148.03 281.47 147.89 281.28 147.73 281.12 147.55 280.98 147.18 280.73 146.83 280.5 146.67 280.4 146.53 280.29 146.42 280.15 146.35 280.04 146.28 279.88 146.28 279.71 146.3 279.53 146.4 279.32 146.49 279.12 146.58 278.93 146.67 278.79 146.76 278.68 146.88 278.61 146.97 278.56 147.09 278.54 147.2 278.56 147.29 278.58 147.41 278.61 147.5 278.68 147.59 278.75 147.78 278.88 147.94 279.05 147.78 278.86 147.64 278.65 147.57 278.47 147.53 278.29 147.5 278.1 147.53 277.92 147.59 277.75 147.66 277.57 147.76 277.41 147.87 277.25 148.01 277.09 148.15 276.93 148.45 276.6 148.75 276.28 149.05 275.96 149.28 275.63 149.37 275.47 149.44 275.31 149.48 275.15 149.51 274.97 149.48 274.81 149.44 274.62 149.34 274.44 149.21 274.25 149.02 274.05 148.79 273.86 148.49 273.65 148.17 273.45 148.17 273.45"/><polygon class="cls-1" points="139.92 261.69 139.94 261.88 139.99 262.06 140.04 262.18 140.13 262.29 140.22 262.36 140.34 262.43 140.45 262.45 140.59 262.5 140.89 262.55 141.17 262.59 141.3 262.64 141.44 262.68 141.58 262.78 141.7 262.87 142.87 261.69 139.92 261.69 139.92 261.69"/><polygon class="cls-1" points="87.6 336.96 87.71 336.98 87.83 337 87.94 337.07 88.04 337.14 88.27 337.32 88.5 337.56 88.7 337.76 88.93 337.95 89.03 338.04 89.14 338.09 89.26 338.13 89.37 338.13 90.55 335.78 88.77 335.2 88.66 335.2 88.57 335.23 88.45 335.25 88.36 335.3 88.24 335.37 88.15 335.44 88.06 335.53 87.97 335.64 87.9 335.76 87.83 335.9 87.76 336.04 87.71 336.2 87.67 336.36 87.62 336.54 87.62 336.75 87.6 336.96 87.6 336.96"/></g></g></svg>