<svg xmlns="http://www.w3.org/2000/svg" viewBox="0 0 366.9 114.9"><defs><style>.cls-1{fill:#58595b;}.cls-2{fill:#939598;}.cls-3{fill:#87355b;}.cls-4{fill:#ad2348;}.cls-5{fill:#ad5e8d;}.cls-6{fill:#f389af;}.cls-7{fill:#ee2953;}.cls-8{fill:#840037;}.cls-9{fill:#4d7fb1;}.cls-10{fill:#aea2bf;}.cls-11{fill:#692a4d;}.cls-12{fill:#47244a;}.cls-13{fill:#7d6ca8;}.cls-14{fill:#5db7e7;}.cls-15{fill:#335ea4;}.cls-16{fill:#9c2e7b;}</style></defs><g id="Layer_2" data-name="Layer 2"><g id="Layer_1-2" data-name="Layer 1"><path class="cls-1" d="M98,69.6h17.3v4.3H102.7v7.5h11.4v4.2H102.7V92h12.6v4.3H98Z"/><path class="cls-1" d="M132.2,87.7l8.2-18.2h4.9L133,96.5h-1.6L119.1,69.6h5Z"/><path class="cls-1" d="M147.6,96.2h-4.9l12.5-26.8h1.1l12.5,26.8h-5l-2.3-5.3H150.1Zm3.9-9.1h8.1l-4-9.2Z"/><path class="cls-1" d="M173.1,69.6h4.7V91.9h12.6v4.3H173.1Z"/><path class="cls-1" d="M194.2,69.6h4.7V85.2c0,5.1,2.3,7.2,6.3,7.2s6.5-2.1,6.5-7.2V69.6h4.7V85.2c0,7.9-4.5,11.5-11.2,11.5s-11-3.6-11-11.5Z"/><path class="cls-1" d="M223.6,69.5h17.3v4.3H228.3v7.5h11.4v4.2H228.3v6.4h12.6v4.3H223.6Z"/><path class="cls-1" d="M255.5,96.6a18,18,0,0,1-8.7-2.5l1.6-4.2a13.19,13.19,0,0,0,7.2,2.4c3.1,0,4.6-1.5,4.6-3.3s-1-2.8-5.8-4.6c-5.2-1.9-7-4.3-7-7.5,0-4,3.3-7.7,8.9-7.7a15.4,15.4,0,0,1,7.3,1.8l-1.5,4.2a13.16,13.16,0,0,0-5.9-1.8c-2.8,0-4.1,1.6-4.1,3.4s1.4,2.8,5.2,4.1c5.9,2.3,7.6,4.7,7.6,8.1C265,93.7,261.5,96.6,255.5,96.6Z"/><path class="cls-1" d="M271.6,69.5h17.3v4.3H276.3v7.5h11.4v4.2H276.3v6.4h12.6v4.3H271.6Z"/><path class="cls-1" d="M296,69.5h8.5c7.1,0,10.6,3.9,10.6,9.5,0,2.8-1.4,6.7-5,8.4,2,1.7,2.6,4.5,5.7,4.5h1.1V96a14.06,14.06,0,0,1-2.5.2c-6.6,0-6.2-6.1-9.5-7.9h-4.3V96H296Zm4.7,4.3V84.2h3.5c4.4,0,5.9-2.3,5.9-5.3s-1.5-5.1-5.9-5.1Z"/><path class="cls-1" d="M331.7,87.7l8.2-18.2h4.9L332.5,96.4h-1.6L318.6,69.5h5Z"/><path class="cls-1" d="M349.6,69.5h17.3v4.3H354.3v7.4h11.4v4.2H354.3v6.4h12.6v4.3H349.6Z"/><path class="cls-2" d="M99.5,112.3v2.4H98v-8.4h2.6c2.2,0,3.3,1.2,3.3,3s-1.1,3-3.6,3Zm0-4.6V111h1c1.4,0,1.9-.7,1.9-1.7s-.5-1.6-1.9-1.6Z"/><path class="cls-2" d="M109.7,106.2a4.3,4.3,0,1,1-4.5,4.3A4.38,4.38,0,0,1,109.7,106.2Zm0,7.4a2.93,2.93,0,0,0,2.9-3,2.9,2.9,0,1,0-5.8,0A2.93,2.93,0,0,0,109.7,113.6Z"/><path class="cls-2" d="M123.6,114.8h-.5l-2.6-5.6-2.6,5.6h-.5l-2.6-8.5h1.6l1.6,5.3,2.2-5.4h.5l2.3,5.4,1.6-5.3h1.6Z"/><path class="cls-2" d="M128.2,106.4h5.4v1.4h-4v2.3h3.6v1.3h-3.6v2h4v1.4h-5.4Z"/><path class="cls-2" d="M136.3,106.4H139c2.2,0,3.3,1.2,3.3,3a2.7,2.7,0,0,1-1.5,2.6l2.1,2.8h-1.7l-1.8-2.5h-1.6v2.4h-1.5v-8.3Zm1.5,1.3V111h1.1c1.4,0,1.9-.7,1.9-1.7s-.5-1.6-1.9-1.6Z"/><path class="cls-2" d="M144.6,106.4H150v1.4h-4v2.3h3.6v1.3H146v2h4v1.4h-5.4Z"/><path class="cls-2" d="M152.6,106.4h3.2a4.18,4.18,0,0,1,4.5,4.2,4.24,4.24,0,0,1-4.5,4.2h-3.2Zm1.5,1.3v5.6h1.7a2.82,2.82,0,0,0,2.9-2.8,2.76,2.76,0,0,0-2.9-2.8Z"/><path class="cls-2" d="M166.1,106.4h2.7c2.2,0,3.1.9,3.1,2.2a2,2,0,0,1-1.5,1.9,1.9,1.9,0,0,1,1.7,1.9c0,1.5-1.4,2.4-3.3,2.4h-2.7Zm1.5,1.3V110h1.1c1.2,0,1.7-.6,1.7-1.2s-.4-1-1.5-1h-1.3Zm0,3.4v2.3h1.3c1.2,0,1.7-.5,1.7-1.2s-.5-1.2-2-1.2h-1Z"/><path class="cls-2" d="M180.8,106.4l-3.1,5.1v3.3h-1.5v-3.3l-3.1-5h1.7l2.1,3.7,2.1-3.7h1.8Z"/><path class="cls-2" d="M194.6,114.7h-1.4v-4.8l-2.6,4.9H190l-2.6-4.8v4.7H186l.2-8.4h.7l3.5,6.1,3.4-6.1h.7Z"/><path class="cls-2" d="M197.4,106.4h1.5v8.4h-1.5Z"/><path class="cls-2" d="M201.4,106.3h.5l5.2,5.4v-5.3h1.5v8.4h-.4l-5.2-5.2v5.2h-1.5v-8.5Z"/><path class="cls-2" d="M211.2,106.4h3.2a4.18,4.18,0,0,1,4.5,4.2,4.24,4.24,0,0,1-4.5,4.2h-3.2Zm1.4,1.3v5.6h1.7a2.82,2.82,0,0,0,2.9-2.8,2.76,2.76,0,0,0-2.9-2.8Z"/><path class="cls-2" d="M224.4,113.5V111H222v-1.2h2.5v-2.5h1.2v2.5h2.5V111h-2.5v2.5Z"/><path class="cls-2" d="M239.9,114.7h-1.5v-4.8l-2.6,4.9h-.5l-2.6-4.8v4.7h-1.4l.2-8.4h.7l3.5,6.1,3.4-6.1h.7Z"/><path class="cls-2" d="M243.1,114.7h-1.5l3.9-8.4h.3l3.9,8.4h-1.6l-.7-1.7h-3.6Zm1.3-2.8h2.5l-1.3-2.9Z"/><path class="cls-2" d="M257.9,114.2a5.61,5.61,0,0,1-2.8.7,4.31,4.31,0,1,1-.2-8.6,5.78,5.78,0,0,1,2.9.7l-.5,1.3a6.13,6.13,0,0,0-2.2-.5,2.91,2.91,0,1,0-.2,5.8,5.08,5.08,0,0,0,2.4-.6Z"/><path class="cls-2" d="M265.7,111.4h-4.1v3.3h-1.5v-8.4h1.5v3.8h4.1v-3.7h1.5v8.3h-1.5Z"/><path class="cls-2" d="M269.8,106.4h1.5v8.4h-1.5Z"/><path class="cls-2" d="M273.8,106.3h.5l5.2,5.4v-5.3H281v8.4h-.4l-5.2-5.2v5.2h-1.5v-8.5Z"/><path class="cls-2" d="M283.4,106.4h5.4v1.4h-4v2.3h3.6v1.3h-3.6v2h4v1.4h-5.4Z"/><path class="cls-3" d="M37.4,51.5h0"/><path class="cls-4" d="M37.5,51.5H59.1l-9-9-6.2,6.2A8.84,8.84,0,0,1,37.5,51.5Z"/><path class="cls-4" d="M34.9,51.2h0a2.54,2.54,0,0,0-.7-.2c-.1,0-.1,0-.2-.1l-.6-.3a.35.35,0,0,1-.2-.1c-.2-.1-.3-.2-.5-.3s-.2-.1-.3-.2-.3-.2-.5-.3-.2-.1-.2-.2-.3-.2-.4-.4c-.1,0-.1-.1-.2-.1l2.5,2.5h3.6A8.52,8.52,0,0,1,34.9,51.2Z"/><path class="cls-5" d="M95.4,42.5a8.94,8.94,0,0,1,8.9-9H82.6L98,48.8A8.83,8.83,0,0,1,95.4,42.5Z"/><path class="cls-6" d="M110.5,35.9l-33-33,.2.2c.1.1.1.2.2.3s.2.3.3.4.1.2.2.3.2.3.3.4.1.2.2.3a.76.76,0,0,0,.2.5c.1.1.1.3.2.4s.1.2.1.4.1.3.2.5.1.2.1.3a4.33,4.33,0,0,0,.1.5v.3c0,.2.1.4.1.6V9.5a9,9,0,0,1-2.8,6.2l-6.2,6.2L82.7,33.7h21.7A7.84,7.84,0,0,1,110.5,35.9Z"/><path class="cls-7" d="M61.9,76a9,9,0,0,1,15.3-6.4L59.1,51.5H33.5L64.3,82.3A9.11,9.11,0,0,1,61.9,76Z"/><path class="cls-8" d="M70.9,85a9,9,0,1,1,9-9A9,9,0,0,1,70.9,85Z"/><path class="cls-9" d="M31,36.2l-.2.2a6.47,6.47,0,0,1,.9-.8l.1-.1a2.09,2.09,0,0,1,.6-.4c.1,0,.1-.1.2-.1l.6-.3c.1,0,.1-.1.2-.1l.6-.3c.1,0,.1,0,.2-.1a1.45,1.45,0,0,1,.7-.2H35a20,20,0,0,1,2.4-.4H33.7Z"/><path class="cls-9" d="M37.4,33.5a9.19,9.19,0,0,1,4.1,1h0a9.12,9.12,0,0,1,2.3,1.7l6.3,6.3,9-9Z"/><path class="cls-10" d="M31,48.9a4.62,4.62,0,0,0-.7-.7c0-.1-.1-.1-.1-.2s-.3-.3-.4-.5-.1-.2-.2-.3-.2-.3-.3-.4-.1-.2-.2-.4-.1-.3-.2-.4a.6.6,0,0,1-.1-.4c-.1-.1-.1-.3-.2-.4s-.1-.3-.1-.4-.1-.3-.1-.4-.1-.3-.1-.5a.76.76,0,0,0-.1-.4,5.44,5.44,0,0,1,0-1.8v-.3a1.27,1.27,0,0,1,.1-.6c0-.1.1-.3.1-.4s.1-.3.1-.5.1-.2.1-.4.1-.3.2-.5.1-.2.2-.3.1-.3.2-.5.1-.2.2-.3a1.38,1.38,0,0,1,.3-.4c.1-.1.2-.2.2-.3s.2-.3.3-.4.3-.3.4-.4l.2-.2,2.6-2.6H9a9,9,0,0,0,0,18H33.6l-2.5-2.5C31.1,49,31.1,49,31,48.9Z"/><path class="cls-11" d="M50.1,42.5l-6.3-6.3a8.83,8.83,0,0,1,2.6,6.3,8.69,8.69,0,0,1-2.5,6.2Z"/><path class="cls-12" d="M46.4,42.5a9,9,0,1,1-9-9A9,9,0,0,1,46.4,42.5Z"/><path class="cls-13" d="M70.9,18a8.83,8.83,0,0,1-6.3-2.6l6.3,6.3,6.2-6.2A8.69,8.69,0,0,1,70.9,18Z"/><path class="cls-14" d="M63.4,14l-.1-.1c-.1-.2-.3-.4-.4-.6s-.1-.1-.1-.2l-.3-.6a.35.35,0,0,0-.1-.2c-.1-.2-.1-.4-.2-.6s0-.2-.1-.2a1.27,1.27,0,0,1-.1-.6v-.3c0-.2-.1-.4-.1-.6V8.3a.75.75,0,0,1,.1-.5.37.37,0,0,1,.1-.3,4.33,4.33,0,0,1,.1-.5.37.37,0,0,1,.1-.3c.1-.2.1-.3.2-.5s.1-.2.1-.3.1-.3.2-.5.1-.2.2-.3.2-.3.3-.5.1-.2.2-.3a2.18,2.18,0,0,1,.4-.5c0-.1.1-.1.1-.2.3-.4.8-.8.6-.7l-31,30.6H59.1L70.9,21.7l-6.3-6.3A5.26,5.26,0,0,1,63.4,14Z"/><path class="cls-15" d="M70.9,18a9,9,0,1,1,9-9A9,9,0,0,1,70.9,18Z"/><path class="cls-10" d="M103.3,51.5a.6.6,0,0,1-.4-.1c-.2,0-.3,0-.4-.1s-.2-.1-.3-.1-.3-.1-.5-.1-.1-.1-.2-.1A9.88,9.88,0,0,1,98,48.8L82.6,33.5H59.1l-9,9,9,9h44.2Z"/><path class="cls-16" d="M113.4,42.5a9,9,0,1,1-9-9A9,9,0,0,1,113.4,42.5Z"/></g></g></svg>